<svg width="50" height="50" viewBox="0 0 50 50" fill="none" xmlns="http://www.w3.org/2000/svg">
<g clip-path="url(#clip0_977_12301)">
<path d="M25 0C20.0555 0 15.222 1.46622 11.1108 4.21326C6.99953 6.9603 3.79521 10.8648 1.90302 15.4329C0.0108321 20.0011 -0.484251 25.0277 0.480379 29.8773C1.44501 34.7268 3.82603 39.1814 7.32234 42.6777C10.8187 46.174 15.2732 48.555 20.1228 49.5196C24.9723 50.4843 29.9989 49.9892 34.5671 48.097C39.1352 46.2048 43.0397 43.0005 45.7867 38.8893C48.5338 34.778 50 29.9445 50 25C50 18.3696 47.3661 12.0107 42.6777 7.32233C37.9893 2.63392 31.6304 0 25 0V0ZM34.1513 16.0165C34.7859 16.0158 35.4065 16.2034 35.9344 16.5556C36.4623 16.9078 36.8739 17.4086 37.1171 17.9948C37.3602 18.581 37.424 19.2261 37.3004 19.8486C37.1767 20.471 36.8712 21.0428 36.4225 21.4915C35.9737 21.9403 35.402 22.2458 34.7795 22.3695C34.1571 22.4931 33.5119 22.4293 32.9257 22.1862C32.3396 21.943 31.8387 21.5314 31.4865 21.0035C31.1344 20.4755 30.9467 19.855 30.9474 19.2204C30.9474 18.3707 31.2849 17.5557 31.8858 16.9549C32.4866 16.354 33.3016 16.0165 34.1513 16.0165ZM15.8487 16.0165C16.4833 16.0158 17.1038 16.2034 17.6318 16.5556C18.1597 16.9078 18.5713 17.4086 18.8145 17.9948C19.0576 18.581 19.1214 19.2261 18.9978 19.8486C18.8741 20.471 18.5686 21.0428 18.1198 21.4915C17.6711 21.9403 17.0993 22.2458 16.4769 22.3695C15.8544 22.4931 15.2093 22.4293 14.6231 22.1862C14.0369 21.943 13.5361 21.5314 13.1839 21.0035C12.8317 20.4755 12.6441 19.855 12.6447 19.2204C12.6456 18.3709 12.9835 17.5565 13.5841 16.9558C14.1848 16.3552 14.9992 16.0173 15.8487 16.0165ZM39.079 31.375C38.0296 37.3651 32.125 41.5197 25 41.5197C17.875 41.5197 11.9737 37.3651 10.9244 31.375C10.9131 31.3142 10.9065 31.2526 10.9046 31.1908C10.9046 30.3257 11.9572 29.7665 12.8783 30.0822C16.4309 31.3092 20.5757 31.9342 25.0033 31.9342C29.4309 31.9342 33.5757 31.3092 37.1283 30.0822C38.0461 29.7533 39.102 30.3224 39.102 31.1908C39.0991 31.2527 39.0914 31.3143 39.079 31.375Z" fill="#43CD84"/>
</g>
<defs>
<clipPath id="clip0_977_12301">
<rect width="50" height="50" fill="white"/>
</clipPath>
</defs>
</svg>
