<svg width="51" height="50" viewBox="0 0 51 50" fill="none" xmlns="http://www.w3.org/2000/svg">
<g clip-path="url(#clip0_1052_13570)">
<path d="M25.5 50C39.3071 50 50.5 38.8071 50.5 25C50.5 11.1929 39.3071 0 25.5 0C11.6929 0 0.5 11.1929 0.5 25C0.5 38.8071 11.6929 50 25.5 50Z" fill="#FCD059"/>
<path d="M34.6969 25.9563C36.8637 25.9563 38.6203 24.1997 38.6203 22.0328C38.6203 19.866 36.8637 18.1094 34.6969 18.1094C32.53 18.1094 30.7734 19.866 30.7734 22.0328C30.7734 24.1997 32.53 25.9563 34.6969 25.9563Z" fill="white"/>
<path d="M16.3023 25.9563C18.4692 25.9563 20.2258 24.1997 20.2258 22.0328C20.2258 19.866 18.4692 18.1094 16.3023 18.1094C14.1355 18.1094 12.3789 19.866 12.3789 22.0328C12.3789 24.1997 14.1355 25.9563 16.3023 25.9563Z" fill="white"/>
<path d="M15.2595 34.8683C14.7876 34.4246 14.7658 33.6824 15.2095 33.2121C15.6533 32.7418 16.3939 32.7183 16.8658 33.1621C21.708 37.7199 29.2923 37.7199 34.1345 33.1621C34.6064 32.7183 35.347 32.7418 35.7908 33.2121C36.2345 33.684 36.2126 34.4246 35.7408 34.8683C29.9986 40.2746 21.0017 40.2746 15.2595 34.8683Z" fill="white"/>
</g>
<defs>
<clipPath id="clip0_1052_13570">
<rect width="50" height="50" fill="white" transform="translate(0.5)"/>
</clipPath>
</defs>
</svg>
