<svg width="33" height="32" viewBox="0 0 33 32" fill="none" xmlns="http://www.w3.org/2000/svg">
<rect x="0.5" width="32" height="32" rx="4" fill="#ECECFF"/>
<path d="M16.5008 27.4275C10.1888 27.4275 5.07227 22.3109 5.07227 15.9989C5.07227 9.68688 10.1888 4.57031 16.5008 4.57031C22.8128 4.57031 27.9294 9.68688 27.9294 15.9989C27.9294 22.3109 22.8128 27.4275 16.5008 27.4275ZM24.1237 15.9989C24.1119 15.6772 24.0074 15.3658 23.8226 15.1022C23.6379 14.8386 23.3808 14.634 23.0824 14.5132C22.784 14.3924 22.4571 14.3605 22.141 14.4213C21.8248 14.4822 21.5331 14.6331 21.3008 14.856C20.0007 13.9723 18.4725 13.484 16.9008 13.4503L17.6437 9.8846L20.0894 10.3989C20.1185 10.6691 20.2429 10.9202 20.4404 11.107C20.6379 11.2938 20.8955 11.404 21.167 11.418C21.4385 11.432 21.706 11.3487 21.9216 11.1832C22.1372 11.0177 22.2868 10.7807 22.3435 10.5149C22.4001 10.249 22.3602 9.97165 22.2308 9.7326C22.1014 9.49355 21.891 9.30845 21.6374 9.21053C21.3839 9.1126 21.1037 9.10826 20.8472 9.19829C20.5907 9.28831 20.3747 9.46681 20.238 9.70174L17.438 9.14174C17.3922 9.1317 17.3449 9.13084 17.2987 9.13922C17.2526 9.1476 17.2086 9.16505 17.1693 9.19057C17.1299 9.21608 17.0961 9.24914 17.0696 9.28785C17.0431 9.32655 17.0246 9.37012 17.0151 9.41603L16.1694 13.3817C14.5784 13.4057 13.0291 13.8943 11.7123 14.7875C11.5361 14.6217 11.326 14.4962 11.0965 14.4197C10.867 14.3432 10.6236 14.3176 10.3832 14.3445C10.1428 14.3714 9.9111 14.4503 9.70421 14.5756C9.49732 14.701 9.32015 14.8698 9.185 15.0705C9.04985 15.2711 8.95994 15.4987 8.9215 15.7375C8.88306 15.9764 8.89701 16.2207 8.96238 16.4536C9.02776 16.6865 9.14299 16.9024 9.30011 17.0864C9.45722 17.2703 9.65245 17.4179 9.87227 17.5189C9.8594 17.6863 9.8594 17.8544 9.87227 18.0217C9.87227 20.5817 12.8551 22.6617 16.5351 22.6617C20.2151 22.6617 23.198 20.5817 23.198 18.0217C23.2108 17.8544 23.2108 17.6863 23.198 17.5189C23.48 17.3787 23.7166 17.1616 23.8804 16.8926C24.0442 16.6236 24.1286 16.3138 24.1237 15.9989ZM12.6951 17.1417C12.6951 16.8386 12.8155 16.5479 13.0299 16.3336C13.2442 16.1193 13.5349 15.9989 13.838 15.9989C14.1411 15.9989 14.4318 16.1193 14.6461 16.3336C14.8604 16.5479 14.9808 16.8386 14.9808 17.1417C14.9808 17.4448 14.8604 17.7355 14.6461 17.9499C14.4318 18.1642 14.1411 18.2846 13.838 18.2846C13.5349 18.2846 13.2442 18.1642 13.0299 17.9499C12.8155 17.7355 12.6951 17.4448 12.6951 17.1417ZM19.3351 20.2846C18.5243 20.8956 17.5267 21.2066 16.5123 21.1646C15.4978 21.2066 14.5002 20.8956 13.6894 20.2846C13.6408 20.2254 13.616 20.1502 13.6197 20.0737C13.6235 19.9972 13.6556 19.9248 13.7097 19.8706C13.7639 19.8165 13.8363 19.7844 13.9128 19.7806C13.9893 19.7769 14.0645 19.8017 14.1237 19.8503C14.8108 20.3543 15.6495 20.6084 16.5008 20.5703C17.3532 20.6167 18.1958 20.3707 18.8894 19.8732C18.9186 19.8404 18.9543 19.8141 18.9941 19.7957C19.034 19.7773 19.0772 19.7673 19.1211 19.7664C19.165 19.7654 19.2086 19.7735 19.2492 19.7901C19.2898 19.8067 19.3266 19.8315 19.3572 19.8629C19.3879 19.8943 19.4117 19.9317 19.4273 19.9727C19.4429 20.0138 19.4498 20.0576 19.4478 20.1014C19.4457 20.1453 19.4346 20.1882 19.4152 20.2276C19.3959 20.2669 19.3686 20.3019 19.3351 20.3303V20.2846ZM19.1294 18.3303C18.9034 18.3303 18.6824 18.2633 18.4945 18.1377C18.3065 18.0121 18.16 17.8336 18.0735 17.6248C17.987 17.416 17.9644 17.1862 18.0085 16.9645C18.0526 16.7428 18.1615 16.5392 18.3213 16.3793C18.4811 16.2195 18.6848 16.1107 18.9064 16.0666C19.1281 16.0225 19.3579 16.0451 19.5668 16.1316C19.7756 16.2181 19.9541 16.3646 20.0797 16.5525C20.2052 16.7405 20.2723 16.9614 20.2723 17.1875C20.2785 17.3423 20.2531 17.4968 20.1978 17.6416C20.1424 17.7863 20.0582 17.9183 19.9502 18.0294C19.8422 18.1406 19.7128 18.2287 19.5697 18.2883C19.4266 18.3478 19.2729 18.3777 19.118 18.376L19.1294 18.3303Z" fill="#5E47EB"/>
</svg>
