<svg width="51" height="50" viewBox="0 0 51 50" fill="none" xmlns="http://www.w3.org/2000/svg">
<g clip-path="url(#clip0_1052_13639)">
<path d="M25.5 50C39.3071 50 50.5 38.8071 50.5 25C50.5 11.1929 39.3071 0 25.5 0C11.6929 0 0.5 11.1929 0.5 25C0.5 38.8071 11.6929 50 25.5 50Z" fill="#E56261"/>
<path d="M35.443 38.4937C35.0284 38.4937 34.6307 38.3297 34.3367 38.0375C29.6117 33.3125 21.3805 33.3125 16.6586 38.0375C16.0492 38.6469 15.0586 38.6469 14.4492 38.0375C13.8398 37.4281 13.8398 36.4375 14.4492 35.8281C17.4023 32.8781 21.3242 31.25 25.4992 31.25C29.6742 31.25 33.5961 32.8781 36.5461 35.8281C37.1555 36.4375 37.1555 37.4281 36.5461 38.0375C36.243 38.3438 35.843 38.4937 35.443 38.4937Z" fill="white"/>
<path d="M16.125 21.875C17.8509 21.875 19.25 20.4759 19.25 18.75C19.25 17.0241 17.8509 15.625 16.125 15.625C14.3991 15.625 13 17.0241 13 18.75C13 20.4759 14.3991 21.875 16.125 21.875Z" fill="white"/>
<path d="M34.875 21.875C36.6009 21.875 38 20.4759 38 18.75C38 17.0241 36.6009 15.625 34.875 15.625C33.1491 15.625 31.75 17.0241 31.75 18.75C31.75 20.4759 33.1491 21.875 34.875 21.875Z" fill="white"/>
</g>
<defs>
<clipPath id="clip0_1052_13639">
<rect width="50" height="50" fill="white" transform="translate(0.5)"/>
</clipPath>
</defs>
</svg>
