<svg width="104" height="28" viewBox="0 0 104 28" fill="none" xmlns="http://www.w3.org/2000/svg">
<path d="M3.52556 3.11755C5.47374 1.23699 8.11906 0.139301 10.8002 0.00278601C11.7178 0.00278601 12.6382 0.00835803 13.5558 0C13.5089 0.994606 13.5558 1.992 13.5282 2.9866C13.3987 5.20984 12.5858 7.38293 11.2163 9.12697C9.43622 11.4728 6.71373 13.0469 3.82316 13.4536C2.56112 13.6598 1.27979 13.5289 0.00948137 13.5651C0.0315258 12.4702 -0.037363 11.3725 0.0480591 10.2804C0.296059 7.57238 1.56086 4.9786 3.52556 3.11755Z" fill="#4A47EB"/>
<path d="M14.4062 0C15.39 0.011144 16.3737 -0.00557202 17.3602 0.00557202C19.8154 0.181091 22.2375 1.13391 24.0865 2.78601C26.1256 4.55513 27.5227 7.08482 27.8809 9.78725C28.038 11.041 27.9388 12.3086 27.9994 13.5679C27.1396 13.5651 26.2827 13.5623 25.4229 13.5679C23.3094 13.5094 21.2317 12.8184 19.4627 11.6539C18.647 11.0632 17.8094 10.4643 17.1976 9.64517C15.8557 8.12958 14.9436 6.22673 14.5991 4.22081C14.3401 2.8278 14.4448 1.40694 14.4062 0Z" fill="#4A47EB"/>
<path d="M0.0101859 14.3638C0.883695 14.4139 1.75996 14.322 2.63071 14.4195C6.35897 14.5003 9.97701 16.6177 11.9086 19.8411C13.0164 21.6464 13.6116 23.7861 13.5344 25.9118C13.5317 26.6083 13.5427 27.302 13.5234 27.9957C12.1401 27.9539 10.743 28.0682 9.37354 27.7979C6.33142 27.2797 3.53453 25.4493 1.85089 22.836C0.575073 20.936 -0.0614583 18.6152 0.00467485 16.3223C0.00467485 15.6676 0.00467485 15.0157 0.0101859 14.3638Z" fill="#4A47EB"/>
<path d="M23.3415 14.6593C24.8405 14.3222 26.3864 14.378 27.9102 14.378L27.9764 14.4448C27.9433 15.9019 28.0563 17.3757 27.7669 18.8161C27.158 22.0478 25.0417 24.9341 22.1952 26.5194C20.4234 27.5168 18.3898 28.0071 16.3645 27.9848C15.7169 27.9876 15.0666 27.9737 14.4191 27.9932C14.4191 26.7868 14.3695 25.5749 14.5045 24.3742C14.8186 21.4683 16.3727 18.7631 18.6075 16.9355C19.9908 15.8322 21.6165 15.0327 23.3415 14.6593Z" fill="#4A47EB"/>
<path d="M40 3.80908H47.6508C49.605 3.80908 51.2661 4.45599 52.634 5.7498C53.9825 7.04361 54.6567 8.63233 54.6567 10.516C54.6567 12.3996 53.9825 13.9883 52.634 15.2821C51.2661 16.576 49.605 17.2229 47.6508 17.2229H44.0452V23.787H40V3.80908ZM44.0452 13.5412H47.6508C48.5106 13.5412 49.2239 13.2558 49.7907 12.685C50.3574 12.0952 50.6407 11.3722 50.6407 10.516C50.6407 9.64075 50.3574 8.91773 49.7907 8.34694C49.2239 7.77614 48.5106 7.49074 47.6508 7.49074H44.0452V13.5412Z" fill="#4A47EB"/>
<path d="M70.3874 18.1647H59.3363C59.8248 19.9532 61.2025 20.8474 63.4694 20.8474C64.9156 20.8474 66.0099 20.3718 66.7525 19.4204L69.8011 21.1328C68.355 23.1687 66.2249 24.1866 63.4108 24.1866C60.9876 24.1866 59.0431 23.4731 57.5775 22.0461C56.1118 20.6191 55.379 18.8211 55.379 16.6521C55.379 14.5211 56.102 12.7326 57.5481 11.2866C58.9747 9.84053 60.8312 9.11751 63.1177 9.11751C65.2869 9.11751 67.0554 9.84053 68.4234 11.2866C69.8304 12.7326 70.5339 14.5211 70.5339 16.6521C70.5339 17.0516 70.4851 17.5558 70.3874 18.1647ZM59.2776 15.3107H66.7525C66.5376 14.3784 66.0979 13.6649 65.4334 13.1702C64.7885 12.6755 64.0166 12.4281 63.1177 12.4281C62.1015 12.4281 61.2612 12.685 60.5967 13.1987C59.9323 13.6934 59.4926 14.3974 59.2776 15.3107Z" fill="#4A47EB"/>
<path d="M87.3055 18.1647H76.2544C76.743 19.9532 78.1207 20.8474 80.3876 20.8474C81.8337 20.8474 82.9281 20.3718 83.6707 19.4204L86.7193 21.1328C85.2731 23.1687 83.143 24.1866 80.3289 24.1866C77.9057 24.1866 75.9613 23.4731 74.4956 22.0461C73.0299 20.6191 72.2971 18.8211 72.2971 16.6521C72.2971 14.5211 73.0202 12.7326 74.4663 11.2866C75.8929 9.84053 77.7494 9.11751 80.0358 9.11751C82.205 9.11751 83.9736 9.84053 85.3415 11.2866C86.7486 12.7326 87.4521 14.5211 87.4521 16.6521C87.4521 17.0516 87.4032 17.5558 87.3055 18.1647ZM76.1958 15.3107H83.6707C83.4557 14.3784 83.016 13.6649 82.3516 13.1702C81.7067 12.6755 80.9348 12.4281 80.0358 12.4281C79.0196 12.4281 78.1793 12.685 77.5149 13.1987C76.8504 13.6934 76.4107 14.3974 76.1958 15.3107Z" fill="#4A47EB"/>
<path d="M97.5375 16.5664L103.605 23.787H99.2083L93.8733 17.3085V23.787H90.0919V3.80908H93.8733V15.7959L98.9152 9.51707H103.429L97.5375 16.5664Z" fill="#4A47EB"/>
</svg>
