<svg width="84" height="68" viewBox="0 0 84 68" fill="none" xmlns="http://www.w3.org/2000/svg">
<path d="M26.2658 68C16.9535 68.0089 7.83544 65.3336 0 60.2935C1.35726 60.4512 2.72257 60.5293 4.08893 60.5273C11.804 60.5397 19.2991 57.9538 25.3698 53.1852C21.7938 53.1169 18.3285 51.9311 15.4584 49.7937C12.5882 47.6562 10.4566 44.6739 9.36164 41.2637C10.4227 41.4694 11.501 41.5732 12.5817 41.5738C14.1078 41.574 15.6271 41.371 17.0997 40.9701C13.221 40.1855 9.7327 38.0812 7.22664 35.0141C4.72059 31.9471 3.35107 28.1062 3.35043 24.143C3.35043 24.0669 3.35043 23.9962 3.35043 23.9255C5.72879 25.2514 8.38949 25.988 11.1102 26.0737C7.48216 23.6464 4.91472 19.925 3.931 15.6677C2.94728 11.4104 3.62131 6.93768 5.81573 3.16083C10.1145 8.46296 15.4782 12.8007 21.5589 15.8926C27.6395 18.9845 34.3013 20.7615 41.1119 21.1083C40.2449 17.4233 40.6181 13.5547 42.1736 10.1043C43.7291 6.65382 46.3796 3.81501 49.7128 2.0295C53.046 0.243994 56.875 -0.388089 60.604 0.231591C64.333 0.85127 67.7529 2.68796 70.3318 5.45592C74.1614 4.69342 77.8338 3.28471 81.1922 1.28994C79.9127 5.26431 77.2364 8.6385 73.6605 10.7858C77.0571 10.3746 80.3735 9.45806 83.5 8.06646C81.1985 11.5137 78.3024 14.5229 74.9474 16.9531C74.9855 17.6874 75.0017 18.427 75.0017 19.1721C75.0017 41.8457 57.7609 68 26.2441 68" fill="#5E47EB"/>
</svg>
