<svg width="84" height="50" viewBox="0 0 84 50" fill="none" xmlns="http://www.w3.org/2000/svg">
<path d="M82.2436 7.8081C81.2757 4.73308 78.4334 2.31656 74.8171 1.49341C68.2691 4.47035e-07 41.9999 0 41.9999 0C41.9999 0 15.731 4.47035e-07 9.18272 1.49341C5.56635 2.31656 2.7244 4.73308 1.75634 7.8081C5.25737e-07 13.376 0 25 0 25C0 25 5.25737e-07 36.624 1.75634 42.192C2.7244 45.267 5.56635 47.6835 9.18272 48.5065C15.731 50 41.9999 50 41.9999 50C41.9999 50 68.2691 50 74.8171 48.5065C78.4334 47.6835 81.2757 45.267 82.2436 42.192C84 36.624 84 25 84 25C84 25 83.9929 13.376 82.2436 7.8081Z" fill="#FF0000"/>
<path d="M33.592 35.7142L55.4149 25.0017L33.592 14.2891V35.7142Z" fill="white"/>
</svg>
