<svg width="577" height="420" viewBox="0 0 577 420" fill="none" xmlns="http://www.w3.org/2000/svg">
<rect x="0.5" y="0.5" width="576" height="419" rx="7.5" fill="white"/>
<rect x="0.5" y="0.5" width="576" height="419" rx="7.5" stroke="#EEEEEE"/>
<rect x="202" y="384" width="15" height="15" rx="2" fill="#6461E5"/>
<path d="M232.039 397H230.72L228.02 392.598L225.278 397H224.041L227.37 391.791L224.273 387.006H225.565L228.061 390.991L230.569 387.006H231.8L228.71 391.771L232.039 397ZM236.291 393.165C236.291 392.395 236.364 391.645 236.51 390.916C236.66 390.187 236.888 389.492 237.193 388.831C237.499 388.17 237.884 387.562 238.349 387.006H239.436C238.775 387.872 238.278 388.833 237.945 389.891C237.613 390.948 237.446 392.035 237.446 393.151C237.446 393.881 237.519 394.601 237.665 395.312C237.815 396.018 238.036 396.699 238.328 397.355C238.624 398.012 238.989 398.632 239.422 399.215H238.349C237.884 398.668 237.499 398.071 237.193 397.424C236.888 396.781 236.66 396.1 236.51 395.38C236.364 394.66 236.291 393.922 236.291 393.165ZM244.296 397H243.127V388.031H239.982V387.006H247.427V388.031H244.296V397ZM254.864 396.986L253.531 392.625C253.472 392.438 253.415 392.256 253.36 392.078C253.31 391.896 253.262 391.723 253.217 391.559C253.176 391.39 253.137 391.235 253.101 391.094C253.069 390.948 253.041 390.823 253.019 390.718H252.971C252.952 390.823 252.927 390.948 252.896 391.094C252.864 391.235 252.825 391.39 252.779 391.559C252.738 391.727 252.693 391.905 252.643 392.092C252.592 392.274 252.535 392.459 252.472 392.646L251.077 396.986H249.799L247.734 389.494H248.91L249.99 393.63C250.063 393.903 250.132 394.174 250.195 394.443C250.264 394.708 250.321 394.958 250.366 395.195C250.416 395.428 250.453 395.631 250.476 395.804H250.53C250.558 395.69 250.587 395.553 250.619 395.394C250.656 395.234 250.694 395.065 250.735 394.888C250.781 394.705 250.829 394.525 250.879 394.348C250.929 394.165 250.979 393.994 251.029 393.835L252.41 389.494H253.634L254.967 393.828C255.035 394.047 255.101 394.275 255.165 394.512C255.233 394.749 255.295 394.979 255.35 395.202C255.404 395.421 255.443 395.617 255.466 395.79H255.521C255.539 395.635 255.573 395.444 255.623 395.216C255.673 394.988 255.73 394.737 255.794 394.464C255.862 394.19 255.933 393.912 256.006 393.63L257.1 389.494H258.255L256.184 396.986H254.864ZM260.757 389.508V397H259.622V389.508H260.757ZM260.203 386.705C260.39 386.705 260.549 386.767 260.682 386.89C260.818 387.008 260.887 387.195 260.887 387.45C260.887 387.701 260.818 387.888 260.682 388.011C260.549 388.134 260.39 388.195 260.203 388.195C260.007 388.195 259.843 388.134 259.711 388.011C259.583 387.888 259.52 387.701 259.52 387.45C259.52 387.195 259.583 387.008 259.711 386.89C259.843 386.767 260.007 386.705 260.203 386.705ZM265.583 396.207C265.77 396.207 265.961 396.191 266.157 396.159C266.353 396.127 266.513 396.089 266.636 396.043V396.925C266.504 396.984 266.319 397.034 266.082 397.075C265.85 397.116 265.622 397.137 265.398 397.137C265.002 397.137 264.642 397.068 264.318 396.932C263.995 396.79 263.735 396.553 263.539 396.221C263.348 395.888 263.252 395.428 263.252 394.84V390.396H262.186V389.843L263.259 389.398L263.71 387.771H264.394V389.508H266.588V390.396H264.394V394.806C264.394 395.275 264.501 395.626 264.715 395.858C264.934 396.091 265.223 396.207 265.583 396.207ZM270.573 396.207C270.76 396.207 270.951 396.191 271.147 396.159C271.343 396.127 271.503 396.089 271.626 396.043V396.925C271.494 396.984 271.309 397.034 271.072 397.075C270.84 397.116 270.612 397.137 270.389 397.137C269.992 397.137 269.632 397.068 269.309 396.932C268.985 396.79 268.725 396.553 268.529 396.221C268.338 395.888 268.242 395.428 268.242 394.84V390.396H267.176V389.843L268.249 389.398L268.7 387.771H269.384V389.508H271.578V390.396H269.384V394.806C269.384 395.275 269.491 395.626 269.705 395.858C269.924 396.091 270.213 396.207 270.573 396.207ZM276.028 389.371C276.666 389.371 277.213 389.512 277.669 389.795C278.125 390.077 278.473 390.474 278.715 390.984C278.956 391.49 279.077 392.083 279.077 392.762V393.466H273.902C273.916 394.345 274.135 395.015 274.559 395.476C274.982 395.936 275.579 396.166 276.35 396.166C276.824 396.166 277.243 396.123 277.607 396.036C277.972 395.95 278.35 395.822 278.742 395.653V396.651C278.364 396.82 277.988 396.943 277.614 397.021C277.245 397.098 276.808 397.137 276.302 397.137C275.582 397.137 274.953 396.991 274.415 396.699C273.882 396.403 273.467 395.97 273.171 395.4C272.875 394.831 272.727 394.133 272.727 393.309C272.727 392.502 272.861 391.805 273.13 391.217C273.403 390.624 273.786 390.169 274.278 389.85C274.775 389.531 275.358 389.371 276.028 389.371ZM276.015 390.301C275.409 390.301 274.925 390.499 274.565 390.896C274.205 391.292 273.991 391.846 273.923 392.557H277.888C277.883 392.11 277.812 391.718 277.676 391.381C277.544 391.039 277.341 390.775 277.067 390.588C276.794 390.396 276.443 390.301 276.015 390.301ZM284.409 389.371C284.56 389.371 284.717 389.38 284.881 389.398C285.045 389.412 285.191 389.433 285.318 389.46L285.175 390.513C285.052 390.481 284.915 390.456 284.765 390.438C284.614 390.419 284.473 390.41 284.341 390.41C284.04 390.41 283.755 390.472 283.486 390.595C283.222 390.713 282.99 390.886 282.789 391.114C282.589 391.338 282.431 391.609 282.317 391.928C282.203 392.242 282.146 392.593 282.146 392.98V397H281.005V389.508H281.948L282.071 390.889H282.119C282.274 390.611 282.461 390.358 282.68 390.13C282.898 389.897 283.151 389.713 283.438 389.576C283.73 389.439 284.054 389.371 284.409 389.371ZM289.105 393.151C289.105 393.912 289.03 394.655 288.88 395.38C288.734 396.1 288.508 396.784 288.203 397.431C287.902 398.078 287.517 398.673 287.048 399.215H285.975C286.412 398.636 286.777 398.016 287.068 397.355C287.365 396.695 287.586 396.011 287.731 395.305C287.882 394.594 287.957 393.874 287.957 393.145C287.957 392.402 287.882 391.67 287.731 390.95C287.581 390.23 287.358 389.537 287.062 388.872C286.77 388.207 286.403 387.585 285.961 387.006H287.048C287.517 387.566 287.902 388.177 288.203 388.838C288.508 389.494 288.734 390.187 288.88 390.916C289.03 391.641 289.105 392.386 289.105 393.151Z" fill="#171717"/>
<rect x="310" y="384" width="15" height="15" rx="2" fill="#59CBFC"/>
<path d="M336.067 387.006C336.888 387.006 337.564 387.108 338.098 387.313C338.635 387.514 339.036 387.822 339.301 388.236C339.565 388.651 339.697 389.18 339.697 389.822C339.697 390.351 339.602 390.793 339.41 391.148C339.219 391.499 338.968 391.784 338.658 392.003C338.348 392.222 338.018 392.39 337.667 392.509L340.408 397H339.055L336.607 392.83H334.529V397H333.367V387.006H336.067ZM335.999 388.011H334.529V391.846H336.115C336.931 391.846 337.53 391.679 337.913 391.347C338.3 391.014 338.494 390.524 338.494 389.877C338.494 389.198 338.289 388.717 337.879 388.435C337.473 388.152 336.847 388.011 335.999 388.011ZM344.722 389.371C345.36 389.371 345.907 389.512 346.362 389.795C346.818 390.077 347.167 390.474 347.408 390.984C347.65 391.49 347.771 392.083 347.771 392.762V393.466H342.596C342.609 394.345 342.828 395.015 343.252 395.476C343.676 395.936 344.273 396.166 345.043 396.166C345.517 396.166 345.936 396.123 346.301 396.036C346.665 395.95 347.044 395.822 347.436 395.653V396.651C347.057 396.82 346.681 396.943 346.308 397.021C345.938 397.098 345.501 397.137 344.995 397.137C344.275 397.137 343.646 396.991 343.108 396.699C342.575 396.403 342.16 395.97 341.864 395.4C341.568 394.831 341.42 394.133 341.42 393.309C341.42 392.502 341.554 391.805 341.823 391.217C342.097 390.624 342.479 390.169 342.972 389.85C343.468 389.531 344.052 389.371 344.722 389.371ZM344.708 390.301C344.102 390.301 343.619 390.499 343.259 390.896C342.899 391.292 342.685 391.846 342.616 392.557H346.581C346.576 392.11 346.506 391.718 346.369 391.381C346.237 391.039 346.034 390.775 345.761 390.588C345.487 390.396 345.136 390.301 344.708 390.301ZM352.364 397.137C351.416 397.137 350.664 396.813 350.108 396.166C349.557 395.519 349.281 394.557 349.281 393.281C349.281 391.992 349.564 391.019 350.129 390.362C350.694 389.701 351.446 389.371 352.385 389.371C352.781 389.371 353.128 389.424 353.424 389.528C353.72 389.633 353.975 389.774 354.189 389.952C354.404 390.125 354.584 390.324 354.729 390.547H354.812C354.793 390.406 354.775 390.212 354.757 389.966C354.739 389.72 354.729 389.519 354.729 389.364V386.363H355.864V397H354.948L354.777 395.934H354.729C354.588 396.157 354.408 396.36 354.189 396.542C353.975 396.724 353.718 396.87 353.417 396.979C353.121 397.084 352.77 397.137 352.364 397.137ZM352.542 396.193C353.344 396.193 353.911 395.965 354.244 395.51C354.577 395.054 354.743 394.377 354.743 393.479V393.274C354.743 392.322 354.584 391.59 354.265 391.08C353.95 390.57 353.376 390.314 352.542 390.314C351.845 390.314 351.323 390.583 350.977 391.121C350.63 391.654 350.457 392.383 350.457 393.309C350.457 394.229 350.628 394.94 350.97 395.441C351.316 395.943 351.84 396.193 352.542 396.193ZM360.937 397.137C359.989 397.137 359.237 396.813 358.681 396.166C358.129 395.519 357.854 394.557 357.854 393.281C357.854 391.992 358.136 391.019 358.701 390.362C359.266 389.701 360.018 389.371 360.957 389.371C361.354 389.371 361.7 389.424 361.996 389.528C362.292 389.633 362.548 389.774 362.762 389.952C362.976 390.125 363.156 390.324 363.302 390.547H363.384C363.366 390.406 363.347 390.212 363.329 389.966C363.311 389.72 363.302 389.519 363.302 389.364V386.363H364.437V397H363.521L363.35 395.934H363.302C363.16 396.157 362.98 396.36 362.762 396.542C362.548 396.724 362.29 396.87 361.989 396.979C361.693 397.084 361.342 397.137 360.937 397.137ZM361.114 396.193C361.916 396.193 362.484 395.965 362.816 395.51C363.149 395.054 363.315 394.377 363.315 393.479V393.274C363.315 392.322 363.156 391.59 362.837 391.08C362.522 390.57 361.948 390.314 361.114 390.314C360.417 390.314 359.895 390.583 359.549 391.121C359.202 391.654 359.029 392.383 359.029 393.309C359.029 394.229 359.2 394.94 359.542 395.441C359.888 395.943 360.412 396.193 361.114 396.193ZM367.978 389.508V397H366.843V389.508H367.978ZM367.424 386.705C367.611 386.705 367.77 386.767 367.902 386.89C368.039 387.008 368.107 387.195 368.107 387.45C368.107 387.701 368.039 387.888 367.902 388.011C367.77 388.134 367.611 388.195 367.424 388.195C367.228 388.195 367.064 388.134 366.932 388.011C366.804 387.888 366.74 387.701 366.74 387.45C366.74 387.195 366.804 387.008 366.932 386.89C367.064 386.767 367.228 386.705 367.424 386.705ZM372.804 396.207C372.991 396.207 373.182 396.191 373.378 396.159C373.574 396.127 373.733 396.089 373.856 396.043V396.925C373.724 396.984 373.54 397.034 373.303 397.075C373.07 397.116 372.842 397.137 372.619 397.137C372.223 397.137 371.863 397.068 371.539 396.932C371.215 396.79 370.956 396.553 370.76 396.221C370.568 395.888 370.473 395.428 370.473 394.84V390.396H369.406V389.843L370.479 389.398L370.931 387.771H371.614V389.508H373.809V390.396H371.614V394.806C371.614 395.275 371.721 395.626 371.936 395.858C372.154 396.091 372.444 396.207 372.804 396.207Z" fill="#171717"/>
<path d="M24.578 37.18C23.594 37.18 22.688 37.024 21.86 36.712C21.044 36.388 20.33 35.938 19.718 35.362C19.106 34.774 18.632 34.084 18.296 33.292C17.96 32.5 17.792 31.636 17.792 30.7C17.792 29.764 17.96 28.9 18.296 28.108C18.632 27.316 19.106 26.632 19.718 26.056C20.342 25.468 21.068 25.018 21.896 24.706C22.724 24.382 23.63 24.22 24.614 24.22C25.682 24.22 26.642 24.394 27.494 24.742C28.358 25.09 29.084 25.6 29.672 26.272L28.196 27.712C27.704 27.22 27.17 26.86 26.594 26.632C26.03 26.392 25.406 26.272 24.722 26.272C24.062 26.272 23.45 26.38 22.886 26.596C22.322 26.812 21.836 27.118 21.428 27.514C21.02 27.91 20.702 28.378 20.474 28.918C20.258 29.458 20.15 30.052 20.15 30.7C20.15 31.336 20.258 31.924 20.474 32.464C20.702 33.004 21.02 33.478 21.428 33.886C21.836 34.282 22.316 34.588 22.868 34.804C23.42 35.02 24.032 35.128 24.704 35.128C25.328 35.128 25.928 35.032 26.504 34.84C27.092 34.636 27.65 34.3 28.178 33.832L29.51 35.578C28.85 36.106 28.082 36.508 27.206 36.784C26.342 37.048 25.466 37.18 24.578 37.18ZM27.296 35.272V30.556H29.51V35.578L27.296 35.272ZM36.8983 37.126C35.8303 37.126 34.8943 36.916 34.0903 36.496C33.2983 36.064 32.6803 35.476 32.2363 34.732C31.8043 33.988 31.5883 33.142 31.5883 32.194C31.5883 31.234 31.7983 30.388 32.2183 29.656C32.6503 28.912 33.2383 28.33 33.9823 27.91C34.7383 27.49 35.5963 27.28 36.5563 27.28C37.4923 27.28 38.3263 27.484 39.0583 27.892C39.7903 28.3 40.3663 28.876 40.7863 29.62C41.2063 30.364 41.4163 31.24 41.4163 32.248C41.4163 32.344 41.4103 32.452 41.3983 32.572C41.3983 32.692 41.3923 32.806 41.3803 32.914H33.3703V31.42H40.1923L39.3103 31.888C39.3223 31.336 39.2083 30.85 38.9683 30.43C38.7283 30.01 38.3983 29.68 37.9783 29.44C37.5703 29.2 37.0963 29.08 36.5563 29.08C36.0043 29.08 35.5183 29.2 35.0983 29.44C34.6903 29.68 34.3663 30.016 34.1263 30.448C33.8983 30.868 33.7843 31.366 33.7843 31.942V32.302C33.7843 32.878 33.9163 33.388 34.1803 33.832C34.4443 34.276 34.8163 34.618 35.2963 34.858C35.7763 35.098 36.3283 35.218 36.9523 35.218C37.4923 35.218 37.9783 35.134 38.4103 34.966C38.8423 34.798 39.2263 34.534 39.5623 34.174L40.7683 35.56C40.3363 36.064 39.7903 36.454 39.1303 36.73C38.4823 36.994 37.7383 37.126 36.8983 37.126ZM49.0316 27.28C49.7996 27.28 50.4836 27.43 51.0836 27.73C51.6956 28.03 52.1756 28.492 52.5236 29.116C52.8716 29.728 53.0456 30.52 53.0456 31.492V37H50.7956V31.78C50.7956 30.928 50.5916 30.292 50.1836 29.872C49.7876 29.452 49.2296 29.242 48.5096 29.242C47.9816 29.242 47.5136 29.35 47.1056 29.566C46.6976 29.782 46.3796 30.106 46.1516 30.538C45.9356 30.958 45.8276 31.492 45.8276 32.14V37H43.5776V27.388H45.7196V29.98L45.3416 29.188C45.6776 28.576 46.1636 28.108 46.7996 27.784C47.4476 27.448 48.1916 27.28 49.0316 27.28ZM60.4354 37.126C59.3674 37.126 58.4314 36.916 57.6274 36.496C56.8354 36.064 56.2174 35.476 55.7734 34.732C55.3414 33.988 55.1254 33.142 55.1254 32.194C55.1254 31.234 55.3354 30.388 55.7554 29.656C56.1874 28.912 56.7754 28.33 57.5194 27.91C58.2754 27.49 59.1334 27.28 60.0934 27.28C61.0294 27.28 61.8634 27.484 62.5954 27.892C63.3274 28.3 63.9034 28.876 64.3234 29.62C64.7434 30.364 64.9534 31.24 64.9534 32.248C64.9534 32.344 64.9474 32.452 64.9354 32.572C64.9354 32.692 64.9294 32.806 64.9174 32.914H56.9074V31.42H63.7294L62.8474 31.888C62.8594 31.336 62.7454 30.85 62.5054 30.43C62.2654 30.01 61.9354 29.68 61.5154 29.44C61.1074 29.2 60.6334 29.08 60.0934 29.08C59.5414 29.08 59.0554 29.2 58.6354 29.44C58.2274 29.68 57.9034 30.016 57.6634 30.448C57.4354 30.868 57.3214 31.366 57.3214 31.942V32.302C57.3214 32.878 57.4534 33.388 57.7174 33.832C57.9814 34.276 58.3534 34.618 58.8334 34.858C59.3134 35.098 59.8654 35.218 60.4894 35.218C61.0294 35.218 61.5154 35.134 61.9474 34.966C62.3794 34.798 62.7634 34.534 63.0994 34.174L64.3054 35.56C63.8734 36.064 63.3274 36.454 62.6674 36.73C62.0194 36.994 61.2754 37.126 60.4354 37.126ZM67.1147 37V27.388H69.2567V30.034L69.0047 29.26C69.2927 28.612 69.7427 28.12 70.3547 27.784C70.9787 27.448 71.7527 27.28 72.6767 27.28V29.422C72.5807 29.398 72.4907 29.386 72.4067 29.386C72.3227 29.374 72.2387 29.368 72.1547 29.368C71.3027 29.368 70.6247 29.62 70.1207 30.124C69.6167 30.616 69.3647 31.354 69.3647 32.338V37H67.1147ZM79.8218 37V35.056L79.6958 34.642V31.24C79.6958 30.58 79.4978 30.07 79.1018 29.71C78.7058 29.338 78.1058 29.152 77.3018 29.152C76.7618 29.152 76.2278 29.236 75.6998 29.404C75.1838 29.572 74.7458 29.806 74.3858 30.106L73.5038 28.468C74.0198 28.072 74.6318 27.778 75.3398 27.586C76.0598 27.382 76.8038 27.28 77.5718 27.28C78.9638 27.28 80.0378 27.616 80.7938 28.288C81.5618 28.948 81.9458 29.974 81.9458 31.366V37H79.8218ZM76.7978 37.126C76.0778 37.126 75.4478 37.006 74.9078 36.766C74.3678 36.514 73.9478 36.172 73.6478 35.74C73.3598 35.296 73.2158 34.798 73.2158 34.246C73.2158 33.706 73.3418 33.22 73.5938 32.788C73.8578 32.356 74.2838 32.014 74.8718 31.762C75.4598 31.51 76.2398 31.384 77.2118 31.384H80.0018V32.878H77.3738C76.6058 32.878 76.0898 33.004 75.8258 33.256C75.5618 33.496 75.4298 33.796 75.4298 34.156C75.4298 34.564 75.5918 34.888 75.9158 35.128C76.2398 35.368 76.6898 35.488 77.2658 35.488C77.8178 35.488 78.3098 35.362 78.7418 35.11C79.1858 34.858 79.5038 34.486 79.6958 33.994L80.0738 35.344C79.8578 35.908 79.4678 36.346 78.9038 36.658C78.3518 36.97 77.6498 37.126 76.7978 37.126ZM84.8334 37V23.644H87.0834V37H84.8334ZM97.3152 34.03L97.1892 31.258L103.795 24.4H106.423L100.933 30.232L99.6372 31.654L97.3152 34.03ZM95.2272 37V24.4H97.5672V37H95.2272ZM104.011 37L99.1872 31.258L100.735 29.548L106.747 37H104.011ZM112.221 37.126C111.153 37.126 110.217 36.916 109.413 36.496C108.621 36.064 108.003 35.476 107.559 34.732C107.127 33.988 106.911 33.142 106.911 32.194C106.911 31.234 107.121 30.388 107.541 29.656C107.973 28.912 108.561 28.33 109.305 27.91C110.061 27.49 110.919 27.28 111.879 27.28C112.815 27.28 113.649 27.484 114.381 27.892C115.113 28.3 115.689 28.876 116.109 29.62C116.529 30.364 116.739 31.24 116.739 32.248C116.739 32.344 116.733 32.452 116.721 32.572C116.721 32.692 116.715 32.806 116.703 32.914H108.693V31.42H115.515L114.633 31.888C114.645 31.336 114.531 30.85 114.291 30.43C114.051 30.01 113.721 29.68 113.301 29.44C112.893 29.2 112.419 29.08 111.879 29.08C111.327 29.08 110.841 29.2 110.421 29.44C110.013 29.68 109.689 30.016 109.449 30.448C109.221 30.868 109.107 31.366 109.107 31.942V32.302C109.107 32.878 109.239 33.388 109.503 33.832C109.767 34.276 110.139 34.618 110.619 34.858C111.099 35.098 111.651 35.218 112.275 35.218C112.815 35.218 113.301 35.134 113.733 34.966C114.165 34.798 114.549 34.534 114.885 34.174L116.091 35.56C115.659 36.064 115.113 36.454 114.453 36.73C113.805 36.994 113.061 37.126 112.221 37.126ZM119.516 40.618C119.048 40.618 118.58 40.54 118.112 40.384C117.644 40.228 117.254 40.012 116.942 39.736L117.842 38.08C118.07 38.284 118.328 38.446 118.616 38.566C118.904 38.686 119.198 38.746 119.498 38.746C119.906 38.746 120.236 38.644 120.488 38.44C120.74 38.236 120.974 37.894 121.19 37.414L121.748 36.154L121.928 35.884L125.564 27.388H127.724L123.224 37.774C122.924 38.494 122.588 39.064 122.216 39.484C121.856 39.904 121.448 40.198 120.992 40.366C120.548 40.534 120.056 40.618 119.516 40.618ZM121.496 37.342L117.158 27.388H119.498L123.026 35.686L121.496 37.342ZM131.061 37L127.533 27.388H129.657L132.681 35.866H131.673L134.841 27.388H136.731L139.809 35.866H138.819L141.933 27.388H143.931L140.385 37H138.225L135.417 29.494H136.083L133.221 37H131.061ZM149.534 37.126C148.55 37.126 147.674 36.916 146.906 36.496C146.138 36.064 145.532 35.476 145.088 34.732C144.644 33.988 144.422 33.142 144.422 32.194C144.422 31.234 144.644 30.388 145.088 29.656C145.532 28.912 146.138 28.33 146.906 27.91C147.674 27.49 148.55 27.28 149.534 27.28C150.53 27.28 151.412 27.49 152.18 27.91C152.96 28.33 153.566 28.906 153.998 29.638C154.442 30.37 154.664 31.222 154.664 32.194C154.664 33.142 154.442 33.988 153.998 34.732C153.566 35.476 152.96 36.064 152.18 36.496C151.412 36.916 150.53 37.126 149.534 37.126ZM149.534 35.2C150.086 35.2 150.578 35.08 151.01 34.84C151.442 34.6 151.778 34.252 152.018 33.796C152.27 33.34 152.396 32.806 152.396 32.194C152.396 31.57 152.27 31.036 152.018 30.592C151.778 30.136 151.442 29.788 151.01 29.548C150.578 29.308 150.092 29.188 149.552 29.188C149 29.188 148.508 29.308 148.076 29.548C147.656 29.788 147.32 30.136 147.068 30.592C146.816 31.036 146.69 31.57 146.69 32.194C146.69 32.806 146.816 33.34 147.068 33.796C147.32 34.252 147.656 34.6 148.076 34.84C148.508 35.08 148.994 35.2 149.534 35.2ZM156.816 37V27.388H158.958V30.034L158.706 29.26C158.994 28.612 159.444 28.12 160.056 27.784C160.68 27.448 161.454 27.28 162.378 27.28V29.422C162.282 29.398 162.192 29.386 162.108 29.386C162.024 29.374 161.94 29.368 161.856 29.368C161.004 29.368 160.326 29.62 159.822 30.124C159.318 30.616 159.066 31.354 159.066 32.338V37H156.816ZM168.267 37.126C167.343 37.126 166.509 36.922 165.765 36.514C165.033 36.094 164.457 35.518 164.037 34.786C163.617 34.054 163.407 33.19 163.407 32.194C163.407 31.198 163.617 30.334 164.037 29.602C164.457 28.87 165.033 28.3 165.765 27.892C166.509 27.484 167.343 27.28 168.267 27.28C169.071 27.28 169.791 27.46 170.427 27.82C171.063 28.168 171.567 28.702 171.939 29.422C172.311 30.142 172.497 31.066 172.497 32.194C172.497 33.31 172.317 34.234 171.957 34.966C171.597 35.686 171.099 36.226 170.463 36.586C169.827 36.946 169.095 37.126 168.267 37.126ZM168.537 35.2C169.077 35.2 169.557 35.08 169.977 34.84C170.409 34.6 170.751 34.252 171.003 33.796C171.267 33.34 171.399 32.806 171.399 32.194C171.399 31.57 171.267 31.036 171.003 30.592C170.751 30.136 170.409 29.788 169.977 29.548C169.557 29.308 169.077 29.188 168.537 29.188C167.997 29.188 167.511 29.308 167.079 29.548C166.659 29.788 166.317 30.136 166.053 30.592C165.801 31.036 165.675 31.57 165.675 32.194C165.675 32.806 165.801 33.34 166.053 33.796C166.317 34.252 166.659 34.6 167.079 34.84C167.511 35.08 167.997 35.2 168.537 35.2ZM171.453 37V34.732L171.543 32.176L171.363 29.62V23.644H173.595V37H171.453ZM179.526 37.126C178.722 37.126 177.948 37.024 177.204 36.82C176.472 36.604 175.89 36.346 175.458 36.046L176.322 34.336C176.754 34.612 177.27 34.84 177.87 35.02C178.47 35.2 179.07 35.29 179.67 35.29C180.378 35.29 180.888 35.194 181.2 35.002C181.524 34.81 181.686 34.552 181.686 34.228C181.686 33.964 181.578 33.766 181.362 33.634C181.146 33.49 180.864 33.382 180.516 33.31C180.168 33.238 179.778 33.172 179.346 33.112C178.926 33.052 178.5 32.974 178.068 32.878C177.648 32.77 177.264 32.62 176.916 32.428C176.568 32.224 176.286 31.954 176.07 31.618C175.854 31.282 175.746 30.838 175.746 30.286C175.746 29.674 175.92 29.146 176.268 28.702C176.616 28.246 177.102 27.898 177.726 27.658C178.362 27.406 179.112 27.28 179.976 27.28C180.624 27.28 181.278 27.352 181.938 27.496C182.598 27.64 183.144 27.844 183.576 28.108L182.712 29.818C182.256 29.542 181.794 29.356 181.326 29.26C180.87 29.152 180.414 29.098 179.958 29.098C179.274 29.098 178.764 29.2 178.428 29.404C178.104 29.608 177.942 29.866 177.942 30.178C177.942 30.466 178.05 30.682 178.266 30.826C178.482 30.97 178.764 31.084 179.112 31.168C179.46 31.252 179.844 31.324 180.264 31.384C180.696 31.432 181.122 31.51 181.542 31.618C181.962 31.726 182.346 31.876 182.694 32.068C183.054 32.248 183.342 32.506 183.558 32.842C183.774 33.178 183.882 33.616 183.882 34.156C183.882 34.756 183.702 35.278 183.342 35.722C182.994 36.166 182.496 36.514 181.848 36.766C181.2 37.006 180.426 37.126 179.526 37.126ZM189.228 37L194.898 24.4H197.202L202.89 37H200.442L195.564 25.642H196.5L191.64 37H189.228ZM191.838 34.084L192.468 32.248H199.272L199.902 34.084H191.838ZM208.599 37.126C207.591 37.126 206.691 36.916 205.899 36.496C205.119 36.064 204.507 35.476 204.063 34.732C203.619 33.988 203.397 33.142 203.397 32.194C203.397 31.234 203.619 30.388 204.063 29.656C204.507 28.912 205.119 28.33 205.899 27.91C206.691 27.49 207.591 27.28 208.599 27.28C209.535 27.28 210.357 27.472 211.065 27.856C211.785 28.228 212.331 28.78 212.703 29.512L210.975 30.52C210.687 30.064 210.333 29.728 209.913 29.512C209.505 29.296 209.061 29.188 208.581 29.188C208.029 29.188 207.531 29.308 207.087 29.548C206.643 29.788 206.295 30.136 206.043 30.592C205.791 31.036 205.665 31.57 205.665 32.194C205.665 32.818 205.791 33.358 206.043 33.814C206.295 34.258 206.643 34.6 207.087 34.84C207.531 35.08 208.029 35.2 208.581 35.2C209.061 35.2 209.505 35.092 209.913 34.876C210.333 34.66 210.687 34.324 210.975 33.868L212.703 34.876C212.331 35.596 211.785 36.154 211.065 36.55C210.357 36.934 209.535 37.126 208.599 37.126ZM218.389 37.126C217.333 37.126 216.517 36.856 215.941 36.316C215.365 35.764 215.077 34.954 215.077 33.886V25.264H217.327V33.832C217.327 34.288 217.441 34.642 217.669 34.894C217.909 35.146 218.239 35.272 218.659 35.272C219.163 35.272 219.583 35.14 219.919 34.876L220.549 36.478C220.285 36.694 219.961 36.856 219.577 36.964C219.193 37.072 218.797 37.126 218.389 37.126ZM213.493 29.26V27.46H219.901V29.26H213.493ZM222.4 37V27.388H224.65V37H222.4ZM223.534 25.804C223.114 25.804 222.766 25.672 222.49 25.408C222.226 25.144 222.094 24.826 222.094 24.454C222.094 24.07 222.226 23.752 222.49 23.5C222.766 23.236 223.114 23.104 223.534 23.104C223.954 23.104 224.296 23.23 224.56 23.482C224.836 23.722 224.974 24.028 224.974 24.4C224.974 24.796 224.842 25.132 224.578 25.408C224.314 25.672 223.966 25.804 223.534 25.804ZM230.159 37L226.037 27.388H228.377L231.923 35.866H230.771L234.443 27.388H236.603L232.481 37H230.159ZM238.009 37V27.388H240.259V37H238.009ZM239.143 25.804C238.723 25.804 238.375 25.672 238.099 25.408C237.835 25.144 237.703 24.826 237.703 24.454C237.703 24.07 237.835 23.752 238.099 23.5C238.375 23.236 238.723 23.104 239.143 23.104C239.563 23.104 239.905 23.23 240.169 23.482C240.445 23.722 240.583 24.028 240.583 24.4C240.583 24.796 240.451 25.132 240.187 25.408C239.923 25.672 239.575 25.804 239.143 25.804ZM246.83 37.126C245.774 37.126 244.958 36.856 244.382 36.316C243.806 35.764 243.518 34.954 243.518 33.886V25.264H245.768V33.832C245.768 34.288 245.882 34.642 246.11 34.894C246.35 35.146 246.68 35.272 247.1 35.272C247.604 35.272 248.024 35.14 248.36 34.876L248.99 36.478C248.726 36.694 248.402 36.856 248.018 36.964C247.634 37.072 247.238 37.126 246.83 37.126ZM241.934 29.26V27.46H248.342V29.26H241.934ZM251.457 40.618C250.989 40.618 250.521 40.54 250.053 40.384C249.585 40.228 249.195 40.012 248.883 39.736L249.783 38.08C250.011 38.284 250.269 38.446 250.557 38.566C250.845 38.686 251.139 38.746 251.439 38.746C251.847 38.746 252.177 38.644 252.429 38.44C252.681 38.236 252.915 37.894 253.131 37.414L253.689 36.154L253.869 35.884L257.505 27.388H259.665L255.165 37.774C254.865 38.494 254.529 39.064 254.157 39.484C253.797 39.904 253.389 40.198 252.933 40.366C252.489 40.534 251.997 40.618 251.457 40.618ZM253.437 37.342L249.099 27.388H251.439L254.967 35.686L253.437 37.342Z" fill="#171717"/>
<line x1="60" y1="107.5" x2="556" y2="107.5" stroke="#EEEEEE"/>
<path d="M21.915 113H20.8076V105.918C20.8076 105.649 20.8076 105.419 20.8076 105.228C20.8122 105.032 20.8167 104.854 20.8213 104.694C20.8304 104.53 20.8418 104.364 20.8555 104.195C20.7142 104.341 20.582 104.466 20.459 104.571C20.3359 104.672 20.1833 104.797 20.001 104.947L18.8594 105.863L18.2646 105.091L20.9717 103.006H21.915V113ZM32.3057 107.989C32.3057 108.8 32.2441 109.525 32.1211 110.163C31.998 110.801 31.8044 111.341 31.54 111.783C31.2757 112.225 30.9339 112.562 30.5146 112.795C30.0954 113.023 29.5918 113.137 29.0039 113.137C28.2611 113.137 27.6458 112.934 27.1582 112.528C26.6751 112.123 26.3128 111.537 26.0713 110.771C25.8343 110.001 25.7158 109.074 25.7158 107.989C25.7158 106.923 25.8229 106.007 26.0371 105.241C26.2559 104.471 26.6068 103.881 27.0898 103.471C27.5729 103.056 28.2109 102.849 29.0039 102.849C29.7559 102.849 30.3757 103.054 30.8633 103.464C31.3509 103.869 31.7132 104.457 31.9502 105.228C32.1872 105.993 32.3057 106.914 32.3057 107.989ZM26.8574 107.989C26.8574 108.919 26.9281 109.694 27.0693 110.313C27.2106 110.933 27.4385 111.398 27.7529 111.708C28.0719 112.013 28.4889 112.166 29.0039 112.166C29.5189 112.166 29.9336 112.013 30.248 111.708C30.5671 111.403 30.7972 110.94 30.9385 110.32C31.0843 109.701 31.1572 108.924 31.1572 107.989C31.1572 107.073 31.0866 106.308 30.9453 105.692C30.804 105.073 30.5762 104.608 30.2617 104.298C29.9473 103.983 29.528 103.826 29.0039 103.826C28.4798 103.826 28.0605 103.983 27.7461 104.298C27.4316 104.608 27.2038 105.073 27.0625 105.692C26.9258 106.308 26.8574 107.073 26.8574 107.989ZM40.3174 107.989C40.3174 108.8 40.2559 109.525 40.1328 110.163C40.0098 110.801 39.8161 111.341 39.5518 111.783C39.2874 112.225 38.9456 112.562 38.5264 112.795C38.1071 113.023 37.6035 113.137 37.0156 113.137C36.2728 113.137 35.6576 112.934 35.1699 112.528C34.6868 112.123 34.3245 111.537 34.083 110.771C33.846 110.001 33.7275 109.074 33.7275 107.989C33.7275 106.923 33.8346 106.007 34.0488 105.241C34.2676 104.471 34.6185 103.881 35.1016 103.471C35.5846 103.056 36.2227 102.849 37.0156 102.849C37.7676 102.849 38.3874 103.054 38.875 103.464C39.3626 103.869 39.7249 104.457 39.9619 105.228C40.1989 105.993 40.3174 106.914 40.3174 107.989ZM34.8691 107.989C34.8691 108.919 34.9398 109.694 35.0811 110.313C35.2223 110.933 35.4502 111.398 35.7646 111.708C36.0837 112.013 36.5007 112.166 37.0156 112.166C37.5306 112.166 37.9453 112.013 38.2598 111.708C38.5788 111.403 38.8089 110.94 38.9502 110.32C39.096 109.701 39.1689 108.924 39.1689 107.989C39.1689 107.073 39.0983 106.308 38.957 105.692C38.8158 105.073 38.5879 104.608 38.2734 104.298C37.959 103.983 37.5397 103.826 37.0156 103.826C36.4915 103.826 36.0723 103.983 35.7578 104.298C35.4434 104.608 35.2155 105.073 35.0742 105.692C34.9375 106.308 34.8691 107.073 34.8691 107.989ZM48.3291 107.989C48.3291 108.8 48.2676 109.525 48.1445 110.163C48.0215 110.801 47.8278 111.341 47.5635 111.783C47.2992 112.225 46.9574 112.562 46.5381 112.795C46.1188 113.023 45.6152 113.137 45.0273 113.137C44.2845 113.137 43.6693 112.934 43.1816 112.528C42.6986 112.123 42.3363 111.537 42.0947 110.771C41.8577 110.001 41.7393 109.074 41.7393 107.989C41.7393 106.923 41.8464 106.007 42.0605 105.241C42.2793 104.471 42.6302 103.881 43.1133 103.471C43.5964 103.056 44.2344 102.849 45.0273 102.849C45.7793 102.849 46.3991 103.054 46.8867 103.464C47.3743 103.869 47.7367 104.457 47.9736 105.228C48.2106 105.993 48.3291 106.914 48.3291 107.989ZM42.8809 107.989C42.8809 108.919 42.9515 109.694 43.0928 110.313C43.234 110.933 43.4619 111.398 43.7764 111.708C44.0954 112.013 44.5124 112.166 45.0273 112.166C45.5423 112.166 45.957 112.013 46.2715 111.708C46.5905 111.403 46.8206 110.94 46.9619 110.32C47.1077 109.701 47.1807 108.924 47.1807 107.989C47.1807 107.073 47.11 106.308 46.9688 105.692C46.8275 105.073 46.5996 104.608 46.2852 104.298C45.9707 103.983 45.5514 103.826 45.0273 103.826C44.5033 103.826 44.084 103.983 43.7695 104.298C43.4551 104.608 43.2272 105.073 43.0859 105.692C42.9492 106.308 42.8809 107.073 42.8809 107.989Z" fill="#909090"/>
<line x1="60" y1="152.102" x2="556" y2="152.102" stroke="#EEEEEE"/>
<path d="M20.9922 147.464C21.571 147.464 22.0837 147.555 22.5303 147.737C22.9769 147.92 23.3255 148.188 23.5762 148.544C23.8314 148.895 23.959 149.328 23.959 149.843C23.959 150.248 23.8701 150.604 23.6924 150.909C23.5192 151.21 23.2845 151.474 22.9883 151.702C22.6921 151.925 22.3639 152.126 22.0039 152.304C22.4323 152.5 22.8174 152.721 23.1592 152.967C23.5055 153.213 23.779 153.502 23.9795 153.835C24.18 154.168 24.2803 154.562 24.2803 155.018C24.2803 155.578 24.1436 156.063 23.8701 156.474C23.6012 156.879 23.223 157.191 22.7354 157.41C22.2477 157.629 21.6758 157.738 21.0195 157.738C20.3132 157.738 19.7116 157.633 19.2148 157.424C18.7227 157.21 18.3467 156.904 18.0869 156.508C17.8317 156.107 17.7041 155.626 17.7041 155.065C17.7041 154.605 17.8021 154.206 17.998 153.869C18.194 153.527 18.4538 153.233 18.7773 152.987C19.1009 152.741 19.4541 152.534 19.8369 152.365C19.5042 152.183 19.1989 151.976 18.9209 151.743C18.6475 151.511 18.4287 151.24 18.2646 150.93C18.1051 150.615 18.0254 150.251 18.0254 149.836C18.0254 149.33 18.153 148.902 18.4082 148.551C18.668 148.195 19.0212 147.926 19.4678 147.744C19.9189 147.557 20.4271 147.464 20.9922 147.464ZM18.8184 155.072C18.8184 155.583 18.9984 156.004 19.3584 156.337C19.7184 156.665 20.263 156.829 20.9922 156.829C21.6849 156.829 22.2204 156.665 22.5986 156.337C22.9769 156.004 23.166 155.569 23.166 155.031C23.166 154.699 23.0794 154.407 22.9062 154.156C22.7331 153.901 22.487 153.673 22.168 153.473C21.849 153.272 21.473 153.09 21.04 152.926L20.7939 152.837C20.3747 153.01 20.0169 153.204 19.7207 153.418C19.429 153.628 19.2057 153.867 19.0508 154.136C18.8958 154.405 18.8184 154.717 18.8184 155.072ZM20.9785 148.394C20.4408 148.394 20.001 148.523 19.6592 148.783C19.3174 149.038 19.1465 149.408 19.1465 149.891C19.1465 150.237 19.2285 150.531 19.3926 150.772C19.5612 151.009 19.7891 151.215 20.0762 151.388C20.3633 151.556 20.6846 151.714 21.04 151.859C21.3864 151.714 21.694 151.554 21.9629 151.381C22.2318 151.203 22.4437 150.993 22.5986 150.752C22.7536 150.51 22.8311 150.221 22.8311 149.884C22.8311 149.401 22.6602 149.032 22.3184 148.776C21.9811 148.521 21.5345 148.394 20.9785 148.394ZM32.3057 152.591C32.3057 153.402 32.2441 154.127 32.1211 154.765C31.998 155.403 31.8044 155.943 31.54 156.385C31.2757 156.827 30.9339 157.164 30.5146 157.396C30.0954 157.624 29.5918 157.738 29.0039 157.738C28.2611 157.738 27.6458 157.535 27.1582 157.13C26.6751 156.724 26.3128 156.139 26.0713 155.373C25.8343 154.603 25.7158 153.675 25.7158 152.591C25.7158 151.524 25.8229 150.608 26.0371 149.843C26.2559 149.073 26.6068 148.482 27.0898 148.072C27.5729 147.658 28.2109 147.45 29.0039 147.45C29.7559 147.45 30.3757 147.655 30.8633 148.065C31.3509 148.471 31.7132 149.059 31.9502 149.829C32.1872 150.595 32.3057 151.515 32.3057 152.591ZM26.8574 152.591C26.8574 153.521 26.9281 154.295 27.0693 154.915C27.2106 155.535 27.4385 156 27.7529 156.31C28.0719 156.615 28.4889 156.768 29.0039 156.768C29.5189 156.768 29.9336 156.615 30.248 156.31C30.5671 156.004 30.7972 155.542 30.9385 154.922C31.0843 154.302 31.1572 153.525 31.1572 152.591C31.1572 151.675 31.0866 150.909 30.9453 150.294C30.804 149.674 30.5762 149.209 30.2617 148.899C29.9473 148.585 29.528 148.428 29.0039 148.428C28.4798 148.428 28.0605 148.585 27.7461 148.899C27.4316 149.209 27.2038 149.674 27.0625 150.294C26.9258 150.909 26.8574 151.675 26.8574 152.591ZM40.3174 152.591C40.3174 153.402 40.2559 154.127 40.1328 154.765C40.0098 155.403 39.8161 155.943 39.5518 156.385C39.2874 156.827 38.9456 157.164 38.5264 157.396C38.1071 157.624 37.6035 157.738 37.0156 157.738C36.2728 157.738 35.6576 157.535 35.1699 157.13C34.6868 156.724 34.3245 156.139 34.083 155.373C33.846 154.603 33.7275 153.675 33.7275 152.591C33.7275 151.524 33.8346 150.608 34.0488 149.843C34.2676 149.073 34.6185 148.482 35.1016 148.072C35.5846 147.658 36.2227 147.45 37.0156 147.45C37.7676 147.45 38.3874 147.655 38.875 148.065C39.3626 148.471 39.7249 149.059 39.9619 149.829C40.1989 150.595 40.3174 151.515 40.3174 152.591ZM34.8691 152.591C34.8691 153.521 34.9398 154.295 35.0811 154.915C35.2223 155.535 35.4502 156 35.7646 156.31C36.0837 156.615 36.5007 156.768 37.0156 156.768C37.5306 156.768 37.9453 156.615 38.2598 156.31C38.5788 156.004 38.8089 155.542 38.9502 154.922C39.096 154.302 39.1689 153.525 39.1689 152.591C39.1689 151.675 39.0983 150.909 38.957 150.294C38.8158 149.674 38.5879 149.209 38.2734 148.899C37.959 148.585 37.5397 148.428 37.0156 148.428C36.4915 148.428 36.0723 148.585 35.7578 148.899C35.4434 149.209 35.2155 149.674 35.0742 150.294C34.9375 150.909 34.8691 151.675 34.8691 152.591Z" fill="#909090"/>
<line x1="60" y1="196.699" x2="556" y2="196.699" stroke="#EEEEEE"/>
<path d="M17.793 197.927C17.793 197.325 17.834 196.737 17.916 196.163C18.0026 195.589 18.1462 195.056 18.3467 194.563C18.5472 194.067 18.8206 193.632 19.167 193.258C19.5133 192.884 19.944 192.592 20.459 192.383C20.9785 192.169 21.6006 192.062 22.3252 192.062C22.5303 192.062 22.7513 192.073 22.9883 192.096C23.2253 192.114 23.4212 192.146 23.5762 192.191V193.169C23.4076 193.11 23.2139 193.066 22.9951 193.039C22.7809 193.012 22.5645 192.998 22.3457 192.998C21.498 192.998 20.8304 193.183 20.3428 193.552C19.8597 193.921 19.5111 194.422 19.2969 195.056C19.0827 195.685 18.9596 196.393 18.9277 197.182H19.0029C19.1442 196.954 19.3242 196.749 19.543 196.566C19.7617 196.38 20.026 196.231 20.3359 196.122C20.6504 196.013 21.015 195.958 21.4297 195.958C22.013 195.958 22.5212 196.076 22.9541 196.313C23.3916 196.55 23.7288 196.895 23.9658 197.346C24.2074 197.797 24.3281 198.344 24.3281 198.986C24.3281 199.674 24.2005 200.269 23.9453 200.771C23.6901 201.272 23.3255 201.659 22.8516 201.933C22.3822 202.201 21.8216 202.336 21.1699 202.336C20.6823 202.336 20.2334 202.243 19.8232 202.056C19.4131 201.869 19.0553 201.591 18.75 201.222C18.4492 200.853 18.2145 200.395 18.0459 199.848C17.8773 199.296 17.793 198.656 17.793 197.927ZM21.1562 201.379C21.776 201.379 22.2728 201.181 22.6465 200.784C23.0202 200.388 23.207 199.788 23.207 198.986C23.207 198.33 23.0407 197.811 22.708 197.428C22.3753 197.045 21.874 196.854 21.2041 196.854C20.7484 196.854 20.3519 196.949 20.0146 197.141C19.6774 197.327 19.4154 197.564 19.2285 197.852C19.0417 198.139 18.9482 198.43 18.9482 198.727C18.9482 199.027 18.9915 199.333 19.0781 199.643C19.1693 199.952 19.306 200.24 19.4883 200.504C19.6706 200.768 19.9007 200.98 20.1787 201.14C20.4567 201.299 20.7826 201.379 21.1562 201.379ZM32.3057 197.188C32.3057 198 32.2441 198.724 32.1211 199.362C31.998 200 31.8044 200.54 31.54 200.982C31.2757 201.424 30.9339 201.762 30.5146 201.994C30.0954 202.222 29.5918 202.336 29.0039 202.336C28.2611 202.336 27.6458 202.133 27.1582 201.728C26.6751 201.322 26.3128 200.736 26.0713 199.971C25.8343 199.201 25.7158 198.273 25.7158 197.188C25.7158 196.122 25.8229 195.206 26.0371 194.44C26.2559 193.67 26.6068 193.08 27.0898 192.67C27.5729 192.255 28.2109 192.048 29.0039 192.048C29.7559 192.048 30.3757 192.253 30.8633 192.663C31.3509 193.069 31.7132 193.657 31.9502 194.427C32.1872 195.192 32.3057 196.113 32.3057 197.188ZM26.8574 197.188C26.8574 198.118 26.9281 198.893 27.0693 199.513C27.2106 200.132 27.4385 200.597 27.7529 200.907C28.0719 201.213 28.4889 201.365 29.0039 201.365C29.5189 201.365 29.9336 201.213 30.248 200.907C30.5671 200.602 30.7972 200.139 30.9385 199.52C31.0843 198.9 31.1572 198.123 31.1572 197.188C31.1572 196.272 31.0866 195.507 30.9453 194.892C30.804 194.272 30.5762 193.807 30.2617 193.497C29.9473 193.183 29.528 193.025 29.0039 193.025C28.4798 193.025 28.0605 193.183 27.7461 193.497C27.4316 193.807 27.2038 194.272 27.0625 194.892C26.9258 195.507 26.8574 196.272 26.8574 197.188ZM40.3174 197.188C40.3174 198 40.2559 198.724 40.1328 199.362C40.0098 200 39.8161 200.54 39.5518 200.982C39.2874 201.424 38.9456 201.762 38.5264 201.994C38.1071 202.222 37.6035 202.336 37.0156 202.336C36.2728 202.336 35.6576 202.133 35.1699 201.728C34.6868 201.322 34.3245 200.736 34.083 199.971C33.846 199.201 33.7275 198.273 33.7275 197.188C33.7275 196.122 33.8346 195.206 34.0488 194.44C34.2676 193.67 34.6185 193.08 35.1016 192.67C35.5846 192.255 36.2227 192.048 37.0156 192.048C37.7676 192.048 38.3874 192.253 38.875 192.663C39.3626 193.069 39.7249 193.657 39.9619 194.427C40.1989 195.192 40.3174 196.113 40.3174 197.188ZM34.8691 197.188C34.8691 198.118 34.9398 198.893 35.0811 199.513C35.2223 200.132 35.4502 200.597 35.7646 200.907C36.0837 201.213 36.5007 201.365 37.0156 201.365C37.5306 201.365 37.9453 201.213 38.2598 200.907C38.5788 200.602 38.8089 200.139 38.9502 199.52C39.096 198.9 39.1689 198.123 39.1689 197.188C39.1689 196.272 39.0983 195.507 38.957 194.892C38.8158 194.272 38.5879 193.807 38.2734 193.497C37.959 193.183 37.5397 193.025 37.0156 193.025C36.4915 193.025 36.0723 193.183 35.7578 193.497C35.4434 193.807 35.2155 194.272 35.0742 194.892C34.9375 195.507 34.8691 196.272 34.8691 197.188Z" fill="#909090"/>
<line x1="60" y1="241.301" x2="556" y2="241.301" stroke="#EEEEEE"/>
<path d="M24.7383 244.483H23.2412V246.801H22.1338V244.483H17.3008V243.526L22.0586 236.752H23.2412V243.458H24.7383V244.483ZM22.1338 243.458V240.19C22.1338 239.94 22.1361 239.714 22.1406 239.514C22.1452 239.309 22.152 239.119 22.1611 238.946C22.1702 238.769 22.1771 238.6 22.1816 238.44C22.1908 238.281 22.1976 238.124 22.2021 237.969H22.1475C22.0609 238.151 21.9606 238.345 21.8467 238.55C21.7373 238.75 21.6257 238.93 21.5117 239.09L18.4287 243.458H22.1338ZM32.3057 241.79C32.3057 242.601 32.2441 243.326 32.1211 243.964C31.998 244.602 31.8044 245.142 31.54 245.584C31.2757 246.026 30.9339 246.363 30.5146 246.596C30.0954 246.824 29.5918 246.938 29.0039 246.938C28.2611 246.938 27.6458 246.735 27.1582 246.329C26.6751 245.924 26.3128 245.338 26.0713 244.572C25.8343 243.802 25.7158 242.875 25.7158 241.79C25.7158 240.724 25.8229 239.808 26.0371 239.042C26.2559 238.272 26.6068 237.682 27.0898 237.271C27.5729 236.857 28.2109 236.649 29.0039 236.649C29.7559 236.649 30.3757 236.854 30.8633 237.265C31.3509 237.67 31.7132 238.258 31.9502 239.028C32.1872 239.794 32.3057 240.715 32.3057 241.79ZM26.8574 241.79C26.8574 242.72 26.9281 243.494 27.0693 244.114C27.2106 244.734 27.4385 245.199 27.7529 245.509C28.0719 245.814 28.4889 245.967 29.0039 245.967C29.5189 245.967 29.9336 245.814 30.248 245.509C30.5671 245.203 30.7972 244.741 30.9385 244.121C31.0843 243.501 31.1572 242.724 31.1572 241.79C31.1572 240.874 31.0866 240.108 30.9453 239.493C30.804 238.873 30.5762 238.409 30.2617 238.099C29.9473 237.784 29.528 237.627 29.0039 237.627C28.4798 237.627 28.0605 237.784 27.7461 238.099C27.4316 238.409 27.2038 238.873 27.0625 239.493C26.9258 240.108 26.8574 240.874 26.8574 241.79ZM40.3174 241.79C40.3174 242.601 40.2559 243.326 40.1328 243.964C40.0098 244.602 39.8161 245.142 39.5518 245.584C39.2874 246.026 38.9456 246.363 38.5264 246.596C38.1071 246.824 37.6035 246.938 37.0156 246.938C36.2728 246.938 35.6576 246.735 35.1699 246.329C34.6868 245.924 34.3245 245.338 34.083 244.572C33.846 243.802 33.7275 242.875 33.7275 241.79C33.7275 240.724 33.8346 239.808 34.0488 239.042C34.2676 238.272 34.6185 237.682 35.1016 237.271C35.5846 236.857 36.2227 236.649 37.0156 236.649C37.7676 236.649 38.3874 236.854 38.875 237.265C39.3626 237.67 39.7249 238.258 39.9619 239.028C40.1989 239.794 40.3174 240.715 40.3174 241.79ZM34.8691 241.79C34.8691 242.72 34.9398 243.494 35.0811 244.114C35.2223 244.734 35.4502 245.199 35.7646 245.509C36.0837 245.814 36.5007 245.967 37.0156 245.967C37.5306 245.967 37.9453 245.814 38.2598 245.509C38.5788 245.203 38.8089 244.741 38.9502 244.121C39.096 243.501 39.1689 242.724 39.1689 241.79C39.1689 240.874 39.0983 240.108 38.957 239.493C38.8158 238.873 38.5879 238.409 38.2734 238.099C37.959 237.784 37.5397 237.627 37.0156 237.627C36.4915 237.627 36.0723 237.784 35.7578 238.099C35.4434 238.409 35.2155 238.873 35.0742 239.493C34.9375 240.108 34.8691 240.874 34.8691 241.79Z" fill="#909090"/>
<line x1="60" y1="285.898" x2="556" y2="285.898" stroke="#EEEEEE"/>
<path d="M24.2393 291.398H17.6904V290.448L20.3633 287.734C20.86 287.233 21.277 286.786 21.6143 286.395C21.9561 286.003 22.2158 285.618 22.3936 285.239C22.5713 284.856 22.6602 284.437 22.6602 283.981C22.6602 283.416 22.4915 282.986 22.1543 282.689C21.8216 282.389 21.3818 282.238 20.835 282.238C20.3564 282.238 19.9326 282.32 19.5635 282.484C19.1943 282.648 18.8161 282.881 18.4287 283.182L17.8203 282.416C18.0846 282.193 18.3717 281.994 18.6816 281.821C18.9961 281.648 19.3311 281.511 19.6865 281.411C20.0465 281.311 20.4294 281.261 20.835 281.261C21.4502 281.261 21.9811 281.368 22.4277 281.582C22.8743 281.796 23.2184 282.102 23.46 282.498C23.7061 282.895 23.8291 283.366 23.8291 283.913C23.8291 284.442 23.7243 284.934 23.5146 285.39C23.305 285.841 23.0111 286.29 22.6328 286.736C22.2546 287.178 21.8125 287.648 21.3066 288.145L19.1328 290.312V290.359H24.2393V291.398ZM32.3057 286.388C32.3057 287.199 32.2441 287.924 32.1211 288.562C31.998 289.2 31.8044 289.74 31.54 290.182C31.2757 290.624 30.9339 290.961 30.5146 291.193C30.0954 291.421 29.5918 291.535 29.0039 291.535C28.2611 291.535 27.6458 291.332 27.1582 290.927C26.6751 290.521 26.3128 289.936 26.0713 289.17C25.8343 288.4 25.7158 287.472 25.7158 286.388C25.7158 285.321 25.8229 284.405 26.0371 283.64C26.2559 282.869 26.6068 282.279 27.0898 281.869C27.5729 281.454 28.2109 281.247 29.0039 281.247C29.7559 281.247 30.3757 281.452 30.8633 281.862C31.3509 282.268 31.7132 282.856 31.9502 283.626C32.1872 284.392 32.3057 285.312 32.3057 286.388ZM26.8574 286.388C26.8574 287.317 26.9281 288.092 27.0693 288.712C27.2106 289.332 27.4385 289.797 27.7529 290.106C28.0719 290.412 28.4889 290.564 29.0039 290.564C29.5189 290.564 29.9336 290.412 30.248 290.106C30.5671 289.801 30.7972 289.339 30.9385 288.719C31.0843 288.099 31.1572 287.322 31.1572 286.388C31.1572 285.472 31.0866 284.706 30.9453 284.091C30.804 283.471 30.5762 283.006 30.2617 282.696C29.9473 282.382 29.528 282.225 29.0039 282.225C28.4798 282.225 28.0605 282.382 27.7461 282.696C27.4316 283.006 27.2038 283.471 27.0625 284.091C26.9258 284.706 26.8574 285.472 26.8574 286.388ZM40.3174 286.388C40.3174 287.199 40.2559 287.924 40.1328 288.562C40.0098 289.2 39.8161 289.74 39.5518 290.182C39.2874 290.624 38.9456 290.961 38.5264 291.193C38.1071 291.421 37.6035 291.535 37.0156 291.535C36.2728 291.535 35.6576 291.332 35.1699 290.927C34.6868 290.521 34.3245 289.936 34.083 289.17C33.846 288.4 33.7275 287.472 33.7275 286.388C33.7275 285.321 33.8346 284.405 34.0488 283.64C34.2676 282.869 34.6185 282.279 35.1016 281.869C35.5846 281.454 36.2227 281.247 37.0156 281.247C37.7676 281.247 38.3874 281.452 38.875 281.862C39.3626 282.268 39.7249 282.856 39.9619 283.626C40.1989 284.392 40.3174 285.312 40.3174 286.388ZM34.8691 286.388C34.8691 287.317 34.9398 288.092 35.0811 288.712C35.2223 289.332 35.4502 289.797 35.7646 290.106C36.0837 290.412 36.5007 290.564 37.0156 290.564C37.5306 290.564 37.9453 290.412 38.2598 290.106C38.5788 289.801 38.8089 289.339 38.9502 288.719C39.096 288.099 39.1689 287.322 39.1689 286.388C39.1689 285.472 39.0983 284.706 38.957 284.091C38.8158 283.471 38.5879 283.006 38.2734 282.696C37.959 282.382 37.5397 282.225 37.0156 282.225C36.4915 282.225 36.0723 282.382 35.7578 282.696C35.4434 283.006 35.2155 283.471 35.0742 284.091C34.9375 284.706 34.8691 285.472 34.8691 286.388Z" fill="#909090"/>
<line x1="60" y1="330.5" x2="556" y2="330.5" stroke="#EEEEEE"/>
<path d="M24.2939 330.989C24.2939 331.8 24.2324 332.525 24.1094 333.163C23.9863 333.801 23.7926 334.341 23.5283 334.783C23.264 335.225 22.9222 335.562 22.5029 335.795C22.0837 336.023 21.5801 336.137 20.9922 336.137C20.2493 336.137 19.6341 335.934 19.1465 335.528C18.6634 335.123 18.3011 334.537 18.0596 333.771C17.8226 333.001 17.7041 332.074 17.7041 330.989C17.7041 329.923 17.8112 329.007 18.0254 328.241C18.2441 327.471 18.5951 326.881 19.0781 326.471C19.5612 326.056 20.1992 325.849 20.9922 325.849C21.7441 325.849 22.3639 326.054 22.8516 326.464C23.3392 326.869 23.7015 327.457 23.9385 328.228C24.1755 328.993 24.2939 329.914 24.2939 330.989ZM18.8457 330.989C18.8457 331.919 18.9163 332.694 19.0576 333.313C19.1989 333.933 19.4268 334.398 19.7412 334.708C20.0602 335.013 20.4772 335.166 20.9922 335.166C21.5072 335.166 21.9219 335.013 22.2363 334.708C22.5553 334.403 22.7855 333.94 22.9268 333.32C23.0726 332.701 23.1455 331.924 23.1455 330.989C23.1455 330.073 23.0749 329.308 22.9336 328.692C22.7923 328.073 22.5645 327.608 22.25 327.298C21.9355 326.983 21.5163 326.826 20.9922 326.826C20.4681 326.826 20.0488 326.983 19.7344 327.298C19.4199 327.608 19.1921 328.073 19.0508 328.692C18.9141 329.308 18.8457 330.073 18.8457 330.989Z" fill="#909090"/>
<path d="M26.1807 73H24.8408L19.3926 64.6055H19.3379C19.3516 64.8288 19.3675 65.084 19.3857 65.3711C19.404 65.6536 19.4176 65.9567 19.4268 66.2803C19.4404 66.5993 19.4473 66.9251 19.4473 67.2578V73H18.3672V63.0059H19.7002L25.1279 71.373H25.1758C25.1667 71.2135 25.1553 70.988 25.1416 70.6963C25.1279 70.4001 25.1143 70.0833 25.1006 69.7461C25.0915 69.4043 25.0869 69.0876 25.0869 68.7959V63.0059H26.1807V73ZM34.9238 65.5078V73H33.9941L33.8301 71.9473H33.7686C33.6136 72.207 33.4131 72.4258 33.167 72.6035C32.9209 72.7812 32.6429 72.9134 32.333 73C32.0277 73.0911 31.7018 73.1367 31.3555 73.1367C30.763 73.1367 30.2663 73.041 29.8652 72.8496C29.4642 72.6582 29.1611 72.362 28.9561 71.9609C28.7555 71.5599 28.6553 71.0449 28.6553 70.416V65.5078H29.8037V70.334C29.8037 70.9583 29.945 71.4255 30.2275 71.7354C30.5101 72.0407 30.9408 72.1934 31.5195 72.1934C32.0755 72.1934 32.5176 72.0885 32.8457 71.8789C33.1784 71.6693 33.4176 71.3617 33.5635 70.9561C33.7093 70.5459 33.7822 70.0446 33.7822 69.4521V65.5078H34.9238ZM45.458 65.3711C46.2829 65.3711 46.9049 65.5876 47.3242 66.0205C47.7435 66.4489 47.9531 67.1393 47.9531 68.0918V73H46.832V68.1465C46.832 67.5404 46.6999 67.0869 46.4355 66.7861C46.1758 66.4808 45.7884 66.3281 45.2734 66.3281C44.5488 66.3281 44.0225 66.5378 43.6943 66.957C43.3662 67.3763 43.2021 67.9938 43.2021 68.8096V73H42.0742V68.1465C42.0742 67.7409 42.015 67.4036 41.8965 67.1348C41.7826 66.8659 41.6094 66.6654 41.377 66.5332C41.1491 66.3965 40.8597 66.3281 40.5088 66.3281C40.012 66.3281 39.6133 66.4307 39.3125 66.6357C39.0117 66.8408 38.793 67.1462 38.6562 67.5518C38.5241 67.9528 38.458 68.4473 38.458 69.0352V73H37.3232V65.5078H38.2393L38.4102 66.5674H38.4717C38.6221 66.3076 38.8112 66.0889 39.0391 65.9111C39.2669 65.7334 39.5221 65.599 39.8047 65.5078C40.0872 65.4167 40.388 65.3711 40.707 65.3711C41.2767 65.3711 41.7529 65.4782 42.1357 65.6924C42.5231 65.902 42.8034 66.2233 42.9766 66.6562H43.0381C43.2842 66.2233 43.6214 65.902 44.0498 65.6924C44.4782 65.4782 44.9476 65.3711 45.458 65.3711ZM51.4189 62.3633V65.0225C51.4189 65.3278 51.4098 65.624 51.3916 65.9111C51.3779 66.1982 51.3665 66.4215 51.3574 66.5811H51.4189C51.624 66.2438 51.9202 65.959 52.3076 65.7266C52.695 65.4941 53.1895 65.3779 53.791 65.3779C54.7298 65.3779 55.4772 65.7038 56.0332 66.3555C56.5938 67.0026 56.874 67.9665 56.874 69.2471C56.874 70.0902 56.7464 70.8011 56.4912 71.3799C56.236 71.9587 55.876 72.3962 55.4111 72.6924C54.9463 72.9886 54.3971 73.1367 53.7637 73.1367C53.1712 73.1367 52.6836 73.0273 52.3008 72.8086C51.9225 72.5853 51.6309 72.3141 51.4258 71.9951H51.3369L51.1045 73H50.2842V62.3633H51.4189ZM53.6064 66.3281C53.0641 66.3281 52.6335 66.4352 52.3145 66.6494C51.9954 66.859 51.7653 67.1781 51.624 67.6064C51.4873 68.0303 51.4189 68.568 51.4189 69.2197V69.2812C51.4189 70.2246 51.5762 70.9469 51.8906 71.4482C52.2051 71.945 52.777 72.1934 53.6064 72.1934C54.3037 72.1934 54.8255 71.9382 55.1719 71.4277C55.5228 70.9173 55.6982 70.1882 55.6982 69.2402C55.6982 68.2741 55.5251 67.5472 55.1787 67.0596C54.8369 66.5719 54.3128 66.3281 53.6064 66.3281ZM61.7412 65.3711C62.3792 65.3711 62.9261 65.5124 63.3818 65.7949C63.8376 66.0775 64.1862 66.474 64.4277 66.9844C64.6693 67.4902 64.79 68.0827 64.79 68.7617V69.4658H59.6152C59.6289 70.3454 59.8477 71.0153 60.2715 71.4756C60.6953 71.9359 61.2923 72.166 62.0625 72.166C62.5365 72.166 62.9557 72.1227 63.3203 72.0361C63.6849 71.9495 64.0632 71.8219 64.4551 71.6533V72.6514C64.0768 72.82 63.7008 72.943 63.3271 73.0205C62.958 73.098 62.5205 73.1367 62.0146 73.1367C61.2946 73.1367 60.6657 72.9909 60.1279 72.6992C59.5947 72.403 59.18 71.9701 58.8838 71.4004C58.5876 70.8307 58.4395 70.1335 58.4395 69.3086C58.4395 68.502 58.5739 67.8047 58.8428 67.2168C59.1162 66.6243 59.499 66.1686 59.9912 65.8496C60.488 65.5306 61.0713 65.3711 61.7412 65.3711ZM61.7275 66.3008C61.1214 66.3008 60.6383 66.499 60.2783 66.8955C59.9183 67.292 59.7041 67.8457 59.6357 68.5566H63.6006C63.596 68.11 63.5254 67.7181 63.3887 67.3809C63.2565 67.0391 63.0537 66.7747 62.7803 66.5879C62.5068 66.3965 62.1559 66.3008 61.7275 66.3008ZM70.1221 65.3711C70.2725 65.3711 70.4297 65.3802 70.5938 65.3984C70.7578 65.4121 70.9036 65.4326 71.0312 65.46L70.8877 66.5127C70.7646 66.4808 70.6279 66.4557 70.4775 66.4375C70.3271 66.4193 70.1859 66.4102 70.0537 66.4102C69.7529 66.4102 69.4681 66.4717 69.1992 66.5947C68.9349 66.7132 68.7025 66.8864 68.502 67.1143C68.3014 67.3376 68.1442 67.6087 68.0303 67.9277C67.9163 68.2422 67.8594 68.5931 67.8594 68.9805V73H66.7178V65.5078H67.6611L67.7842 66.8887H67.832C67.987 66.6107 68.1738 66.3577 68.3926 66.1299C68.6113 65.8975 68.8643 65.7129 69.1514 65.5762C69.443 65.4395 69.7666 65.3711 70.1221 65.3711ZM82.543 69.2402C82.543 69.8555 82.4632 70.4046 82.3037 70.8877C82.1442 71.3708 81.9141 71.7786 81.6133 72.1113C81.3125 72.444 80.9479 72.6992 80.5195 72.877C80.0957 73.0501 79.6149 73.1367 79.0771 73.1367C78.5758 73.1367 78.1156 73.0501 77.6963 72.877C77.2816 72.6992 76.9215 72.444 76.6162 72.1113C76.3154 71.7786 76.0807 71.3708 75.9121 70.8877C75.748 70.4046 75.666 69.8555 75.666 69.2402C75.666 68.4199 75.805 67.7227 76.083 67.1484C76.361 66.5697 76.7575 66.1299 77.2725 65.8291C77.792 65.5238 78.4095 65.3711 79.125 65.3711C79.8086 65.3711 80.4056 65.5238 80.916 65.8291C81.431 66.1344 81.8298 66.5765 82.1123 67.1553C82.3994 67.7295 82.543 68.4245 82.543 69.2402ZM76.8418 69.2402C76.8418 69.8418 76.9215 70.3636 77.0811 70.8057C77.2406 71.2477 77.4867 71.5895 77.8193 71.8311C78.152 72.0726 78.5804 72.1934 79.1045 72.1934C79.624 72.1934 80.0501 72.0726 80.3828 71.8311C80.7201 71.5895 80.9684 71.2477 81.1279 70.8057C81.2874 70.3636 81.3672 69.8418 81.3672 69.2402C81.3672 68.6432 81.2874 68.1283 81.1279 67.6953C80.9684 67.2578 80.7223 66.9206 80.3896 66.6836C80.057 66.4466 79.6263 66.3281 79.0977 66.3281C78.3184 66.3281 77.7464 66.5856 77.3818 67.1006C77.0218 67.6156 76.8418 68.3288 76.8418 69.2402ZM87.8408 66.3965H85.9746V73H84.8398V66.3965H83.5137V65.8496L84.8398 65.4736V64.9746C84.8398 64.3457 84.9333 63.8353 85.1201 63.4434C85.307 63.0469 85.5781 62.7552 85.9336 62.5684C86.2891 62.3815 86.722 62.2881 87.2324 62.2881C87.5195 62.2881 87.7816 62.3132 88.0186 62.3633C88.2601 62.4134 88.472 62.4704 88.6543 62.5342L88.3604 63.4297C88.2054 63.3796 88.0299 63.334 87.834 63.293C87.6426 63.2474 87.4466 63.2246 87.2461 63.2246C86.8132 63.2246 86.4919 63.3659 86.2822 63.6484C86.0771 63.9264 85.9746 64.3639 85.9746 64.9609V65.5078H87.8408V66.3965ZM100.993 65.3711C101.818 65.3711 102.44 65.5876 102.859 66.0205C103.279 66.4489 103.488 67.1393 103.488 68.0918V73H102.367V68.1465C102.367 67.5404 102.235 67.0869 101.971 66.7861C101.711 66.4808 101.324 66.3281 100.809 66.3281C100.084 66.3281 99.5576 66.5378 99.2295 66.957C98.9014 67.3763 98.7373 67.9938 98.7373 68.8096V73H97.6094V68.1465C97.6094 67.7409 97.5501 67.4036 97.4316 67.1348C97.3177 66.8659 97.1445 66.6654 96.9121 66.5332C96.6842 66.3965 96.3949 66.3281 96.0439 66.3281C95.5472 66.3281 95.1484 66.4307 94.8477 66.6357C94.5469 66.8408 94.3281 67.1462 94.1914 67.5518C94.0592 67.9528 93.9932 68.4473 93.9932 69.0352V73H92.8584V65.5078H93.7744L93.9453 66.5674H94.0068C94.1572 66.3076 94.3464 66.0889 94.5742 65.9111C94.8021 65.7334 95.0573 65.599 95.3398 65.5078C95.6224 65.4167 95.9232 65.3711 96.2422 65.3711C96.8118 65.3711 97.2881 65.4782 97.6709 65.6924C98.0583 65.902 98.3385 66.2233 98.5117 66.6562H98.5732C98.8193 66.2233 99.1566 65.902 99.585 65.6924C100.013 65.4782 100.483 65.3711 100.993 65.3711ZM108.704 65.3711C109.342 65.3711 109.889 65.5124 110.345 65.7949C110.8 66.0775 111.149 66.474 111.391 66.9844C111.632 67.4902 111.753 68.0827 111.753 68.7617V69.4658H106.578C106.592 70.3454 106.811 71.0153 107.234 71.4756C107.658 71.9359 108.255 72.166 109.025 72.166C109.499 72.166 109.919 72.1227 110.283 72.0361C110.648 71.9495 111.026 71.8219 111.418 71.6533V72.6514C111.04 72.82 110.664 72.943 110.29 73.0205C109.921 73.098 109.483 73.1367 108.978 73.1367C108.257 73.1367 107.629 72.9909 107.091 72.6992C106.558 72.403 106.143 71.9701 105.847 71.4004C105.55 70.8307 105.402 70.1335 105.402 69.3086C105.402 68.502 105.537 67.8047 105.806 67.2168C106.079 66.6243 106.462 66.1686 106.954 65.8496C107.451 65.5306 108.034 65.3711 108.704 65.3711ZM108.69 66.3008C108.084 66.3008 107.601 66.499 107.241 66.8955C106.881 67.292 106.667 67.8457 106.599 68.5566H110.563C110.559 68.11 110.488 67.7181 110.352 67.3809C110.219 67.0391 110.017 66.7747 109.743 66.5879C109.47 66.3965 109.119 66.3008 108.69 66.3008ZM117.229 65.3711C118.117 65.3711 118.789 65.5898 119.245 66.0273C119.701 66.4603 119.929 67.1576 119.929 68.1191V73H118.808V68.1943C118.808 67.57 118.664 67.1029 118.377 66.793C118.094 66.4831 117.659 66.3281 117.071 66.3281C116.242 66.3281 115.659 66.5628 115.321 67.0322C114.984 67.5016 114.815 68.1829 114.815 69.0762V73H113.681V65.5078H114.597L114.768 66.5879H114.829C114.989 66.3236 115.191 66.1025 115.438 65.9248C115.684 65.7425 115.959 65.6058 116.265 65.5146C116.57 65.4189 116.891 65.3711 117.229 65.3711ZM124.687 72.207C124.873 72.207 125.065 72.1911 125.261 72.1592C125.457 72.1273 125.616 72.0885 125.739 72.043V72.9248C125.607 72.984 125.423 73.0342 125.186 73.0752C124.953 73.1162 124.725 73.1367 124.502 73.1367C124.105 73.1367 123.745 73.0684 123.422 72.9316C123.098 72.7904 122.839 72.5534 122.643 72.2207C122.451 71.888 122.355 71.4277 122.355 70.8398V66.3965H121.289V65.8428L122.362 65.3984L122.813 63.7715H123.497V65.5078H125.691V66.3965H123.497V70.8057C123.497 71.2751 123.604 71.626 123.818 71.8584C124.037 72.0908 124.326 72.207 124.687 72.207ZM128.392 65.5078V73H127.257V65.5078H128.392ZM127.838 62.7051C128.025 62.7051 128.184 62.7666 128.316 62.8896C128.453 63.0081 128.521 63.195 128.521 63.4502C128.521 63.7008 128.453 63.8877 128.316 64.0107C128.184 64.1338 128.025 64.1953 127.838 64.1953C127.642 64.1953 127.478 64.1338 127.346 64.0107C127.218 63.8877 127.154 63.7008 127.154 63.4502C127.154 63.195 127.218 63.0081 127.346 62.8896C127.478 62.7666 127.642 62.7051 127.838 62.7051ZM137.258 69.2402C137.258 69.8555 137.178 70.4046 137.019 70.8877C136.859 71.3708 136.629 71.7786 136.328 72.1113C136.027 72.444 135.663 72.6992 135.234 72.877C134.811 73.0501 134.33 73.1367 133.792 73.1367C133.291 73.1367 132.83 73.0501 132.411 72.877C131.996 72.6992 131.636 72.444 131.331 72.1113C131.03 71.7786 130.796 71.3708 130.627 70.8877C130.463 70.4046 130.381 69.8555 130.381 69.2402C130.381 68.4199 130.52 67.7227 130.798 67.1484C131.076 66.5697 131.472 66.1299 131.987 65.8291C132.507 65.5238 133.124 65.3711 133.84 65.3711C134.523 65.3711 135.12 65.5238 135.631 65.8291C136.146 66.1344 136.545 66.5765 136.827 67.1553C137.114 67.7295 137.258 68.4245 137.258 69.2402ZM131.557 69.2402C131.557 69.8418 131.636 70.3636 131.796 70.8057C131.955 71.2477 132.201 71.5895 132.534 71.8311C132.867 72.0726 133.295 72.1934 133.819 72.1934C134.339 72.1934 134.765 72.0726 135.098 71.8311C135.435 71.5895 135.683 71.2477 135.843 70.8057C136.002 70.3636 136.082 69.8418 136.082 69.2402C136.082 68.6432 136.002 68.1283 135.843 67.6953C135.683 67.2578 135.437 66.9206 135.104 66.6836C134.772 66.4466 134.341 66.3281 133.812 66.3281C133.033 66.3281 132.461 66.5856 132.097 67.1006C131.737 67.6156 131.557 68.3288 131.557 69.2402ZM142.768 65.3711C143.656 65.3711 144.328 65.5898 144.784 66.0273C145.24 66.4603 145.468 67.1576 145.468 68.1191V73H144.347V68.1943C144.347 67.57 144.203 67.1029 143.916 66.793C143.633 66.4831 143.198 66.3281 142.61 66.3281C141.781 66.3281 141.198 66.5628 140.86 67.0322C140.523 67.5016 140.354 68.1829 140.354 69.0762V73H139.22V65.5078H140.136L140.307 66.5879H140.368C140.528 66.3236 140.73 66.1025 140.977 65.9248C141.223 65.7425 141.498 65.6058 141.804 65.5146C142.109 65.4189 142.43 65.3711 142.768 65.3711ZM152.652 70.9492C152.652 71.4277 152.532 71.8311 152.29 72.1592C152.053 72.4827 151.711 72.7266 151.265 72.8906C150.823 73.0547 150.294 73.1367 149.679 73.1367C149.155 73.1367 148.701 73.0957 148.318 73.0137C147.936 72.9316 147.601 72.8154 147.313 72.665V71.6191C147.619 71.7695 147.983 71.9062 148.407 72.0293C148.831 72.1523 149.264 72.2139 149.706 72.2139C150.353 72.2139 150.823 72.109 151.114 71.8994C151.406 71.6898 151.552 71.4049 151.552 71.0449C151.552 70.8398 151.493 70.6598 151.374 70.5049C151.26 70.3454 151.066 70.1927 150.793 70.0469C150.52 69.8965 150.141 69.7324 149.658 69.5547C149.18 69.3724 148.765 69.1924 148.414 69.0146C148.068 68.8324 147.799 68.6113 147.607 68.3516C147.421 68.0918 147.327 67.7546 147.327 67.3398C147.327 66.7064 147.582 66.221 148.093 65.8838C148.608 65.542 149.282 65.3711 150.116 65.3711C150.567 65.3711 150.989 65.4167 151.381 65.5078C151.777 65.5944 152.146 65.7129 152.488 65.8633L152.105 66.7725C151.796 66.6403 151.465 66.5286 151.114 66.4375C150.763 66.3464 150.406 66.3008 150.041 66.3008C149.517 66.3008 149.114 66.3874 148.831 66.5605C148.553 66.7337 148.414 66.9707 148.414 67.2715C148.414 67.5039 148.478 67.6953 148.605 67.8457C148.738 67.9961 148.947 68.1374 149.234 68.2695C149.521 68.4017 149.9 68.5566 150.369 68.7344C150.839 68.9076 151.244 69.0876 151.586 69.2744C151.928 69.4567 152.19 69.68 152.372 69.9443C152.559 70.2041 152.652 70.5391 152.652 70.9492Z" fill="#696565"/>
<path d="M67.0068 354.341C67.0068 354.933 66.8587 355.439 66.5625 355.858C66.2708 356.273 65.8607 356.59 65.332 356.809C64.8034 357.027 64.1813 357.137 63.4658 357.137C63.0876 357.137 62.7298 357.118 62.3926 357.082C62.0553 357.046 61.7454 356.993 61.4629 356.925C61.1803 356.856 60.932 356.772 60.7178 356.672V355.558C61.0596 355.699 61.4766 355.831 61.9688 355.954C62.4609 356.073 62.9759 356.132 63.5137 356.132C64.015 356.132 64.4388 356.066 64.7852 355.934C65.1315 355.797 65.3936 355.603 65.5713 355.353C65.7536 355.097 65.8447 354.792 65.8447 354.437C65.8447 354.095 65.7695 353.81 65.6191 353.582C65.4688 353.35 65.2181 353.14 64.8672 352.953C64.5208 352.762 64.0469 352.559 63.4453 352.345C63.0215 352.194 62.6478 352.03 62.3242 351.853C62.0007 351.67 61.7295 351.465 61.5107 351.237C61.292 351.009 61.1257 350.745 61.0117 350.444C60.9023 350.144 60.8477 349.799 60.8477 349.412C60.8477 348.879 60.9821 348.423 61.251 348.045C61.5244 347.662 61.9004 347.37 62.3789 347.17C62.862 346.965 63.4157 346.862 64.04 346.862C64.5732 346.862 65.0654 346.912 65.5166 347.013C65.9723 347.113 66.3893 347.247 66.7676 347.416L66.4053 348.414C66.0452 348.264 65.6624 348.138 65.2568 348.038C64.8558 347.938 64.4411 347.888 64.0127 347.888C63.5843 347.888 63.222 347.951 62.9258 348.079C62.6341 348.202 62.4108 348.378 62.2559 348.605C62.1009 348.833 62.0234 349.104 62.0234 349.419C62.0234 349.77 62.0964 350.062 62.2422 350.294C62.3926 350.526 62.6296 350.734 62.9531 350.916C63.2812 351.094 63.7142 351.281 64.252 351.477C64.8398 351.691 65.3389 351.919 65.749 352.16C66.1592 352.397 66.4714 352.689 66.6855 353.035C66.8997 353.377 67.0068 353.812 67.0068 354.341ZM71.7646 349.371C72.4027 349.371 72.9495 349.512 73.4053 349.795C73.861 350.077 74.2096 350.474 74.4512 350.984C74.6927 351.49 74.8135 352.083 74.8135 352.762V353.466H69.6387C69.6523 354.345 69.8711 355.015 70.2949 355.476C70.7188 355.936 71.3158 356.166 72.0859 356.166C72.5599 356.166 72.9792 356.123 73.3438 356.036C73.7083 355.95 74.0866 355.822 74.4785 355.653V356.651C74.1003 356.82 73.7243 356.943 73.3506 357.021C72.9814 357.098 72.5439 357.137 72.0381 357.137C71.318 357.137 70.6891 356.991 70.1514 356.699C69.6182 356.403 69.2035 355.97 68.9072 355.4C68.611 354.831 68.4629 354.133 68.4629 353.309C68.4629 352.502 68.5973 351.805 68.8662 351.217C69.1396 350.624 69.5225 350.169 70.0146 349.85C70.5114 349.531 71.0947 349.371 71.7646 349.371ZM71.751 350.301C71.1449 350.301 70.6618 350.499 70.3018 350.896C69.9417 351.292 69.7275 351.846 69.6592 352.557H73.624C73.6195 352.11 73.5488 351.718 73.4121 351.381C73.2799 351.039 73.0771 350.775 72.8037 350.588C72.5303 350.396 72.1794 350.301 71.751 350.301ZM80.2617 349.371C81.196 349.371 81.9411 349.692 82.4971 350.335C83.0531 350.978 83.3311 351.944 83.3311 353.233C83.3311 354.086 83.2035 354.801 82.9482 355.38C82.693 355.959 82.333 356.396 81.8682 356.692C81.4079 356.989 80.8633 357.137 80.2344 357.137C79.8379 357.137 79.4893 357.084 79.1885 356.979C78.8877 356.875 78.6302 356.733 78.416 356.556C78.2018 356.378 78.0241 356.184 77.8828 355.975H77.8008C77.8145 356.152 77.8304 356.367 77.8486 356.617C77.8714 356.868 77.8828 357.087 77.8828 357.273V360.35H76.7412V349.508H77.6777L77.8281 350.615H77.8828C78.0286 350.387 78.2064 350.18 78.416 349.993C78.6257 349.802 78.8809 349.651 79.1816 349.542C79.487 349.428 79.847 349.371 80.2617 349.371ZM80.0635 350.328C79.5439 350.328 79.1247 350.428 78.8057 350.629C78.4912 350.829 78.2611 351.13 78.1152 351.531C77.9694 351.928 77.8919 352.427 77.8828 353.028V353.247C77.8828 353.881 77.9512 354.416 78.0879 354.854C78.2292 355.291 78.4593 355.624 78.7783 355.852C79.1019 356.079 79.5348 356.193 80.0771 356.193C80.542 356.193 80.9294 356.068 81.2393 355.817C81.5492 355.567 81.7793 355.218 81.9297 354.771C82.0846 354.32 82.1621 353.803 82.1621 353.22C82.1621 352.336 81.9889 351.634 81.6426 351.114C81.3008 350.59 80.7744 350.328 80.0635 350.328Z" fill="#818182"/>
<path d="M148.535 351.989C148.535 352.759 148.437 353.461 148.241 354.095C148.045 354.724 147.754 355.266 147.366 355.722C146.983 356.173 146.507 356.521 145.938 356.768C145.368 357.014 144.707 357.137 143.955 357.137C143.18 357.137 142.504 357.014 141.925 356.768C141.351 356.521 140.872 356.171 140.489 355.715C140.111 355.259 139.826 354.715 139.635 354.081C139.448 353.448 139.354 352.746 139.354 351.976C139.354 350.955 139.523 350.059 139.86 349.289C140.198 348.519 140.708 347.92 141.392 347.491C142.08 347.063 142.941 346.849 143.976 346.849C144.965 346.849 145.796 347.061 146.471 347.484C147.15 347.908 147.662 348.505 148.009 349.275C148.36 350.041 148.535 350.946 148.535 351.989ZM140.578 351.989C140.578 352.837 140.699 353.571 140.94 354.19C141.182 354.81 141.551 355.289 142.048 355.626C142.549 355.963 143.185 356.132 143.955 356.132C144.73 356.132 145.363 355.963 145.855 355.626C146.352 355.289 146.719 354.81 146.956 354.19C147.193 353.571 147.312 352.837 147.312 351.989C147.312 350.7 147.04 349.692 146.498 348.968C145.96 348.239 145.119 347.874 143.976 347.874C143.201 347.874 142.563 348.04 142.062 348.373C141.56 348.706 141.187 349.18 140.94 349.795C140.699 350.406 140.578 351.137 140.578 351.989ZM153.594 357.137C152.919 357.137 152.325 356.998 151.81 356.72C151.295 356.442 150.894 356.018 150.606 355.448C150.319 354.879 150.176 354.161 150.176 353.295C150.176 352.388 150.326 351.647 150.627 351.073C150.932 350.494 151.352 350.066 151.885 349.788C152.418 349.51 153.024 349.371 153.703 349.371C154.077 349.371 154.437 349.41 154.783 349.487C155.134 349.56 155.421 349.654 155.645 349.768L155.303 350.718C155.075 350.627 154.811 350.545 154.51 350.472C154.214 350.399 153.936 350.362 153.676 350.362C153.156 350.362 152.723 350.474 152.377 350.697C152.035 350.921 151.778 351.249 151.604 351.682C151.436 352.115 151.352 352.648 151.352 353.281C151.352 353.887 151.434 354.405 151.598 354.833C151.766 355.261 152.015 355.59 152.343 355.817C152.675 356.041 153.09 356.152 153.587 356.152C153.983 356.152 154.341 356.111 154.66 356.029C154.979 355.943 155.269 355.842 155.528 355.729V356.74C155.278 356.868 154.997 356.966 154.688 357.034C154.382 357.103 154.018 357.137 153.594 357.137ZM159.726 356.207C159.912 356.207 160.104 356.191 160.3 356.159C160.496 356.127 160.655 356.089 160.778 356.043V356.925C160.646 356.984 160.462 357.034 160.225 357.075C159.992 357.116 159.764 357.137 159.541 357.137C159.145 357.137 158.785 357.068 158.461 356.932C158.137 356.79 157.878 356.553 157.682 356.221C157.49 355.888 157.395 355.428 157.395 354.84V350.396H156.328V349.843L157.401 349.398L157.853 347.771H158.536V349.508H160.73V350.396H158.536V354.806C158.536 355.275 158.643 355.626 158.857 355.858C159.076 356.091 159.366 356.207 159.726 356.207Z" fill="#818182"/>
<path d="M226.181 357H224.841L219.393 348.605H219.338C219.352 348.829 219.368 349.084 219.386 349.371C219.404 349.654 219.418 349.957 219.427 350.28C219.44 350.599 219.447 350.925 219.447 351.258V357H218.367V347.006H219.7L225.128 355.373H225.176C225.167 355.214 225.155 354.988 225.142 354.696C225.128 354.4 225.114 354.083 225.101 353.746C225.091 353.404 225.087 353.088 225.087 352.796V347.006H226.181V357ZM235.197 353.24C235.197 353.855 235.118 354.405 234.958 354.888C234.799 355.371 234.568 355.779 234.268 356.111C233.967 356.444 233.602 356.699 233.174 356.877C232.75 357.05 232.269 357.137 231.731 357.137C231.23 357.137 230.77 357.05 230.351 356.877C229.936 356.699 229.576 356.444 229.271 356.111C228.97 355.779 228.735 355.371 228.566 354.888C228.402 354.405 228.32 353.855 228.32 353.24C228.32 352.42 228.459 351.723 228.737 351.148C229.015 350.57 229.412 350.13 229.927 349.829C230.446 349.524 231.064 349.371 231.779 349.371C232.463 349.371 233.06 349.524 233.57 349.829C234.085 350.134 234.484 350.576 234.767 351.155C235.054 351.729 235.197 352.424 235.197 353.24ZM229.496 353.24C229.496 353.842 229.576 354.364 229.735 354.806C229.895 355.248 230.141 355.59 230.474 355.831C230.806 356.073 231.235 356.193 231.759 356.193C232.278 356.193 232.704 356.073 233.037 355.831C233.374 355.59 233.623 355.248 233.782 354.806C233.942 354.364 234.021 353.842 234.021 353.24C234.021 352.643 233.942 352.128 233.782 351.695C233.623 351.258 233.377 350.921 233.044 350.684C232.711 350.447 232.281 350.328 231.752 350.328C230.973 350.328 230.401 350.586 230.036 351.101C229.676 351.616 229.496 352.329 229.496 353.24ZM238.807 357L235.963 349.508H237.18L238.827 354.04C238.941 354.35 239.057 354.692 239.176 355.065C239.294 355.439 239.376 355.74 239.422 355.968H239.47C239.524 355.74 239.616 355.439 239.743 355.065C239.871 354.687 239.987 354.345 240.092 354.04L241.739 349.508H242.956L240.105 357H238.807Z" fill="#818182"/>
<path d="M304.804 351.907C304.804 353.033 304.599 353.974 304.188 354.73C303.778 355.482 303.184 356.05 302.404 356.433C301.63 356.811 300.688 357 299.581 357H296.867V347.006H299.882C300.898 347.006 301.773 347.193 302.507 347.566C303.241 347.936 303.806 348.485 304.202 349.214C304.603 349.938 304.804 350.836 304.804 351.907ZM303.58 351.948C303.58 351.05 303.43 350.31 303.129 349.727C302.833 349.143 302.395 348.71 301.816 348.428C301.242 348.141 300.538 347.997 299.704 347.997H298.029V356.002H299.444C300.821 356.002 301.853 355.662 302.541 354.983C303.234 354.304 303.58 353.293 303.58 351.948ZM309.739 349.371C310.377 349.371 310.924 349.512 311.38 349.795C311.836 350.077 312.184 350.474 312.426 350.984C312.667 351.49 312.788 352.083 312.788 352.762V353.466H307.613C307.627 354.345 307.846 355.015 308.27 355.476C308.693 355.936 309.29 356.166 310.061 356.166C310.535 356.166 310.954 356.123 311.318 356.036C311.683 355.95 312.061 355.822 312.453 355.653V356.651C312.075 356.82 311.699 356.943 311.325 357.021C310.956 357.098 310.519 357.137 310.013 357.137C309.293 357.137 308.664 356.991 308.126 356.699C307.593 356.403 307.178 355.97 306.882 355.4C306.586 354.831 306.438 354.133 306.438 353.309C306.438 352.502 306.572 351.805 306.841 351.217C307.114 350.624 307.497 350.169 307.989 349.85C308.486 349.531 309.069 349.371 309.739 349.371ZM309.726 350.301C309.119 350.301 308.636 350.499 308.276 350.896C307.916 351.292 307.702 351.846 307.634 352.557H311.599C311.594 352.11 311.523 351.718 311.387 351.381C311.255 351.039 311.052 350.775 310.778 350.588C310.505 350.396 310.154 350.301 309.726 350.301ZM317.717 357.137C317.042 357.137 316.448 356.998 315.933 356.72C315.418 356.442 315.017 356.018 314.729 355.448C314.442 354.879 314.299 354.161 314.299 353.295C314.299 352.388 314.449 351.647 314.75 351.073C315.055 350.494 315.475 350.066 316.008 349.788C316.541 349.51 317.147 349.371 317.826 349.371C318.2 349.371 318.56 349.41 318.906 349.487C319.257 349.56 319.544 349.654 319.768 349.768L319.426 350.718C319.198 350.627 318.934 350.545 318.633 350.472C318.337 350.399 318.059 350.362 317.799 350.362C317.279 350.362 316.846 350.474 316.5 350.697C316.158 350.921 315.901 351.249 315.728 351.682C315.559 352.115 315.475 352.648 315.475 353.281C315.475 353.887 315.557 354.405 315.721 354.833C315.889 355.261 316.138 355.59 316.466 355.817C316.799 356.041 317.213 356.152 317.71 356.152C318.106 356.152 318.464 356.111 318.783 356.029C319.102 355.943 319.392 355.842 319.651 355.729V356.74C319.401 356.868 319.12 356.966 318.811 357.034C318.505 357.103 318.141 357.137 317.717 357.137Z" fill="#818182"/>
<path d="M373.925 359.632C373.697 359.632 373.496 359.616 373.323 359.584C373.15 359.552 373.002 359.509 372.879 359.454V358.463C373.025 358.508 373.182 358.543 373.351 358.565C373.519 358.593 373.701 358.606 373.897 358.606C374.153 358.606 374.387 358.556 374.602 358.456C374.816 358.356 374.987 358.185 375.114 357.943C375.242 357.702 375.306 357.369 375.306 356.945V347.006H376.475V356.856C376.475 357.481 376.37 357.998 376.16 358.408C375.955 358.818 375.661 359.124 375.278 359.324C374.9 359.529 374.449 359.632 373.925 359.632ZM381.759 349.385C382.652 349.385 383.315 349.585 383.748 349.986C384.181 350.387 384.397 351.028 384.397 351.907V357H383.57L383.352 355.893H383.297C383.087 356.166 382.868 356.396 382.641 356.583C382.413 356.765 382.148 356.904 381.848 357C381.551 357.091 381.187 357.137 380.754 357.137C380.298 357.137 379.893 357.057 379.537 356.897C379.186 356.738 378.908 356.496 378.703 356.173C378.503 355.849 378.402 355.439 378.402 354.942C378.402 354.195 378.699 353.621 379.291 353.22C379.883 352.819 380.786 352.6 381.998 352.563L383.29 352.509V352.051C383.29 351.404 383.151 350.95 382.873 350.69C382.595 350.431 382.203 350.301 381.697 350.301C381.305 350.301 380.932 350.358 380.576 350.472C380.221 350.586 379.883 350.72 379.564 350.875L379.216 350.014C379.553 349.84 379.94 349.692 380.378 349.569C380.815 349.446 381.276 349.385 381.759 349.385ZM383.276 353.309L382.135 353.356C381.201 353.393 380.542 353.546 380.159 353.814C379.776 354.083 379.585 354.464 379.585 354.956C379.585 355.384 379.715 355.701 379.975 355.906C380.234 356.111 380.578 356.214 381.007 356.214C381.672 356.214 382.217 356.029 382.641 355.66C383.064 355.291 383.276 354.737 383.276 353.999V353.309ZM390.283 349.371C391.172 349.371 391.844 349.59 392.3 350.027C392.756 350.46 392.983 351.158 392.983 352.119V357H391.862V352.194C391.862 351.57 391.719 351.103 391.432 350.793C391.149 350.483 390.714 350.328 390.126 350.328C389.297 350.328 388.713 350.563 388.376 351.032C388.039 351.502 387.87 352.183 387.87 353.076V357H386.735V349.508H387.651L387.822 350.588H387.884C388.043 350.324 388.246 350.103 388.492 349.925C388.738 349.743 389.014 349.606 389.319 349.515C389.625 349.419 389.946 349.371 390.283 349.371Z" fill="#818182"/>
<path d="M455.029 357H453.867V347.006H459.432V348.031H455.029V351.695H459.165V352.714H455.029V357ZM463.813 349.371C464.451 349.371 464.998 349.512 465.454 349.795C465.91 350.077 466.258 350.474 466.5 350.984C466.742 351.49 466.862 352.083 466.862 352.762V353.466H461.688C461.701 354.345 461.92 355.015 462.344 355.476C462.768 355.936 463.365 356.166 464.135 356.166C464.609 356.166 465.028 356.123 465.393 356.036C465.757 355.95 466.135 355.822 466.527 355.653V356.651C466.149 356.82 465.773 356.943 465.399 357.021C465.03 357.098 464.593 357.137 464.087 357.137C463.367 357.137 462.738 356.991 462.2 356.699C461.667 356.403 461.252 355.97 460.956 355.4C460.66 354.831 460.512 354.133 460.512 353.309C460.512 352.502 460.646 351.805 460.915 351.217C461.188 350.624 461.571 350.169 462.063 349.85C462.56 349.531 463.144 349.371 463.813 349.371ZM463.8 350.301C463.194 350.301 462.711 350.499 462.351 350.896C461.991 351.292 461.776 351.846 461.708 352.557H465.673C465.668 352.11 465.598 351.718 465.461 351.381C465.329 351.039 465.126 350.775 464.853 350.588C464.579 350.396 464.228 350.301 463.8 350.301ZM469.925 346.363V349.022C469.925 349.328 469.916 349.624 469.897 349.911C469.884 350.198 469.872 350.422 469.863 350.581H469.925C470.13 350.244 470.426 349.959 470.813 349.727C471.201 349.494 471.695 349.378 472.297 349.378C473.236 349.378 473.983 349.704 474.539 350.355C475.1 351.003 475.38 351.966 475.38 353.247C475.38 354.09 475.252 354.801 474.997 355.38C474.742 355.959 474.382 356.396 473.917 356.692C473.452 356.989 472.903 357.137 472.27 357.137C471.677 357.137 471.189 357.027 470.807 356.809C470.428 356.585 470.137 356.314 469.932 355.995H469.843L469.61 357H468.79V346.363H469.925ZM472.112 350.328C471.57 350.328 471.139 350.435 470.82 350.649C470.501 350.859 470.271 351.178 470.13 351.606C469.993 352.03 469.925 352.568 469.925 353.22V353.281C469.925 354.225 470.082 354.947 470.396 355.448C470.711 355.945 471.283 356.193 472.112 356.193C472.81 356.193 473.331 355.938 473.678 355.428C474.029 354.917 474.204 354.188 474.204 353.24C474.204 352.274 474.031 351.547 473.685 351.06C473.343 350.572 472.819 350.328 472.112 350.328Z" fill="#818182"/>
<path d="M536.763 357L533.406 348.154H533.352C533.37 348.341 533.386 348.569 533.399 348.838C533.413 349.107 533.424 349.401 533.434 349.72C533.443 350.034 533.447 350.355 533.447 350.684V357H532.367V347.006H534.09L537.255 355.318H537.303L540.516 347.006H542.225V357H541.076V350.602C541.076 350.305 541.081 350.009 541.09 349.713C541.099 349.412 541.11 349.13 541.124 348.865C541.138 348.596 541.151 348.364 541.165 348.168H541.11L537.713 357H536.763ZM547.591 349.385C548.484 349.385 549.147 349.585 549.58 349.986C550.013 350.387 550.229 351.028 550.229 351.907V357H549.402L549.184 355.893H549.129C548.919 356.166 548.701 356.396 548.473 356.583C548.245 356.765 547.98 356.904 547.68 357C547.383 357.091 547.019 357.137 546.586 357.137C546.13 357.137 545.725 357.057 545.369 356.897C545.018 356.738 544.74 356.496 544.535 356.173C544.335 355.849 544.234 355.439 544.234 354.942C544.234 354.195 544.531 353.621 545.123 353.22C545.715 352.819 546.618 352.6 547.83 352.563L549.122 352.509V352.051C549.122 351.404 548.983 350.95 548.705 350.69C548.427 350.431 548.035 350.301 547.529 350.301C547.137 350.301 546.764 350.358 546.408 350.472C546.053 350.586 545.715 350.72 545.396 350.875L545.048 350.014C545.385 349.84 545.772 349.692 546.21 349.569C546.647 349.446 547.108 349.385 547.591 349.385ZM549.108 353.309L547.967 353.356C547.033 353.393 546.374 353.546 545.991 353.814C545.608 354.083 545.417 354.464 545.417 354.956C545.417 355.384 545.547 355.701 545.807 355.906C546.066 356.111 546.41 356.214 546.839 356.214C547.504 356.214 548.049 356.029 548.473 355.66C548.896 355.291 549.108 354.737 549.108 353.999V353.309ZM555.972 349.371C556.122 349.371 556.279 349.38 556.443 349.398C556.607 349.412 556.753 349.433 556.881 349.46L556.737 350.513C556.614 350.481 556.478 350.456 556.327 350.438C556.177 350.419 556.035 350.41 555.903 350.41C555.603 350.41 555.318 350.472 555.049 350.595C554.785 350.713 554.552 350.886 554.352 351.114C554.151 351.338 553.994 351.609 553.88 351.928C553.766 352.242 553.709 352.593 553.709 352.98V357H552.567V349.508H553.511L553.634 350.889H553.682C553.837 350.611 554.023 350.358 554.242 350.13C554.461 349.897 554.714 349.713 555.001 349.576C555.293 349.439 555.616 349.371 555.972 349.371Z" fill="#818182"/>
<path d="M64 329C85.6841 326.672 88.2918 158.692 114.165 156.306C127.955 155.034 144.652 165.305 156.978 169.151C169.304 172.997 178.125 153.341 205.846 156.306C228.722 158.753 239.649 211.811 262.065 212.825C284.481 213.838 295.05 153.658 318.717 156.306C342.383 158.953 364.798 244.039 387.045 257.012C409.291 269.985 412.31 294.17 440.237 291.522C468.163 288.875 468.499 292.581 481.753 291.522C495.006 290.463 506.919 306.858 518.279 309.77C529.639 312.682 532.86 302.103 557 302.103" stroke="#6461E5" stroke-width="2" stroke-linecap="round" stroke-linejoin="round"/>
<path d="M64 329C85.7281 321.806 103.595 277.939 129.521 270.566C143.339 266.636 154.409 274.285 166.76 286.17C179.11 298.054 176.693 303.186 204.469 312.349C227.392 319.91 233.388 238.39 255.849 241.522C278.311 244.655 287.285 198.737 311 206.919C334.715 215.1 355.615 162.326 377.906 202.416C400.198 242.505 402.241 164.066 430.224 155.884C458.207 147.703 469.3 199.061 482.58 195.788C495.86 192.516 507.817 254.394 519.2 263.393C530.583 272.393 533.811 239.7 558 239.7" stroke="#59CBFC" stroke-width="2" stroke-linecap="round" stroke-linejoin="round"/>
</svg>
