<svg width="577" height="420" viewBox="0 0 577 420" fill="none" xmlns="http://www.w3.org/2000/svg">
<rect x="0.5" y="0.5" width="576" height="419" rx="7.5" fill="white"/>
<!-- <rect x="0.5" y="0.5" width="576" height="419" rx="7.5" stroke="#EEEEEE"/> -->
<!-- <path d="M19.78 32.03L19.654 29.258L26.26 22.4H28.888L23.398 28.232L22.102 29.654L19.78 32.03ZM17.692 35V22.4H20.032V35H17.692ZM26.476 35L21.652 29.258L23.2 27.548L29.212 35H26.476ZM34.6854 35.126C33.6174 35.126 32.6814 34.916 31.8774 34.496C31.0854 34.064 30.4674 33.476 30.0234 32.732C29.5914 31.988 29.3754 31.142 29.3754 30.194C29.3754 29.234 29.5854 28.388 30.0054 27.656C30.4374 26.912 31.0254 26.33 31.7694 25.91C32.5254 25.49 33.3834 25.28 34.3434 25.28C35.2794 25.28 36.1134 25.484 36.8454 25.892C37.5774 26.3 38.1534 26.876 38.5734 27.62C38.9934 28.364 39.2034 29.24 39.2034 30.248C39.2034 30.344 39.1974 30.452 39.1854 30.572C39.1854 30.692 39.1794 30.806 39.1674 30.914H31.1574V29.42H37.9794L37.0974 29.888C37.1094 29.336 36.9954 28.85 36.7554 28.43C36.5154 28.01 36.1854 27.68 35.7654 27.44C35.3574 27.2 34.8834 27.08 34.3434 27.08C33.7914 27.08 33.3054 27.2 32.8854 27.44C32.4774 27.68 32.1534 28.016 31.9134 28.448C31.6854 28.868 31.5714 29.366 31.5714 29.942V30.302C31.5714 30.878 31.7034 31.388 31.9674 31.832C32.2314 32.276 32.6034 32.618 33.0834 32.858C33.5634 33.098 34.1154 33.218 34.7394 33.218C35.2794 33.218 35.7654 33.134 36.1974 32.966C36.6294 32.798 37.0134 32.534 37.3494 32.174L38.5554 33.56C38.1234 34.064 37.5774 34.454 36.9174 34.73C36.2694 34.994 35.5254 35.126 34.6854 35.126ZM41.9809 38.618C41.5129 38.618 41.0449 38.54 40.5769 38.384C40.1089 38.228 39.7189 38.012 39.4069 37.736L40.3069 36.08C40.5349 36.284 40.7929 36.446 41.0809 36.566C41.3689 36.686 41.6629 36.746 41.9629 36.746C42.3709 36.746 42.7009 36.644 42.9529 36.44C43.2049 36.236 43.4389 35.894 43.6549 35.414L44.2129 34.154L44.3929 33.884L48.0289 25.388H50.1889L45.6889 35.774C45.3889 36.494 45.0529 37.064 44.6809 37.484C44.3209 37.904 43.9129 38.198 43.4569 38.366C43.0129 38.534 42.5209 38.618 41.9809 38.618ZM43.9609 35.342L39.6229 25.388H41.9629L45.4909 33.686L43.9609 35.342ZM53.5258 35L49.9978 25.388H52.1218L55.1458 33.866H54.1378L57.3058 25.388H59.1958L62.2738 33.866H61.2838L64.3978 25.388H66.3958L62.8498 35H60.6898L57.8818 27.494H58.5478L55.6858 35H53.5258ZM71.9991 35.126C71.0151 35.126 70.1391 34.916 69.3711 34.496C68.6031 34.064 67.9971 33.476 67.5531 32.732C67.1091 31.988 66.8871 31.142 66.8871 30.194C66.8871 29.234 67.1091 28.388 67.5531 27.656C67.9971 26.912 68.6031 26.33 69.3711 25.91C70.1391 25.49 71.0151 25.28 71.9991 25.28C72.9951 25.28 73.8771 25.49 74.6451 25.91C75.4251 26.33 76.0311 26.906 76.4631 27.638C76.9071 28.37 77.1291 29.222 77.1291 30.194C77.1291 31.142 76.9071 31.988 76.4631 32.732C76.0311 33.476 75.4251 34.064 74.6451 34.496C73.8771 34.916 72.9951 35.126 71.9991 35.126ZM71.9991 33.2C72.5511 33.2 73.0431 33.08 73.4751 32.84C73.9071 32.6 74.2431 32.252 74.4831 31.796C74.7351 31.34 74.8611 30.806 74.8611 30.194C74.8611 29.57 74.7351 29.036 74.4831 28.592C74.2431 28.136 73.9071 27.788 73.4751 27.548C73.0431 27.308 72.5571 27.188 72.0171 27.188C71.4651 27.188 70.9731 27.308 70.5411 27.548C70.1211 27.788 69.7851 28.136 69.5331 28.592C69.2811 29.036 69.1551 29.57 69.1551 30.194C69.1551 30.806 69.2811 31.34 69.5331 31.796C69.7851 32.252 70.1211 32.6 70.5411 32.84C70.9731 33.08 71.4591 33.2 71.9991 33.2ZM79.2807 35V25.388H81.4227V28.034L81.1707 27.26C81.4587 26.612 81.9087 26.12 82.5207 25.784C83.1447 25.448 83.9187 25.28 84.8427 25.28V27.422C84.7467 27.398 84.6567 27.386 84.5727 27.386C84.4887 27.374 84.4047 27.368 84.3207 27.368C83.4687 27.368 82.7907 27.62 82.2867 28.124C81.7827 28.616 81.5307 29.354 81.5307 30.338V35H79.2807ZM90.7315 35.126C89.8075 35.126 88.9735 34.922 88.2295 34.514C87.4975 34.094 86.9215 33.518 86.5015 32.786C86.0815 32.054 85.8715 31.19 85.8715 30.194C85.8715 29.198 86.0815 28.334 86.5015 27.602C86.9215 26.87 87.4975 26.3 88.2295 25.892C88.9735 25.484 89.8075 25.28 90.7315 25.28C91.5355 25.28 92.2555 25.46 92.8915 25.82C93.5275 26.168 94.0315 26.702 94.4035 27.422C94.7755 28.142 94.9615 29.066 94.9615 30.194C94.9615 31.31 94.7815 32.234 94.4215 32.966C94.0615 33.686 93.5635 34.226 92.9275 34.586C92.2915 34.946 91.5595 35.126 90.7315 35.126ZM91.0015 33.2C91.5415 33.2 92.0215 33.08 92.4415 32.84C92.8735 32.6 93.2155 32.252 93.4675 31.796C93.7315 31.34 93.8635 30.806 93.8635 30.194C93.8635 29.57 93.7315 29.036 93.4675 28.592C93.2155 28.136 92.8735 27.788 92.4415 27.548C92.0215 27.308 91.5415 27.188 91.0015 27.188C90.4615 27.188 89.9755 27.308 89.5435 27.548C89.1235 27.788 88.7815 28.136 88.5175 28.592C88.2655 29.036 88.1395 29.57 88.1395 30.194C88.1395 30.806 88.2655 31.34 88.5175 31.796C88.7815 32.252 89.1235 32.6 89.5435 32.84C89.9755 33.08 90.4615 33.2 91.0015 33.2ZM93.9175 35V32.732L94.0075 30.176L93.8275 27.62V21.644H96.0595V35H93.9175ZM101.991 35.126C101.187 35.126 100.413 35.024 99.6689 34.82C98.9369 34.604 98.3549 34.346 97.9229 34.046L98.7869 32.336C99.2189 32.612 99.7349 32.84 100.335 33.02C100.935 33.2 101.535 33.29 102.135 33.29C102.843 33.29 103.353 33.194 103.665 33.002C103.989 32.81 104.151 32.552 104.151 32.228C104.151 31.964 104.043 31.766 103.827 31.634C103.611 31.49 103.329 31.382 102.981 31.31C102.633 31.238 102.243 31.172 101.811 31.112C101.391 31.052 100.965 30.974 100.533 30.878C100.113 30.77 99.7289 30.62 99.3809 30.428C99.0329 30.224 98.7509 29.954 98.5349 29.618C98.3189 29.282 98.2109 28.838 98.2109 28.286C98.2109 27.674 98.3849 27.146 98.7329 26.702C99.0809 26.246 99.5669 25.898 100.191 25.658C100.827 25.406 101.577 25.28 102.441 25.28C103.089 25.28 103.743 25.352 104.403 25.496C105.063 25.64 105.609 25.844 106.041 26.108L105.177 27.818C104.721 27.542 104.259 27.356 103.791 27.26C103.335 27.152 102.879 27.098 102.423 27.098C101.739 27.098 101.229 27.2 100.893 27.404C100.569 27.608 100.407 27.866 100.407 28.178C100.407 28.466 100.515 28.682 100.731 28.826C100.947 28.97 101.229 29.084 101.577 29.168C101.925 29.252 102.309 29.324 102.729 29.384C103.161 29.432 103.587 29.51 104.007 29.618C104.427 29.726 104.811 29.876 105.159 30.068C105.519 30.248 105.807 30.506 106.023 30.842C106.239 31.178 106.347 31.616 106.347 32.156C106.347 32.756 106.167 33.278 105.807 33.722C105.459 34.166 104.961 34.514 104.313 34.766C103.665 35.006 102.891 35.126 101.991 35.126ZM113.475 35V22.4H118.659C119.775 22.4 120.729 22.58 121.521 22.94C122.325 23.3 122.943 23.816 123.375 24.488C123.807 25.16 124.023 25.958 124.023 26.882C124.023 27.806 123.807 28.604 123.375 29.276C122.943 29.948 122.325 30.464 121.521 30.824C120.729 31.184 119.775 31.364 118.659 31.364H114.771L115.815 30.266V35H113.475ZM115.815 30.518L114.771 29.384H118.551C119.583 29.384 120.357 29.168 120.873 28.736C121.401 28.292 121.665 27.674 121.665 26.882C121.665 26.078 121.401 25.46 120.873 25.028C120.357 24.596 119.583 24.38 118.551 24.38H114.771L115.815 23.228V30.518ZM130.627 35.126C129.559 35.126 128.623 34.916 127.819 34.496C127.027 34.064 126.409 33.476 125.965 32.732C125.533 31.988 125.317 31.142 125.317 30.194C125.317 29.234 125.527 28.388 125.947 27.656C126.379 26.912 126.967 26.33 127.711 25.91C128.467 25.49 129.325 25.28 130.285 25.28C131.221 25.28 132.055 25.484 132.787 25.892C133.519 26.3 134.095 26.876 134.515 27.62C134.935 28.364 135.145 29.24 135.145 30.248C135.145 30.344 135.139 30.452 135.127 30.572C135.127 30.692 135.121 30.806 135.109 30.914H127.099V29.42H133.921L133.039 29.888C133.051 29.336 132.937 28.85 132.697 28.43C132.457 28.01 132.127 27.68 131.707 27.44C131.299 27.2 130.825 27.08 130.285 27.08C129.733 27.08 129.247 27.2 128.827 27.44C128.419 27.68 128.095 28.016 127.855 28.448C127.627 28.868 127.513 29.366 127.513 29.942V30.302C127.513 30.878 127.645 31.388 127.909 31.832C128.173 32.276 128.545 32.618 129.025 32.858C129.505 33.098 130.057 33.218 130.681 33.218C131.221 33.218 131.707 33.134 132.139 32.966C132.571 32.798 132.955 32.534 133.291 32.174L134.497 33.56C134.065 34.064 133.519 34.454 132.859 34.73C132.211 34.994 131.467 35.126 130.627 35.126ZM137.306 35V25.388H139.448V28.034L139.196 27.26C139.484 26.612 139.934 26.12 140.546 25.784C141.17 25.448 141.944 25.28 142.868 25.28V27.422C142.772 27.398 142.682 27.386 142.598 27.386C142.514 27.374 142.43 27.368 142.346 27.368C141.494 27.368 140.816 27.62 140.312 28.124C139.808 28.616 139.556 29.354 139.556 30.338V35H137.306ZM145.171 35V24.848C145.171 23.84 145.465 23.036 146.053 22.436C146.653 21.824 147.505 21.518 148.609 21.518C149.005 21.518 149.377 21.56 149.725 21.644C150.085 21.728 150.385 21.86 150.625 22.04L150.013 23.732C149.845 23.6 149.653 23.504 149.437 23.444C149.221 23.372 148.999 23.336 148.771 23.336C148.303 23.336 147.949 23.468 147.709 23.732C147.469 23.984 147.349 24.368 147.349 24.884V25.964L147.421 26.972V35H145.171ZM143.587 27.26V25.46H149.995V27.26H143.587ZM155.689 35.126C154.705 35.126 153.829 34.916 153.061 34.496C152.293 34.064 151.687 33.476 151.243 32.732C150.799 31.988 150.577 31.142 150.577 30.194C150.577 29.234 150.799 28.388 151.243 27.656C151.687 26.912 152.293 26.33 153.061 25.91C153.829 25.49 154.705 25.28 155.689 25.28C156.685 25.28 157.567 25.49 158.335 25.91C159.115 26.33 159.721 26.906 160.153 27.638C160.597 28.37 160.819 29.222 160.819 30.194C160.819 31.142 160.597 31.988 160.153 32.732C159.721 33.476 159.115 34.064 158.335 34.496C157.567 34.916 156.685 35.126 155.689 35.126ZM155.689 33.2C156.241 33.2 156.733 33.08 157.165 32.84C157.597 32.6 157.933 32.252 158.173 31.796C158.425 31.34 158.551 30.806 158.551 30.194C158.551 29.57 158.425 29.036 158.173 28.592C157.933 28.136 157.597 27.788 157.165 27.548C156.733 27.308 156.247 27.188 155.707 27.188C155.155 27.188 154.663 27.308 154.231 27.548C153.811 27.788 153.475 28.136 153.223 28.592C152.971 29.036 152.845 29.57 152.845 30.194C152.845 30.806 152.971 31.34 153.223 31.796C153.475 32.252 153.811 32.6 154.231 32.84C154.663 33.08 155.149 33.2 155.689 33.2ZM162.97 35V25.388H165.112V28.034L164.86 27.26C165.148 26.612 165.598 26.12 166.21 25.784C166.834 25.448 167.608 25.28 168.532 25.28V27.422C168.436 27.398 168.346 27.386 168.262 27.386C168.178 27.374 168.094 27.368 168.01 27.368C167.158 27.368 166.48 27.62 165.976 28.124C165.472 28.616 165.22 29.354 165.22 30.338V35H162.97ZM182.573 25.28C183.341 25.28 184.019 25.43 184.607 25.73C185.207 26.03 185.675 26.492 186.011 27.116C186.347 27.728 186.515 28.52 186.515 29.492V35H184.265V29.78C184.265 28.928 184.079 28.292 183.707 27.872C183.335 27.452 182.801 27.242 182.105 27.242C181.613 27.242 181.175 27.35 180.791 27.566C180.419 27.782 180.125 28.1 179.909 28.52C179.705 28.94 179.603 29.474 179.603 30.122V35H177.353V29.78C177.353 28.928 177.167 28.292 176.795 27.872C176.423 27.452 175.889 27.242 175.193 27.242C174.701 27.242 174.263 27.35 173.879 27.566C173.507 27.782 173.213 28.1 172.997 28.52C172.793 28.94 172.691 29.474 172.691 30.122V35H170.441V25.388H172.583V27.944L172.205 27.188C172.529 26.564 172.997 26.09 173.609 25.766C174.233 25.442 174.941 25.28 175.733 25.28C176.633 25.28 177.413 25.502 178.073 25.946C178.745 26.39 179.189 27.062 179.405 27.962L178.523 27.656C178.835 26.936 179.351 26.36 180.071 25.928C180.791 25.496 181.625 25.28 182.573 25.28ZM195.312 35V33.056L195.186 32.642V29.24C195.186 28.58 194.988 28.07 194.592 27.71C194.196 27.338 193.596 27.152 192.792 27.152C192.252 27.152 191.718 27.236 191.19 27.404C190.674 27.572 190.236 27.806 189.876 28.106L188.994 26.468C189.51 26.072 190.122 25.778 190.83 25.586C191.55 25.382 192.294 25.28 193.062 25.28C194.454 25.28 195.528 25.616 196.284 26.288C197.052 26.948 197.436 27.974 197.436 29.366V35H195.312ZM192.288 35.126C191.568 35.126 190.938 35.006 190.398 34.766C189.858 34.514 189.438 34.172 189.138 33.74C188.85 33.296 188.706 32.798 188.706 32.246C188.706 31.706 188.832 31.22 189.084 30.788C189.348 30.356 189.774 30.014 190.362 29.762C190.95 29.51 191.73 29.384 192.702 29.384H195.492V30.878H192.864C192.096 30.878 191.58 31.004 191.316 31.256C191.052 31.496 190.92 31.796 190.92 32.156C190.92 32.564 191.082 32.888 191.406 33.128C191.73 33.368 192.18 33.488 192.756 33.488C193.308 33.488 193.8 33.362 194.232 33.11C194.676 32.858 194.994 32.486 195.186 31.994L195.564 33.344C195.348 33.908 194.958 34.346 194.394 34.658C193.842 34.97 193.14 35.126 192.288 35.126ZM205.778 25.28C206.546 25.28 207.23 25.43 207.83 25.73C208.442 26.03 208.922 26.492 209.27 27.116C209.618 27.728 209.792 28.52 209.792 29.492V35H207.542V29.78C207.542 28.928 207.338 28.292 206.93 27.872C206.534 27.452 205.976 27.242 205.256 27.242C204.728 27.242 204.26 27.35 203.852 27.566C203.444 27.782 203.126 28.106 202.898 28.538C202.682 28.958 202.574 29.492 202.574 30.14V35H200.324V25.388H202.466V27.98L202.088 27.188C202.424 26.576 202.91 26.108 203.546 25.784C204.194 25.448 204.938 25.28 205.778 25.28ZM217.074 35.126C216.066 35.126 215.166 34.916 214.374 34.496C213.594 34.064 212.982 33.476 212.538 32.732C212.094 31.988 211.872 31.142 211.872 30.194C211.872 29.234 212.094 28.388 212.538 27.656C212.982 26.912 213.594 26.33 214.374 25.91C215.166 25.49 216.066 25.28 217.074 25.28C218.01 25.28 218.832 25.472 219.54 25.856C220.26 26.228 220.806 26.78 221.178 27.512L219.45 28.52C219.162 28.064 218.808 27.728 218.388 27.512C217.98 27.296 217.536 27.188 217.056 27.188C216.504 27.188 216.006 27.308 215.562 27.548C215.118 27.788 214.77 28.136 214.518 28.592C214.266 29.036 214.14 29.57 214.14 30.194C214.14 30.818 214.266 31.358 214.518 31.814C214.77 32.258 215.118 32.6 215.562 32.84C216.006 33.08 216.504 33.2 217.056 33.2C217.536 33.2 217.98 33.092 218.388 32.876C218.808 32.66 219.162 32.324 219.45 31.868L221.178 32.876C220.806 33.596 220.26 34.154 219.54 34.55C218.832 34.934 218.01 35.126 217.074 35.126ZM227.5 35.126C226.432 35.126 225.496 34.916 224.692 34.496C223.9 34.064 223.282 33.476 222.838 32.732C222.406 31.988 222.19 31.142 222.19 30.194C222.19 29.234 222.4 28.388 222.82 27.656C223.252 26.912 223.84 26.33 224.584 25.91C225.34 25.49 226.198 25.28 227.158 25.28C228.094 25.28 228.928 25.484 229.66 25.892C230.392 26.3 230.968 26.876 231.388 27.62C231.808 28.364 232.018 29.24 232.018 30.248C232.018 30.344 232.012 30.452 232 30.572C232 30.692 231.994 30.806 231.982 30.914H223.972V29.42H230.794L229.912 29.888C229.924 29.336 229.81 28.85 229.57 28.43C229.33 28.01 229 27.68 228.58 27.44C228.172 27.2 227.698 27.08 227.158 27.08C226.606 27.08 226.12 27.2 225.7 27.44C225.292 27.68 224.968 28.016 224.728 28.448C224.5 28.868 224.386 29.366 224.386 29.942V30.302C224.386 30.878 224.518 31.388 224.782 31.832C225.046 32.276 225.418 32.618 225.898 32.858C226.378 33.098 226.93 33.218 227.554 33.218C228.094 33.218 228.58 33.134 229.012 32.966C229.444 32.798 229.828 32.534 230.164 32.174L231.37 33.56C230.938 34.064 230.392 34.454 229.732 34.73C229.084 34.994 228.34 35.126 227.5 35.126Z" fill="#171717"/> -->
<rect x="202" y="382" width="15" height="15" rx="2" fill="#6461E5"/>
<path d="M232.039 395H230.72L228.02 390.598L225.278 395H224.041L227.37 389.791L224.273 385.006H225.565L228.061 388.991L230.569 385.006H231.8L228.71 389.771L232.039 395ZM236.291 391.165C236.291 390.395 236.364 389.645 236.51 388.916C236.66 388.187 236.888 387.492 237.193 386.831C237.499 386.17 237.884 385.562 238.349 385.006H239.436C238.775 385.872 238.278 386.833 237.945 387.891C237.613 388.948 237.446 390.035 237.446 391.151C237.446 391.881 237.519 392.601 237.665 393.312C237.815 394.018 238.036 394.699 238.328 395.355C238.624 396.012 238.989 396.632 239.422 397.215H238.349C237.884 396.668 237.499 396.071 237.193 395.424C236.888 394.781 236.66 394.1 236.51 393.38C236.364 392.66 236.291 391.922 236.291 391.165ZM244.296 395H243.127V386.031H239.982V385.006H247.427V386.031H244.296V395ZM254.864 394.986L253.531 390.625C253.472 390.438 253.415 390.256 253.36 390.078C253.31 389.896 253.262 389.723 253.217 389.559C253.176 389.39 253.137 389.235 253.101 389.094C253.069 388.948 253.041 388.823 253.019 388.718H252.971C252.952 388.823 252.927 388.948 252.896 389.094C252.864 389.235 252.825 389.39 252.779 389.559C252.738 389.727 252.693 389.905 252.643 390.092C252.592 390.274 252.535 390.459 252.472 390.646L251.077 394.986H249.799L247.734 387.494H248.91L249.99 391.63C250.063 391.903 250.132 392.174 250.195 392.443C250.264 392.708 250.321 392.958 250.366 393.195C250.416 393.428 250.453 393.631 250.476 393.804H250.53C250.558 393.69 250.587 393.553 250.619 393.394C250.656 393.234 250.694 393.065 250.735 392.888C250.781 392.705 250.829 392.525 250.879 392.348C250.929 392.165 250.979 391.994 251.029 391.835L252.41 387.494H253.634L254.967 391.828C255.035 392.047 255.101 392.275 255.165 392.512C255.233 392.749 255.295 392.979 255.35 393.202C255.404 393.421 255.443 393.617 255.466 393.79H255.521C255.539 393.635 255.573 393.444 255.623 393.216C255.673 392.988 255.73 392.737 255.794 392.464C255.862 392.19 255.933 391.912 256.006 391.63L257.1 387.494H258.255L256.184 394.986H254.864ZM260.757 387.508V395H259.622V387.508H260.757ZM260.203 384.705C260.39 384.705 260.549 384.767 260.682 384.89C260.818 385.008 260.887 385.195 260.887 385.45C260.887 385.701 260.818 385.888 260.682 386.011C260.549 386.134 260.39 386.195 260.203 386.195C260.007 386.195 259.843 386.134 259.711 386.011C259.583 385.888 259.52 385.701 259.52 385.45C259.52 385.195 259.583 385.008 259.711 384.89C259.843 384.767 260.007 384.705 260.203 384.705ZM265.583 394.207C265.77 394.207 265.961 394.191 266.157 394.159C266.353 394.127 266.513 394.089 266.636 394.043V394.925C266.504 394.984 266.319 395.034 266.082 395.075C265.85 395.116 265.622 395.137 265.398 395.137C265.002 395.137 264.642 395.068 264.318 394.932C263.995 394.79 263.735 394.553 263.539 394.221C263.348 393.888 263.252 393.428 263.252 392.84V388.396H262.186V387.843L263.259 387.398L263.71 385.771H264.394V387.508H266.588V388.396H264.394V392.806C264.394 393.275 264.501 393.626 264.715 393.858C264.934 394.091 265.223 394.207 265.583 394.207ZM270.573 394.207C270.76 394.207 270.951 394.191 271.147 394.159C271.343 394.127 271.503 394.089 271.626 394.043V394.925C271.494 394.984 271.309 395.034 271.072 395.075C270.84 395.116 270.612 395.137 270.389 395.137C269.992 395.137 269.632 395.068 269.309 394.932C268.985 394.79 268.725 394.553 268.529 394.221C268.338 393.888 268.242 393.428 268.242 392.84V388.396H267.176V387.843L268.249 387.398L268.7 385.771H269.384V387.508H271.578V388.396H269.384V392.806C269.384 393.275 269.491 393.626 269.705 393.858C269.924 394.091 270.213 394.207 270.573 394.207ZM276.028 387.371C276.666 387.371 277.213 387.512 277.669 387.795C278.125 388.077 278.473 388.474 278.715 388.984C278.956 389.49 279.077 390.083 279.077 390.762V391.466H273.902C273.916 392.345 274.135 393.015 274.559 393.476C274.982 393.936 275.579 394.166 276.35 394.166C276.824 394.166 277.243 394.123 277.607 394.036C277.972 393.95 278.35 393.822 278.742 393.653V394.651C278.364 394.82 277.988 394.943 277.614 395.021C277.245 395.098 276.808 395.137 276.302 395.137C275.582 395.137 274.953 394.991 274.415 394.699C273.882 394.403 273.467 393.97 273.171 393.4C272.875 392.831 272.727 392.133 272.727 391.309C272.727 390.502 272.861 389.805 273.13 389.217C273.403 388.624 273.786 388.169 274.278 387.85C274.775 387.531 275.358 387.371 276.028 387.371ZM276.015 388.301C275.409 388.301 274.925 388.499 274.565 388.896C274.205 389.292 273.991 389.846 273.923 390.557H277.888C277.883 390.11 277.812 389.718 277.676 389.381C277.544 389.039 277.341 388.775 277.067 388.588C276.794 388.396 276.443 388.301 276.015 388.301ZM284.409 387.371C284.56 387.371 284.717 387.38 284.881 387.398C285.045 387.412 285.191 387.433 285.318 387.46L285.175 388.513C285.052 388.481 284.915 388.456 284.765 388.438C284.614 388.419 284.473 388.41 284.341 388.41C284.04 388.41 283.755 388.472 283.486 388.595C283.222 388.713 282.99 388.886 282.789 389.114C282.589 389.338 282.431 389.609 282.317 389.928C282.203 390.242 282.146 390.593 282.146 390.98V395H281.005V387.508H281.948L282.071 388.889H282.119C282.274 388.611 282.461 388.358 282.68 388.13C282.898 387.897 283.151 387.713 283.438 387.576C283.73 387.439 284.054 387.371 284.409 387.371ZM289.105 391.151C289.105 391.912 289.03 392.655 288.88 393.38C288.734 394.1 288.508 394.784 288.203 395.431C287.902 396.078 287.517 396.673 287.048 397.215H285.975C286.412 396.636 286.777 396.016 287.068 395.355C287.365 394.695 287.586 394.011 287.731 393.305C287.882 392.594 287.957 391.874 287.957 391.145C287.957 390.402 287.882 389.67 287.731 388.95C287.581 388.23 287.358 387.537 287.062 386.872C286.77 386.207 286.403 385.585 285.961 385.006H287.048C287.517 385.566 287.902 386.177 288.203 386.838C288.508 387.494 288.734 388.187 288.88 388.916C289.03 389.641 289.105 390.386 289.105 391.151Z" fill="#171717"/>
<rect x="310" y="382" width="15" height="15" rx="2" fill="#59CBFC"/>
<path d="M336.067 385.006C336.888 385.006 337.564 385.108 338.098 385.313C338.635 385.514 339.036 385.822 339.301 386.236C339.565 386.651 339.697 387.18 339.697 387.822C339.697 388.351 339.602 388.793 339.41 389.148C339.219 389.499 338.968 389.784 338.658 390.003C338.348 390.222 338.018 390.39 337.667 390.509L340.408 395H339.055L336.607 390.83H334.529V395H333.367V385.006H336.067ZM335.999 386.011H334.529V389.846H336.115C336.931 389.846 337.53 389.679 337.913 389.347C338.3 389.014 338.494 388.524 338.494 387.877C338.494 387.198 338.289 386.717 337.879 386.435C337.473 386.152 336.847 386.011 335.999 386.011ZM344.722 387.371C345.36 387.371 345.907 387.512 346.362 387.795C346.818 388.077 347.167 388.474 347.408 388.984C347.65 389.49 347.771 390.083 347.771 390.762V391.466H342.596C342.609 392.345 342.828 393.015 343.252 393.476C343.676 393.936 344.273 394.166 345.043 394.166C345.517 394.166 345.936 394.123 346.301 394.036C346.665 393.95 347.044 393.822 347.436 393.653V394.651C347.057 394.82 346.681 394.943 346.308 395.021C345.938 395.098 345.501 395.137 344.995 395.137C344.275 395.137 343.646 394.991 343.108 394.699C342.575 394.403 342.16 393.97 341.864 393.4C341.568 392.831 341.42 392.133 341.42 391.309C341.42 390.502 341.554 389.805 341.823 389.217C342.097 388.624 342.479 388.169 342.972 387.85C343.468 387.531 344.052 387.371 344.722 387.371ZM344.708 388.301C344.102 388.301 343.619 388.499 343.259 388.896C342.899 389.292 342.685 389.846 342.616 390.557H346.581C346.576 390.11 346.506 389.718 346.369 389.381C346.237 389.039 346.034 388.775 345.761 388.588C345.487 388.396 345.136 388.301 344.708 388.301ZM352.364 395.137C351.416 395.137 350.664 394.813 350.108 394.166C349.557 393.519 349.281 392.557 349.281 391.281C349.281 389.992 349.564 389.019 350.129 388.362C350.694 387.701 351.446 387.371 352.385 387.371C352.781 387.371 353.128 387.424 353.424 387.528C353.72 387.633 353.975 387.774 354.189 387.952C354.404 388.125 354.584 388.324 354.729 388.547H354.812C354.793 388.406 354.775 388.212 354.757 387.966C354.739 387.72 354.729 387.519 354.729 387.364V384.363H355.864V395H354.948L354.777 393.934H354.729C354.588 394.157 354.408 394.36 354.189 394.542C353.975 394.724 353.718 394.87 353.417 394.979C353.121 395.084 352.77 395.137 352.364 395.137ZM352.542 394.193C353.344 394.193 353.911 393.965 354.244 393.51C354.577 393.054 354.743 392.377 354.743 391.479V391.274C354.743 390.322 354.584 389.59 354.265 389.08C353.95 388.57 353.376 388.314 352.542 388.314C351.845 388.314 351.323 388.583 350.977 389.121C350.63 389.654 350.457 390.383 350.457 391.309C350.457 392.229 350.628 392.94 350.97 393.441C351.316 393.943 351.84 394.193 352.542 394.193ZM360.937 395.137C359.989 395.137 359.237 394.813 358.681 394.166C358.129 393.519 357.854 392.557 357.854 391.281C357.854 389.992 358.136 389.019 358.701 388.362C359.266 387.701 360.018 387.371 360.957 387.371C361.354 387.371 361.7 387.424 361.996 387.528C362.292 387.633 362.548 387.774 362.762 387.952C362.976 388.125 363.156 388.324 363.302 388.547H363.384C363.366 388.406 363.347 388.212 363.329 387.966C363.311 387.72 363.302 387.519 363.302 387.364V384.363H364.437V395H363.521L363.35 393.934H363.302C363.16 394.157 362.98 394.36 362.762 394.542C362.548 394.724 362.29 394.87 361.989 394.979C361.693 395.084 361.342 395.137 360.937 395.137ZM361.114 394.193C361.916 394.193 362.484 393.965 362.816 393.51C363.149 393.054 363.315 392.377 363.315 391.479V391.274C363.315 390.322 363.156 389.59 362.837 389.08C362.522 388.57 361.948 388.314 361.114 388.314C360.417 388.314 359.895 388.583 359.549 389.121C359.202 389.654 359.029 390.383 359.029 391.309C359.029 392.229 359.2 392.94 359.542 393.441C359.888 393.943 360.412 394.193 361.114 394.193ZM367.978 387.508V395H366.843V387.508H367.978ZM367.424 384.705C367.611 384.705 367.77 384.767 367.902 384.89C368.039 385.008 368.107 385.195 368.107 385.45C368.107 385.701 368.039 385.888 367.902 386.011C367.77 386.134 367.611 386.195 367.424 386.195C367.228 386.195 367.064 386.134 366.932 386.011C366.804 385.888 366.74 385.701 366.74 385.45C366.74 385.195 366.804 385.008 366.932 384.89C367.064 384.767 367.228 384.705 367.424 384.705ZM372.804 394.207C372.991 394.207 373.182 394.191 373.378 394.159C373.574 394.127 373.733 394.089 373.856 394.043V394.925C373.724 394.984 373.54 395.034 373.303 395.075C373.07 395.116 372.842 395.137 372.619 395.137C372.223 395.137 371.863 395.068 371.539 394.932C371.215 394.79 370.956 394.553 370.76 394.221C370.568 393.888 370.473 393.428 370.473 392.84V388.396H369.406V387.843L370.479 387.398L370.931 385.771H371.614V387.508H373.809V388.396H371.614V392.806C371.614 393.275 371.721 393.626 371.936 393.858C372.154 394.091 372.444 394.207 372.804 394.207Z" fill="#171717"/>
<line x1="59" y1="104.5" x2="555" y2="104.5" stroke="#EEEEEE"/>
<path d="M20.915 110H19.8076V102.918C19.8076 102.649 19.8076 102.419 19.8076 102.228C19.8122 102.032 19.8167 101.854 19.8213 101.694C19.8304 101.53 19.8418 101.364 19.8555 101.195C19.7142 101.341 19.582 101.466 19.459 101.571C19.3359 101.672 19.1833 101.797 19.001 101.947L17.8594 102.863L17.2646 102.091L19.9717 100.006H20.915V110ZM31.3057 104.989C31.3057 105.8 31.2441 106.525 31.1211 107.163C30.998 107.801 30.8044 108.341 30.54 108.783C30.2757 109.225 29.9339 109.562 29.5146 109.795C29.0954 110.023 28.5918 110.137 28.0039 110.137C27.2611 110.137 26.6458 109.934 26.1582 109.528C25.6751 109.123 25.3128 108.537 25.0713 107.771C24.8343 107.001 24.7158 106.074 24.7158 104.989C24.7158 103.923 24.8229 103.007 25.0371 102.241C25.2559 101.471 25.6068 100.881 26.0898 100.471C26.5729 100.056 27.2109 99.8486 28.0039 99.8486C28.7559 99.8486 29.3757 100.054 29.8633 100.464C30.3509 100.869 30.7132 101.457 30.9502 102.228C31.1872 102.993 31.3057 103.914 31.3057 104.989ZM25.8574 104.989C25.8574 105.919 25.9281 106.694 26.0693 107.313C26.2106 107.933 26.4385 108.398 26.7529 108.708C27.0719 109.013 27.4889 109.166 28.0039 109.166C28.5189 109.166 28.9336 109.013 29.248 108.708C29.5671 108.403 29.7972 107.94 29.9385 107.32C30.0843 106.701 30.1572 105.924 30.1572 104.989C30.1572 104.073 30.0866 103.308 29.9453 102.692C29.804 102.073 29.5762 101.608 29.2617 101.298C28.9473 100.983 28.528 100.826 28.0039 100.826C27.4798 100.826 27.0605 100.983 26.7461 101.298C26.4316 101.608 26.2038 102.073 26.0625 102.692C25.9258 103.308 25.8574 104.073 25.8574 104.989ZM39.3174 104.989C39.3174 105.8 39.2559 106.525 39.1328 107.163C39.0098 107.801 38.8161 108.341 38.5518 108.783C38.2874 109.225 37.9456 109.562 37.5264 109.795C37.1071 110.023 36.6035 110.137 36.0156 110.137C35.2728 110.137 34.6576 109.934 34.1699 109.528C33.6868 109.123 33.3245 108.537 33.083 107.771C32.846 107.001 32.7275 106.074 32.7275 104.989C32.7275 103.923 32.8346 103.007 33.0488 102.241C33.2676 101.471 33.6185 100.881 34.1016 100.471C34.5846 100.056 35.2227 99.8486 36.0156 99.8486C36.7676 99.8486 37.3874 100.054 37.875 100.464C38.3626 100.869 38.7249 101.457 38.9619 102.228C39.1989 102.993 39.3174 103.914 39.3174 104.989ZM33.8691 104.989C33.8691 105.919 33.9398 106.694 34.0811 107.313C34.2223 107.933 34.4502 108.398 34.7646 108.708C35.0837 109.013 35.5007 109.166 36.0156 109.166C36.5306 109.166 36.9453 109.013 37.2598 108.708C37.5788 108.403 37.8089 107.94 37.9502 107.32C38.096 106.701 38.1689 105.924 38.1689 104.989C38.1689 104.073 38.0983 103.308 37.957 102.692C37.8158 102.073 37.5879 101.608 37.2734 101.298C36.959 100.983 36.5397 100.826 36.0156 100.826C35.4915 100.826 35.0723 100.983 34.7578 101.298C34.4434 101.608 34.2155 102.073 34.0742 102.692C33.9375 103.308 33.8691 104.073 33.8691 104.989ZM47.3291 104.989C47.3291 105.8 47.2676 106.525 47.1445 107.163C47.0215 107.801 46.8278 108.341 46.5635 108.783C46.2992 109.225 45.9574 109.562 45.5381 109.795C45.1188 110.023 44.6152 110.137 44.0273 110.137C43.2845 110.137 42.6693 109.934 42.1816 109.528C41.6986 109.123 41.3363 108.537 41.0947 107.771C40.8577 107.001 40.7393 106.074 40.7393 104.989C40.7393 103.923 40.8464 103.007 41.0605 102.241C41.2793 101.471 41.6302 100.881 42.1133 100.471C42.5964 100.056 43.2344 99.8486 44.0273 99.8486C44.7793 99.8486 45.3991 100.054 45.8867 100.464C46.3743 100.869 46.7367 101.457 46.9736 102.228C47.2106 102.993 47.3291 103.914 47.3291 104.989ZM41.8809 104.989C41.8809 105.919 41.9515 106.694 42.0928 107.313C42.234 107.933 42.4619 108.398 42.7764 108.708C43.0954 109.013 43.5124 109.166 44.0273 109.166C44.5423 109.166 44.957 109.013 45.2715 108.708C45.5905 108.403 45.8206 107.94 45.9619 107.32C46.1077 106.701 46.1807 105.924 46.1807 104.989C46.1807 104.073 46.11 103.308 45.9688 102.692C45.8275 102.073 45.5996 101.608 45.2852 101.298C44.9707 100.983 44.5514 100.826 44.0273 100.826C43.5033 100.826 43.084 100.983 42.7695 101.298C42.4551 101.608 42.2272 102.073 42.0859 102.692C41.9492 103.308 41.8809 104.073 41.8809 104.989Z" fill="#909090"/>
<line x1="59" y1="150.102" x2="555" y2="150.102" stroke="#EEEEEE"/>
<path d="M19.9922 145.464C20.571 145.464 21.0837 145.555 21.5303 145.737C21.9769 145.92 22.3255 146.188 22.5762 146.544C22.8314 146.895 22.959 147.328 22.959 147.843C22.959 148.248 22.8701 148.604 22.6924 148.909C22.5192 149.21 22.2845 149.474 21.9883 149.702C21.6921 149.925 21.3639 150.126 21.0039 150.304C21.4323 150.5 21.8174 150.721 22.1592 150.967C22.5055 151.213 22.779 151.502 22.9795 151.835C23.18 152.168 23.2803 152.562 23.2803 153.018C23.2803 153.578 23.1436 154.063 22.8701 154.474C22.6012 154.879 22.223 155.191 21.7354 155.41C21.2477 155.629 20.6758 155.738 20.0195 155.738C19.3132 155.738 18.7116 155.633 18.2148 155.424C17.7227 155.21 17.3467 154.904 17.0869 154.508C16.8317 154.107 16.7041 153.626 16.7041 153.065C16.7041 152.605 16.8021 152.206 16.998 151.869C17.194 151.527 17.4538 151.233 17.7773 150.987C18.1009 150.741 18.4541 150.534 18.8369 150.365C18.5042 150.183 18.1989 149.976 17.9209 149.743C17.6475 149.511 17.4287 149.24 17.2646 148.93C17.1051 148.615 17.0254 148.251 17.0254 147.836C17.0254 147.33 17.153 146.902 17.4082 146.551C17.668 146.195 18.0212 145.926 18.4678 145.744C18.9189 145.557 19.4271 145.464 19.9922 145.464ZM17.8184 153.072C17.8184 153.583 17.9984 154.004 18.3584 154.337C18.7184 154.665 19.263 154.829 19.9922 154.829C20.6849 154.829 21.2204 154.665 21.5986 154.337C21.9769 154.004 22.166 153.569 22.166 153.031C22.166 152.699 22.0794 152.407 21.9062 152.156C21.7331 151.901 21.487 151.673 21.168 151.473C20.849 151.272 20.473 151.09 20.04 150.926L19.7939 150.837C19.3747 151.01 19.0169 151.204 18.7207 151.418C18.429 151.628 18.2057 151.867 18.0508 152.136C17.8958 152.405 17.8184 152.717 17.8184 153.072ZM19.9785 146.394C19.4408 146.394 19.001 146.523 18.6592 146.783C18.3174 147.038 18.1465 147.408 18.1465 147.891C18.1465 148.237 18.2285 148.531 18.3926 148.772C18.5612 149.009 18.7891 149.215 19.0762 149.388C19.3633 149.556 19.6846 149.714 20.04 149.859C20.3864 149.714 20.694 149.554 20.9629 149.381C21.2318 149.203 21.4437 148.993 21.5986 148.752C21.7536 148.51 21.8311 148.221 21.8311 147.884C21.8311 147.401 21.6602 147.032 21.3184 146.776C20.9811 146.521 20.5345 146.394 19.9785 146.394ZM31.3057 150.591C31.3057 151.402 31.2441 152.127 31.1211 152.765C30.998 153.403 30.8044 153.943 30.54 154.385C30.2757 154.827 29.9339 155.164 29.5146 155.396C29.0954 155.624 28.5918 155.738 28.0039 155.738C27.2611 155.738 26.6458 155.535 26.1582 155.13C25.6751 154.724 25.3128 154.139 25.0713 153.373C24.8343 152.603 24.7158 151.675 24.7158 150.591C24.7158 149.524 24.8229 148.608 25.0371 147.843C25.2559 147.073 25.6068 146.482 26.0898 146.072C26.5729 145.658 27.2109 145.45 28.0039 145.45C28.7559 145.45 29.3757 145.655 29.8633 146.065C30.3509 146.471 30.7132 147.059 30.9502 147.829C31.1872 148.595 31.3057 149.515 31.3057 150.591ZM25.8574 150.591C25.8574 151.521 25.9281 152.295 26.0693 152.915C26.2106 153.535 26.4385 154 26.7529 154.31C27.0719 154.615 27.4889 154.768 28.0039 154.768C28.5189 154.768 28.9336 154.615 29.248 154.31C29.5671 154.004 29.7972 153.542 29.9385 152.922C30.0843 152.302 30.1572 151.525 30.1572 150.591C30.1572 149.675 30.0866 148.909 29.9453 148.294C29.804 147.674 29.5762 147.209 29.2617 146.899C28.9473 146.585 28.528 146.428 28.0039 146.428C27.4798 146.428 27.0605 146.585 26.7461 146.899C26.4316 147.209 26.2038 147.674 26.0625 148.294C25.9258 148.909 25.8574 149.675 25.8574 150.591ZM39.3174 150.591C39.3174 151.402 39.2559 152.127 39.1328 152.765C39.0098 153.403 38.8161 153.943 38.5518 154.385C38.2874 154.827 37.9456 155.164 37.5264 155.396C37.1071 155.624 36.6035 155.738 36.0156 155.738C35.2728 155.738 34.6576 155.535 34.1699 155.13C33.6868 154.724 33.3245 154.139 33.083 153.373C32.846 152.603 32.7275 151.675 32.7275 150.591C32.7275 149.524 32.8346 148.608 33.0488 147.843C33.2676 147.073 33.6185 146.482 34.1016 146.072C34.5846 145.658 35.2227 145.45 36.0156 145.45C36.7676 145.45 37.3874 145.655 37.875 146.065C38.3626 146.471 38.7249 147.059 38.9619 147.829C39.1989 148.595 39.3174 149.515 39.3174 150.591ZM33.8691 150.591C33.8691 151.521 33.9398 152.295 34.0811 152.915C34.2223 153.535 34.4502 154 34.7646 154.31C35.0837 154.615 35.5007 154.768 36.0156 154.768C36.5306 154.768 36.9453 154.615 37.2598 154.31C37.5788 154.004 37.8089 153.542 37.9502 152.922C38.096 152.302 38.1689 151.525 38.1689 150.591C38.1689 149.675 38.0983 148.909 37.957 148.294C37.8158 147.674 37.5879 147.209 37.2734 146.899C36.959 146.585 36.5397 146.428 36.0156 146.428C35.4915 146.428 35.0723 146.585 34.7578 146.899C34.4434 147.209 34.2155 147.674 34.0742 148.294C33.9375 148.909 33.8691 149.675 33.8691 150.591Z" fill="#909090"/>
<line x1="59" y1="195.699" x2="555" y2="195.699" stroke="#EEEEEE"/>
<path d="M16.793 196.927C16.793 196.325 16.834 195.737 16.916 195.163C17.0026 194.589 17.1462 194.056 17.3467 193.563C17.5472 193.067 17.8206 192.632 18.167 192.258C18.5133 191.884 18.944 191.592 19.459 191.383C19.9785 191.169 20.6006 191.062 21.3252 191.062C21.5303 191.062 21.7513 191.073 21.9883 191.096C22.2253 191.114 22.4212 191.146 22.5762 191.191V192.169C22.4076 192.11 22.2139 192.066 21.9951 192.039C21.7809 192.012 21.5645 191.998 21.3457 191.998C20.498 191.998 19.8304 192.183 19.3428 192.552C18.8597 192.921 18.5111 193.422 18.2969 194.056C18.0827 194.685 17.9596 195.393 17.9277 196.182H18.0029C18.1442 195.954 18.3242 195.749 18.543 195.566C18.7617 195.38 19.026 195.231 19.3359 195.122C19.6504 195.013 20.015 194.958 20.4297 194.958C21.013 194.958 21.5212 195.076 21.9541 195.313C22.3916 195.55 22.7288 195.895 22.9658 196.346C23.2074 196.797 23.3281 197.344 23.3281 197.986C23.3281 198.674 23.2005 199.269 22.9453 199.771C22.6901 200.272 22.3255 200.659 21.8516 200.933C21.3822 201.201 20.8216 201.336 20.1699 201.336C19.6823 201.336 19.2334 201.243 18.8232 201.056C18.4131 200.869 18.0553 200.591 17.75 200.222C17.4492 199.853 17.2145 199.395 17.0459 198.848C16.8773 198.296 16.793 197.656 16.793 196.927ZM20.1562 200.379C20.776 200.379 21.2728 200.181 21.6465 199.784C22.0202 199.388 22.207 198.788 22.207 197.986C22.207 197.33 22.0407 196.811 21.708 196.428C21.3753 196.045 20.874 195.854 20.2041 195.854C19.7484 195.854 19.3519 195.949 19.0146 196.141C18.6774 196.327 18.4154 196.564 18.2285 196.852C18.0417 197.139 17.9482 197.43 17.9482 197.727C17.9482 198.027 17.9915 198.333 18.0781 198.643C18.1693 198.952 18.306 199.24 18.4883 199.504C18.6706 199.768 18.9007 199.98 19.1787 200.14C19.4567 200.299 19.7826 200.379 20.1562 200.379ZM31.3057 196.188C31.3057 197 31.2441 197.724 31.1211 198.362C30.998 199 30.8044 199.54 30.54 199.982C30.2757 200.424 29.9339 200.762 29.5146 200.994C29.0954 201.222 28.5918 201.336 28.0039 201.336C27.2611 201.336 26.6458 201.133 26.1582 200.728C25.6751 200.322 25.3128 199.736 25.0713 198.971C24.8343 198.201 24.7158 197.273 24.7158 196.188C24.7158 195.122 24.8229 194.206 25.0371 193.44C25.2559 192.67 25.6068 192.08 26.0898 191.67C26.5729 191.255 27.2109 191.048 28.0039 191.048C28.7559 191.048 29.3757 191.253 29.8633 191.663C30.3509 192.069 30.7132 192.657 30.9502 193.427C31.1872 194.192 31.3057 195.113 31.3057 196.188ZM25.8574 196.188C25.8574 197.118 25.9281 197.893 26.0693 198.513C26.2106 199.132 26.4385 199.597 26.7529 199.907C27.0719 200.213 27.4889 200.365 28.0039 200.365C28.5189 200.365 28.9336 200.213 29.248 199.907C29.5671 199.602 29.7972 199.139 29.9385 198.52C30.0843 197.9 30.1572 197.123 30.1572 196.188C30.1572 195.272 30.0866 194.507 29.9453 193.892C29.804 193.272 29.5762 192.807 29.2617 192.497C28.9473 192.183 28.528 192.025 28.0039 192.025C27.4798 192.025 27.0605 192.183 26.7461 192.497C26.4316 192.807 26.2038 193.272 26.0625 193.892C25.9258 194.507 25.8574 195.272 25.8574 196.188ZM39.3174 196.188C39.3174 197 39.2559 197.724 39.1328 198.362C39.0098 199 38.8161 199.54 38.5518 199.982C38.2874 200.424 37.9456 200.762 37.5264 200.994C37.1071 201.222 36.6035 201.336 36.0156 201.336C35.2728 201.336 34.6576 201.133 34.1699 200.728C33.6868 200.322 33.3245 199.736 33.083 198.971C32.846 198.201 32.7275 197.273 32.7275 196.188C32.7275 195.122 32.8346 194.206 33.0488 193.44C33.2676 192.67 33.6185 192.08 34.1016 191.67C34.5846 191.255 35.2227 191.048 36.0156 191.048C36.7676 191.048 37.3874 191.253 37.875 191.663C38.3626 192.069 38.7249 192.657 38.9619 193.427C39.1989 194.192 39.3174 195.113 39.3174 196.188ZM33.8691 196.188C33.8691 197.118 33.9398 197.893 34.0811 198.513C34.2223 199.132 34.4502 199.597 34.7646 199.907C35.0837 200.213 35.5007 200.365 36.0156 200.365C36.5306 200.365 36.9453 200.213 37.2598 199.907C37.5788 199.602 37.8089 199.139 37.9502 198.52C38.096 197.9 38.1689 197.123 38.1689 196.188C38.1689 195.272 38.0983 194.507 37.957 193.892C37.8158 193.272 37.5879 192.807 37.2734 192.497C36.959 192.183 36.5397 192.025 36.0156 192.025C35.4915 192.025 35.0723 192.183 34.7578 192.497C34.4434 192.807 34.2155 193.272 34.0742 193.892C33.9375 194.507 33.8691 195.272 33.8691 196.188Z" fill="#909090"/>
<line x1="59" y1="241.301" x2="555" y2="241.301" stroke="#EEEEEE"/>
<path d="M23.7383 244.483H22.2412V246.801H21.1338V244.483H16.3008V243.526L21.0586 236.752H22.2412V243.458H23.7383V244.483ZM21.1338 243.458V240.19C21.1338 239.94 21.1361 239.714 21.1406 239.514C21.1452 239.309 21.152 239.119 21.1611 238.946C21.1702 238.769 21.1771 238.6 21.1816 238.44C21.1908 238.281 21.1976 238.124 21.2021 237.969H21.1475C21.0609 238.151 20.9606 238.345 20.8467 238.55C20.7373 238.75 20.6257 238.93 20.5117 239.09L17.4287 243.458H21.1338ZM31.3057 241.79C31.3057 242.601 31.2441 243.326 31.1211 243.964C30.998 244.602 30.8044 245.142 30.54 245.584C30.2757 246.026 29.9339 246.363 29.5146 246.596C29.0954 246.824 28.5918 246.938 28.0039 246.938C27.2611 246.938 26.6458 246.735 26.1582 246.329C25.6751 245.924 25.3128 245.338 25.0713 244.572C24.8343 243.802 24.7158 242.875 24.7158 241.79C24.7158 240.724 24.8229 239.808 25.0371 239.042C25.2559 238.272 25.6068 237.682 26.0898 237.271C26.5729 236.857 27.2109 236.649 28.0039 236.649C28.7559 236.649 29.3757 236.854 29.8633 237.265C30.3509 237.67 30.7132 238.258 30.9502 239.028C31.1872 239.794 31.3057 240.715 31.3057 241.79ZM25.8574 241.79C25.8574 242.72 25.9281 243.494 26.0693 244.114C26.2106 244.734 26.4385 245.199 26.7529 245.509C27.0719 245.814 27.4889 245.967 28.0039 245.967C28.5189 245.967 28.9336 245.814 29.248 245.509C29.5671 245.203 29.7972 244.741 29.9385 244.121C30.0843 243.501 30.1572 242.724 30.1572 241.79C30.1572 240.874 30.0866 240.108 29.9453 239.493C29.804 238.873 29.5762 238.409 29.2617 238.099C28.9473 237.784 28.528 237.627 28.0039 237.627C27.4798 237.627 27.0605 237.784 26.7461 238.099C26.4316 238.409 26.2038 238.873 26.0625 239.493C25.9258 240.108 25.8574 240.874 25.8574 241.79ZM39.3174 241.79C39.3174 242.601 39.2559 243.326 39.1328 243.964C39.0098 244.602 38.8161 245.142 38.5518 245.584C38.2874 246.026 37.9456 246.363 37.5264 246.596C37.1071 246.824 36.6035 246.938 36.0156 246.938C35.2728 246.938 34.6576 246.735 34.1699 246.329C33.6868 245.924 33.3245 245.338 33.083 244.572C32.846 243.802 32.7275 242.875 32.7275 241.79C32.7275 240.724 32.8346 239.808 33.0488 239.042C33.2676 238.272 33.6185 237.682 34.1016 237.271C34.5846 236.857 35.2227 236.649 36.0156 236.649C36.7676 236.649 37.3874 236.854 37.875 237.265C38.3626 237.67 38.7249 238.258 38.9619 239.028C39.1989 239.794 39.3174 240.715 39.3174 241.79ZM33.8691 241.79C33.8691 242.72 33.9398 243.494 34.0811 244.114C34.2223 244.734 34.4502 245.199 34.7646 245.509C35.0837 245.814 35.5007 245.967 36.0156 245.967C36.5306 245.967 36.9453 245.814 37.2598 245.509C37.5788 245.203 37.8089 244.741 37.9502 244.121C38.096 243.501 38.1689 242.724 38.1689 241.79C38.1689 240.874 38.0983 240.108 37.957 239.493C37.8158 238.873 37.5879 238.409 37.2734 238.099C36.959 237.784 36.5397 237.627 36.0156 237.627C35.4915 237.627 35.0723 237.784 34.7578 238.099C34.4434 238.409 34.2155 238.873 34.0742 239.493C33.9375 240.108 33.8691 240.874 33.8691 241.79Z" fill="#909090"/>
<line x1="59" y1="286.898" x2="555" y2="286.898" stroke="#EEEEEE"/>
<path d="M23.2393 292.398H16.6904V291.448L19.3633 288.734C19.86 288.233 20.277 287.786 20.6143 287.395C20.9561 287.003 21.2158 286.618 21.3936 286.239C21.5713 285.856 21.6602 285.437 21.6602 284.981C21.6602 284.416 21.4915 283.986 21.1543 283.689C20.8216 283.389 20.3818 283.238 19.835 283.238C19.3564 283.238 18.9326 283.32 18.5635 283.484C18.1943 283.648 17.8161 283.881 17.4287 284.182L16.8203 283.416C17.0846 283.193 17.3717 282.994 17.6816 282.821C17.9961 282.648 18.3311 282.511 18.6865 282.411C19.0465 282.311 19.4294 282.261 19.835 282.261C20.4502 282.261 20.9811 282.368 21.4277 282.582C21.8743 282.796 22.2184 283.102 22.46 283.498C22.7061 283.895 22.8291 284.366 22.8291 284.913C22.8291 285.442 22.7243 285.934 22.5146 286.39C22.305 286.841 22.0111 287.29 21.6328 287.736C21.2546 288.178 20.8125 288.648 20.3066 289.145L18.1328 291.312V291.359H23.2393V292.398ZM31.3057 287.388C31.3057 288.199 31.2441 288.924 31.1211 289.562C30.998 290.2 30.8044 290.74 30.54 291.182C30.2757 291.624 29.9339 291.961 29.5146 292.193C29.0954 292.421 28.5918 292.535 28.0039 292.535C27.2611 292.535 26.6458 292.332 26.1582 291.927C25.6751 291.521 25.3128 290.936 25.0713 290.17C24.8343 289.4 24.7158 288.472 24.7158 287.388C24.7158 286.321 24.8229 285.405 25.0371 284.64C25.2559 283.869 25.6068 283.279 26.0898 282.869C26.5729 282.454 27.2109 282.247 28.0039 282.247C28.7559 282.247 29.3757 282.452 29.8633 282.862C30.3509 283.268 30.7132 283.856 30.9502 284.626C31.1872 285.392 31.3057 286.312 31.3057 287.388ZM25.8574 287.388C25.8574 288.317 25.9281 289.092 26.0693 289.712C26.2106 290.332 26.4385 290.797 26.7529 291.106C27.0719 291.412 27.4889 291.564 28.0039 291.564C28.5189 291.564 28.9336 291.412 29.248 291.106C29.5671 290.801 29.7972 290.339 29.9385 289.719C30.0843 289.099 30.1572 288.322 30.1572 287.388C30.1572 286.472 30.0866 285.706 29.9453 285.091C29.804 284.471 29.5762 284.006 29.2617 283.696C28.9473 283.382 28.528 283.225 28.0039 283.225C27.4798 283.225 27.0605 283.382 26.7461 283.696C26.4316 284.006 26.2038 284.471 26.0625 285.091C25.9258 285.706 25.8574 286.472 25.8574 287.388ZM39.3174 287.388C39.3174 288.199 39.2559 288.924 39.1328 289.562C39.0098 290.2 38.8161 290.74 38.5518 291.182C38.2874 291.624 37.9456 291.961 37.5264 292.193C37.1071 292.421 36.6035 292.535 36.0156 292.535C35.2728 292.535 34.6576 292.332 34.1699 291.927C33.6868 291.521 33.3245 290.936 33.083 290.17C32.846 289.4 32.7275 288.472 32.7275 287.388C32.7275 286.321 32.8346 285.405 33.0488 284.64C33.2676 283.869 33.6185 283.279 34.1016 282.869C34.5846 282.454 35.2227 282.247 36.0156 282.247C36.7676 282.247 37.3874 282.452 37.875 282.862C38.3626 283.268 38.7249 283.856 38.9619 284.626C39.1989 285.392 39.3174 286.312 39.3174 287.388ZM33.8691 287.388C33.8691 288.317 33.9398 289.092 34.0811 289.712C34.2223 290.332 34.4502 290.797 34.7646 291.106C35.0837 291.412 35.5007 291.564 36.0156 291.564C36.5306 291.564 36.9453 291.412 37.2598 291.106C37.5788 290.801 37.8089 290.339 37.9502 289.719C38.096 289.099 38.1689 288.322 38.1689 287.388C38.1689 286.472 38.0983 285.706 37.957 285.091C37.8158 284.471 37.5879 284.006 37.2734 283.696C36.959 283.382 36.5397 283.225 36.0156 283.225C35.4915 283.225 35.0723 283.382 34.7578 283.696C34.4434 284.006 34.2155 284.471 34.0742 285.091C33.9375 285.706 33.8691 286.472 33.8691 287.388Z" fill="#909090"/>
<line x1="59" y1="332.5" x2="555" y2="332.5" stroke="#EEEEEE"/>
<path d="M23.2939 332.989C23.2939 333.8 23.2324 334.525 23.1094 335.163C22.9863 335.801 22.7926 336.341 22.5283 336.783C22.264 337.225 21.9222 337.562 21.5029 337.795C21.0837 338.023 20.5801 338.137 19.9922 338.137C19.2493 338.137 18.6341 337.934 18.1465 337.528C17.6634 337.123 17.3011 336.537 17.0596 335.771C16.8226 335.001 16.7041 334.074 16.7041 332.989C16.7041 331.923 16.8112 331.007 17.0254 330.241C17.2441 329.471 17.5951 328.881 18.0781 328.471C18.5612 328.056 19.1992 327.849 19.9922 327.849C20.7441 327.849 21.3639 328.054 21.8516 328.464C22.3392 328.869 22.7015 329.457 22.9385 330.228C23.1755 330.993 23.2939 331.914 23.2939 332.989ZM17.8457 332.989C17.8457 333.919 17.9163 334.694 18.0576 335.313C18.1989 335.933 18.4268 336.398 18.7412 336.708C19.0602 337.013 19.4772 337.166 19.9922 337.166C20.5072 337.166 20.9219 337.013 21.2363 336.708C21.5553 336.403 21.7855 335.94 21.9268 335.32C22.0726 334.701 22.1455 333.924 22.1455 332.989C22.1455 332.073 22.0749 331.308 21.9336 330.692C21.7923 330.073 21.5645 329.608 21.25 329.298C20.9355 328.983 20.5163 328.826 19.9922 328.826C19.4681 328.826 19.0488 328.983 18.7344 329.298C18.4199 329.608 18.1921 330.073 18.0508 330.692C17.9141 331.308 17.8457 332.073 17.8457 332.989Z" fill="#909090"/>
<path d="M80.3672 350.006H83.1973C84.446 350.006 85.3848 350.193 86.0137 350.566C86.6426 350.94 86.957 351.576 86.957 352.474C86.957 352.861 86.8818 353.21 86.7314 353.52C86.5856 353.825 86.3714 354.078 86.0889 354.278C85.8063 354.479 85.4577 354.618 85.043 354.695V354.764C85.4805 354.832 85.8678 354.957 86.2051 355.14C86.5423 355.322 86.8066 355.577 86.998 355.905C87.1895 356.233 87.2852 356.65 87.2852 357.156C87.2852 357.771 87.1416 358.291 86.8545 358.715C86.5719 359.139 86.1709 359.46 85.6514 359.679C85.1318 359.893 84.5166 360 83.8057 360H80.3672V350.006ZM81.5293 354.292H83.4434C84.3138 354.292 84.9154 354.148 85.248 353.861C85.5853 353.574 85.7539 353.155 85.7539 352.604C85.7539 352.034 85.5534 351.624 85.1523 351.373C84.7559 351.122 84.1224 350.997 83.252 350.997H81.5293V354.292ZM81.5293 355.27V359.009H83.6074C84.4961 359.009 85.125 358.836 85.4941 358.489C85.8633 358.138 86.0479 357.667 86.0479 357.074C86.0479 356.696 85.9635 356.372 85.7949 356.104C85.6309 355.835 85.362 355.63 84.9883 355.488C84.6191 355.342 84.1247 355.27 83.5049 355.27H81.5293ZM92.1318 352.371C92.7699 352.371 93.3167 352.512 93.7725 352.795C94.2282 353.077 94.5768 353.474 94.8184 353.984C95.0599 354.49 95.1807 355.083 95.1807 355.762V356.466H90.0059C90.0195 357.345 90.2383 358.015 90.6621 358.476C91.0859 358.936 91.6829 359.166 92.4531 359.166C92.9271 359.166 93.3464 359.123 93.7109 359.036C94.0755 358.95 94.4538 358.822 94.8457 358.653V359.651C94.4674 359.82 94.0915 359.943 93.7178 360.021C93.3486 360.098 92.9111 360.137 92.4053 360.137C91.6852 360.137 91.0563 359.991 90.5186 359.699C89.9854 359.403 89.5706 358.97 89.2744 358.4C88.9782 357.831 88.8301 357.133 88.8301 356.309C88.8301 355.502 88.9645 354.805 89.2334 354.217C89.5068 353.624 89.8896 353.169 90.3818 352.85C90.8786 352.531 91.4619 352.371 92.1318 352.371ZM92.1182 353.301C91.512 353.301 91.029 353.499 90.6689 353.896C90.3089 354.292 90.0947 354.846 90.0264 355.557H93.9912C93.9867 355.11 93.916 354.718 93.7793 354.381C93.6471 354.039 93.4443 353.775 93.1709 353.588C92.8975 353.396 92.5465 353.301 92.1182 353.301ZM95.9258 352.508H97.1426L98.7969 356.855C98.8926 357.111 98.9814 357.357 99.0635 357.594C99.1455 357.826 99.2184 358.049 99.2822 358.264C99.346 358.478 99.3962 358.685 99.4326 358.886H99.4805C99.5443 358.658 99.6354 358.359 99.7539 357.99C99.8724 357.617 100 357.236 100.137 356.849L101.702 352.508H102.926L99.665 361.101C99.4919 361.561 99.2891 361.962 99.0566 362.304C98.8288 362.646 98.5508 362.908 98.2227 363.09C97.8945 363.277 97.498 363.37 97.0332 363.37C96.819 363.37 96.6299 363.356 96.4658 363.329C96.3018 363.306 96.1605 363.279 96.042 363.247V362.338C96.1423 362.361 96.263 362.381 96.4043 362.399C96.5501 362.418 96.7005 362.427 96.8555 362.427C97.138 362.427 97.3818 362.372 97.5869 362.263C97.7965 362.158 97.9766 362.003 98.127 361.798C98.2773 361.593 98.4072 361.349 98.5166 361.066L98.9268 360.014L95.9258 352.508ZM110.582 356.24C110.582 356.855 110.502 357.405 110.343 357.888C110.183 358.371 109.953 358.779 109.652 359.111C109.352 359.444 108.987 359.699 108.559 359.877C108.135 360.05 107.654 360.137 107.116 360.137C106.615 360.137 106.155 360.05 105.735 359.877C105.321 359.699 104.961 359.444 104.655 359.111C104.354 358.779 104.12 358.371 103.951 357.888C103.787 357.405 103.705 356.855 103.705 356.24C103.705 355.42 103.844 354.723 104.122 354.148C104.4 353.57 104.797 353.13 105.312 352.829C105.831 352.524 106.449 352.371 107.164 352.371C107.848 352.371 108.445 352.524 108.955 352.829C109.47 353.134 109.869 353.576 110.151 354.155C110.438 354.729 110.582 355.424 110.582 356.24ZM104.881 356.24C104.881 356.842 104.961 357.364 105.12 357.806C105.28 358.248 105.526 358.59 105.858 358.831C106.191 359.073 106.619 359.193 107.144 359.193C107.663 359.193 108.089 359.073 108.422 358.831C108.759 358.59 109.007 358.248 109.167 357.806C109.326 357.364 109.406 356.842 109.406 356.24C109.406 355.643 109.326 355.128 109.167 354.695C109.007 354.258 108.761 353.921 108.429 353.684C108.096 353.447 107.665 353.328 107.137 353.328C106.357 353.328 105.785 353.586 105.421 354.101C105.061 354.616 104.881 355.329 104.881 356.24ZM116.092 352.371C116.98 352.371 117.653 352.59 118.108 353.027C118.564 353.46 118.792 354.158 118.792 355.119V360H117.671V355.194C117.671 354.57 117.527 354.103 117.24 353.793C116.958 353.483 116.522 353.328 115.935 353.328C115.105 353.328 114.522 353.563 114.185 354.032C113.847 354.502 113.679 355.183 113.679 356.076V360H112.544V352.508H113.46L113.631 353.588H113.692C113.852 353.324 114.055 353.103 114.301 352.925C114.547 352.743 114.823 352.606 115.128 352.515C115.433 352.419 115.755 352.371 116.092 352.371ZM124.131 360.137C123.456 360.137 122.862 359.998 122.347 359.72C121.832 359.442 121.431 359.018 121.144 358.448C120.856 357.879 120.713 357.161 120.713 356.295C120.713 355.388 120.863 354.647 121.164 354.073C121.469 353.494 121.889 353.066 122.422 352.788C122.955 352.51 123.561 352.371 124.24 352.371C124.614 352.371 124.974 352.41 125.32 352.487C125.671 352.56 125.958 352.654 126.182 352.768L125.84 353.718C125.612 353.627 125.348 353.545 125.047 353.472C124.751 353.399 124.473 353.362 124.213 353.362C123.693 353.362 123.26 353.474 122.914 353.697C122.572 353.921 122.315 354.249 122.142 354.682C121.973 355.115 121.889 355.648 121.889 356.281C121.889 356.887 121.971 357.405 122.135 357.833C122.303 358.261 122.552 358.59 122.88 358.817C123.213 359.041 123.627 359.152 124.124 359.152C124.521 359.152 124.878 359.111 125.197 359.029C125.516 358.943 125.806 358.842 126.065 358.729V359.74C125.815 359.868 125.535 359.966 125.225 360.034C124.919 360.103 124.555 360.137 124.131 360.137ZM130.728 352.371C131.366 352.371 131.912 352.512 132.368 352.795C132.824 353.077 133.173 353.474 133.414 353.984C133.656 354.49 133.776 355.083 133.776 355.762V356.466H128.602C128.615 357.345 128.834 358.015 129.258 358.476C129.682 358.936 130.279 359.166 131.049 359.166C131.523 359.166 131.942 359.123 132.307 359.036C132.671 358.95 133.049 358.822 133.441 358.653V359.651C133.063 359.82 132.687 359.943 132.313 360.021C131.944 360.098 131.507 360.137 131.001 360.137C130.281 360.137 129.652 359.991 129.114 359.699C128.581 359.403 128.166 358.97 127.87 358.4C127.574 357.831 127.426 357.133 127.426 356.309C127.426 355.502 127.56 354.805 127.829 354.217C128.103 353.624 128.485 353.169 128.978 352.85C129.474 352.531 130.058 352.371 130.728 352.371ZM130.714 353.301C130.108 353.301 129.625 353.499 129.265 353.896C128.905 354.292 128.69 354.846 128.622 355.557H132.587C132.582 355.11 132.512 354.718 132.375 354.381C132.243 354.039 132.04 353.775 131.767 353.588C131.493 353.396 131.142 353.301 130.714 353.301Z" fill="#2E2E2E"/>
<path d="M83 332L83 115C83 112.791 84.7909 111 87 111H104C106.209 111 108 112.791 108 115L108 332H83Z" fill="#6461E5"/>
<path d="M108 332L108 142C108 139.791 109.791 138 112 138H129C131.209 138 133 139.791 133 142L133 332H108Z" fill="#59CBFC"/>
<path d="M292.437 360H291.268V351.031H288.123V350.006H295.567V351.031H292.437V360ZM303.367 356.24C303.367 356.855 303.287 357.405 303.128 357.888C302.968 358.371 302.738 358.779 302.438 359.111C302.137 359.444 301.772 359.699 301.344 359.877C300.92 360.05 300.439 360.137 299.901 360.137C299.4 360.137 298.94 360.05 298.521 359.877C298.106 359.699 297.746 359.444 297.44 359.111C297.14 358.779 296.905 358.371 296.736 357.888C296.572 357.405 296.49 356.855 296.49 356.24C296.49 355.42 296.629 354.723 296.907 354.148C297.185 353.57 297.582 353.13 298.097 352.829C298.616 352.524 299.234 352.371 299.949 352.371C300.633 352.371 301.23 352.524 301.74 352.829C302.255 353.134 302.654 353.576 302.937 354.155C303.224 354.729 303.367 355.424 303.367 356.24ZM297.666 356.24C297.666 356.842 297.746 357.364 297.905 357.806C298.065 358.248 298.311 358.59 298.644 358.831C298.976 359.073 299.405 359.193 299.929 359.193C300.448 359.193 300.874 359.073 301.207 358.831C301.544 358.59 301.793 358.248 301.952 357.806C302.112 357.364 302.191 356.842 302.191 356.24C302.191 355.643 302.112 355.128 301.952 354.695C301.793 354.258 301.547 353.921 301.214 353.684C300.881 353.447 300.451 353.328 299.922 353.328C299.143 353.328 298.571 353.586 298.206 354.101C297.846 354.616 297.666 355.329 297.666 356.24ZM311.516 352.508V360H310.586L310.422 358.947H310.36C310.205 359.207 310.005 359.426 309.759 359.604C309.513 359.781 309.235 359.913 308.925 360C308.619 360.091 308.294 360.137 307.947 360.137C307.355 360.137 306.858 360.041 306.457 359.85C306.056 359.658 305.753 359.362 305.548 358.961C305.347 358.56 305.247 358.045 305.247 357.416V352.508H306.396V357.334C306.396 357.958 306.537 358.425 306.819 358.735C307.102 359.041 307.533 359.193 308.111 359.193C308.667 359.193 309.109 359.089 309.438 358.879C309.77 358.669 310.009 358.362 310.155 357.956C310.301 357.546 310.374 357.045 310.374 356.452V352.508H311.516ZM317.319 352.371C317.47 352.371 317.627 352.38 317.791 352.398C317.955 352.412 318.101 352.433 318.229 352.46L318.085 353.513C317.962 353.481 317.825 353.456 317.675 353.438C317.524 353.419 317.383 353.41 317.251 353.41C316.95 353.41 316.665 353.472 316.396 353.595C316.132 353.713 315.9 353.886 315.699 354.114C315.499 354.338 315.341 354.609 315.228 354.928C315.114 355.242 315.057 355.593 315.057 355.98V360H313.915V352.508H314.858L314.981 353.889H315.029C315.184 353.611 315.371 353.358 315.59 353.13C315.809 352.897 316.062 352.713 316.349 352.576C316.64 352.439 316.964 352.371 317.319 352.371Z" fill="#2E2E2E"/>
<path d="M287.778 301H286.131V292.4H283.205V291.006H290.697V292.4H287.778V301ZM298.764 297.199C298.764 297.828 298.682 298.386 298.518 298.874C298.354 299.362 298.114 299.774 297.8 300.111C297.485 300.444 297.107 300.699 296.665 300.877C296.223 301.05 295.724 301.137 295.168 301.137C294.648 301.137 294.172 301.05 293.739 300.877C293.306 300.699 292.93 300.444 292.611 300.111C292.297 299.774 292.053 299.362 291.88 298.874C291.707 298.386 291.62 297.828 291.62 297.199C291.62 296.365 291.764 295.659 292.051 295.08C292.342 294.497 292.757 294.052 293.295 293.747C293.833 293.442 294.473 293.289 295.216 293.289C295.913 293.289 296.528 293.442 297.062 293.747C297.595 294.052 298.012 294.497 298.312 295.08C298.613 295.663 298.764 296.37 298.764 297.199ZM293.274 297.199C293.274 297.751 293.34 298.222 293.473 298.614C293.609 299.006 293.819 299.307 294.102 299.517C294.384 299.722 294.749 299.824 295.195 299.824C295.642 299.824 296.007 299.722 296.289 299.517C296.572 299.307 296.779 299.006 296.911 298.614C297.043 298.222 297.109 297.751 297.109 297.199C297.109 296.648 297.043 296.181 296.911 295.798C296.779 295.41 296.572 295.117 296.289 294.916C296.007 294.711 295.64 294.608 295.188 294.608C294.523 294.608 294.038 294.832 293.732 295.278C293.427 295.725 293.274 296.365 293.274 297.199ZM307.206 293.433V301H305.941L305.723 299.981H305.634C305.474 300.241 305.271 300.458 305.025 300.631C304.779 300.799 304.506 300.925 304.205 301.007C303.904 301.093 303.588 301.137 303.255 301.137C302.685 301.137 302.198 301.041 301.792 300.85C301.391 300.654 301.083 300.353 300.869 299.947C300.655 299.542 300.548 299.018 300.548 298.375V293.433H302.161V298.074C302.161 298.662 302.28 299.102 302.517 299.394C302.758 299.685 303.132 299.831 303.638 299.831C304.125 299.831 304.513 299.731 304.8 299.53C305.087 299.33 305.29 299.034 305.408 298.642C305.531 298.25 305.593 297.769 305.593 297.199V293.433H307.206ZM313.345 293.289C313.472 293.289 313.611 293.296 313.762 293.31C313.912 293.323 314.042 293.341 314.151 293.364L314.001 294.868C313.905 294.841 313.787 294.82 313.646 294.807C313.509 294.793 313.386 294.786 313.276 294.786C312.989 294.786 312.716 294.834 312.456 294.93C312.196 295.021 311.966 295.162 311.766 295.354C311.565 295.54 311.408 295.775 311.294 296.058C311.18 296.34 311.123 296.668 311.123 297.042V301H309.51V293.433H310.768L310.986 294.766H311.062C311.212 294.497 311.399 294.251 311.622 294.027C311.845 293.804 312.101 293.626 312.388 293.494C312.679 293.357 312.998 293.289 313.345 293.289Z" fill="#2E2E2E"/>
<path d="M279 332V267C279 264.791 280.791 263 283 263H300C302.209 263 304 264.791 304 267V332H279Z" fill="#6461E5"/>
<path d="M304 332V130C304 127.791 305.791 126 308 126H325C327.209 126 329 127.791 329 130V332H304Z" fill="#59CBFC"/>
<path d="M476 332V116C476 113.791 477.791 112 480 112H497C499.209 112 501 113.791 501 116V332H476Z" fill="#6461E5"/>
<path d="M501 332V168C501 165.791 502.791 164 505 164H522C524.209 164 526 165.791 526 168V332H501Z" fill="#59CBFC"/>
<path d="M476.64 345.888C476.088 345.888 475.591 345.983 475.149 346.175C474.712 346.362 474.338 346.635 474.028 346.995C473.723 347.351 473.488 347.781 473.324 348.287C473.16 348.793 473.078 349.363 473.078 349.996C473.078 350.835 473.208 351.564 473.468 352.184C473.732 352.799 474.124 353.275 474.644 353.612C475.168 353.95 475.822 354.118 476.605 354.118C477.052 354.118 477.471 354.082 477.863 354.009C478.26 353.931 478.645 353.836 479.019 353.722V354.733C478.654 354.87 478.271 354.97 477.87 355.034C477.469 355.103 476.993 355.137 476.441 355.137C475.425 355.137 474.575 354.927 473.892 354.508C473.213 354.084 472.702 353.487 472.36 352.717C472.023 351.947 471.854 351.037 471.854 349.989C471.854 349.233 471.959 348.542 472.169 347.918C472.383 347.289 472.693 346.747 473.099 346.291C473.509 345.835 474.01 345.484 474.603 345.238C475.2 344.988 475.883 344.862 476.653 344.862C477.159 344.862 477.647 344.912 478.116 345.013C478.586 345.113 479.009 345.257 479.388 345.443L478.923 346.428C478.604 346.282 478.253 346.157 477.87 346.052C477.492 345.942 477.082 345.888 476.64 345.888ZM487.475 351.24C487.475 351.855 487.395 352.405 487.235 352.888C487.076 353.371 486.846 353.779 486.545 354.111C486.244 354.444 485.88 354.699 485.451 354.877C485.027 355.05 484.547 355.137 484.009 355.137C483.507 355.137 483.047 355.05 482.628 354.877C482.213 354.699 481.853 354.444 481.548 354.111C481.247 353.779 481.012 353.371 480.844 352.888C480.68 352.405 480.598 351.855 480.598 351.24C480.598 350.42 480.737 349.723 481.015 349.148C481.293 348.57 481.689 348.13 482.204 347.829C482.724 347.524 483.341 347.371 484.057 347.371C484.74 347.371 485.337 347.524 485.848 347.829C486.363 348.134 486.761 348.576 487.044 349.155C487.331 349.729 487.475 350.424 487.475 351.24ZM481.773 351.24C481.773 351.842 481.853 352.364 482.013 352.806C482.172 353.248 482.418 353.59 482.751 353.831C483.084 354.073 483.512 354.193 484.036 354.193C484.556 354.193 484.982 354.073 485.314 353.831C485.652 353.59 485.9 353.248 486.06 352.806C486.219 352.364 486.299 351.842 486.299 351.24C486.299 350.643 486.219 350.128 486.06 349.695C485.9 349.258 485.654 348.921 485.321 348.684C484.989 348.447 484.558 348.328 484.029 348.328C483.25 348.328 482.678 348.586 482.313 349.101C481.953 349.616 481.773 350.329 481.773 351.24ZM492.984 347.371C493.873 347.371 494.545 347.59 495.001 348.027C495.457 348.46 495.685 349.158 495.685 350.119V355H494.563V350.194C494.563 349.57 494.42 349.103 494.133 348.793C493.85 348.483 493.415 348.328 492.827 348.328C491.998 348.328 491.414 348.563 491.077 349.032C490.74 349.502 490.571 350.183 490.571 351.076V355H489.437V347.508H490.353L490.523 348.588H490.585C490.744 348.324 490.947 348.103 491.193 347.925C491.439 347.743 491.715 347.606 492.021 347.515C492.326 347.419 492.647 347.371 492.984 347.371ZM501.023 355.137C500.349 355.137 499.754 354.998 499.239 354.72C498.724 354.442 498.323 354.018 498.036 353.448C497.749 352.879 497.605 352.161 497.605 351.295C497.605 350.388 497.756 349.647 498.057 349.073C498.362 348.494 498.781 348.066 499.314 347.788C499.848 347.51 500.454 347.371 501.133 347.371C501.507 347.371 501.867 347.41 502.213 347.487C502.564 347.56 502.851 347.654 503.074 347.768L502.732 348.718C502.505 348.627 502.24 348.545 501.939 348.472C501.643 348.399 501.365 348.362 501.105 348.362C500.586 348.362 500.153 348.474 499.807 348.697C499.465 348.921 499.207 349.249 499.034 349.682C498.866 350.115 498.781 350.648 498.781 351.281C498.781 351.887 498.863 352.405 499.027 352.833C499.196 353.261 499.444 353.59 499.772 353.817C500.105 354.041 500.52 354.152 501.017 354.152C501.413 354.152 501.771 354.111 502.09 354.029C502.409 353.943 502.698 353.842 502.958 353.729V354.74C502.707 354.868 502.427 354.966 502.117 355.034C501.812 355.103 501.447 355.137 501.023 355.137ZM507.62 347.371C508.258 347.371 508.805 347.512 509.261 347.795C509.716 348.077 510.065 348.474 510.307 348.984C510.548 349.49 510.669 350.083 510.669 350.762V351.466H505.494C505.508 352.345 505.727 353.015 506.15 353.476C506.574 353.936 507.171 354.166 507.941 354.166C508.415 354.166 508.835 354.123 509.199 354.036C509.564 353.95 509.942 353.822 510.334 353.653V354.651C509.956 354.82 509.58 354.943 509.206 355.021C508.837 355.098 508.399 355.137 507.894 355.137C507.174 355.137 506.545 354.991 506.007 354.699C505.474 354.403 505.059 353.97 504.763 353.4C504.466 352.831 504.318 352.133 504.318 351.309C504.318 350.502 504.453 349.805 504.722 349.217C504.995 348.624 505.378 348.169 505.87 347.85C506.367 347.531 506.95 347.371 507.62 347.371ZM507.606 348.301C507 348.301 506.517 348.499 506.157 348.896C505.797 349.292 505.583 349.846 505.515 350.557H509.479C509.475 350.11 509.404 349.718 509.268 349.381C509.135 349.039 508.933 348.775 508.659 348.588C508.386 348.396 508.035 348.301 507.606 348.301ZM516.001 347.371C516.151 347.371 516.309 347.38 516.473 347.398C516.637 347.412 516.783 347.433 516.91 347.46L516.767 348.513C516.644 348.481 516.507 348.456 516.356 348.438C516.206 348.419 516.065 348.41 515.933 348.41C515.632 348.41 515.347 348.472 515.078 348.595C514.814 348.713 514.581 348.886 514.381 349.114C514.18 349.338 514.023 349.609 513.909 349.928C513.795 350.242 513.738 350.593 513.738 350.98V355H512.597V347.508H513.54L513.663 348.889H513.711C513.866 348.611 514.053 348.358 514.271 348.13C514.49 347.897 514.743 347.713 515.03 347.576C515.322 347.439 515.646 347.371 516.001 347.371ZM520.745 354.207C520.932 354.207 521.123 354.191 521.319 354.159C521.515 354.127 521.675 354.089 521.798 354.043V354.925C521.666 354.984 521.481 355.034 521.244 355.075C521.012 355.116 520.784 355.137 520.561 355.137C520.164 355.137 519.804 355.068 519.48 354.932C519.157 354.79 518.897 354.553 518.701 354.221C518.51 353.888 518.414 353.428 518.414 352.84V348.396H517.348V347.843L518.421 347.398L518.872 345.771H519.556V347.508H521.75V348.396H519.556V352.806C519.556 353.275 519.663 353.626 519.877 353.858C520.096 354.091 520.385 354.207 520.745 354.207ZM528.162 352.949C528.162 353.428 528.041 353.831 527.8 354.159C527.563 354.483 527.221 354.727 526.774 354.891C526.332 355.055 525.804 355.137 525.188 355.137C524.664 355.137 524.211 355.096 523.828 355.014C523.445 354.932 523.11 354.815 522.823 354.665V353.619C523.129 353.77 523.493 353.906 523.917 354.029C524.341 354.152 524.774 354.214 525.216 354.214C525.863 354.214 526.332 354.109 526.624 353.899C526.916 353.69 527.062 353.405 527.062 353.045C527.062 352.84 527.002 352.66 526.884 352.505C526.77 352.345 526.576 352.193 526.303 352.047C526.029 351.896 525.651 351.732 525.168 351.555C524.689 351.372 524.275 351.192 523.924 351.015C523.577 350.832 523.309 350.611 523.117 350.352C522.93 350.092 522.837 349.755 522.837 349.34C522.837 348.706 523.092 348.221 523.603 347.884C524.118 347.542 524.792 347.371 525.626 347.371C526.077 347.371 526.499 347.417 526.891 347.508C527.287 347.594 527.656 347.713 527.998 347.863L527.615 348.772C527.305 348.64 526.975 348.529 526.624 348.438C526.273 348.346 525.915 348.301 525.551 348.301C525.027 348.301 524.623 348.387 524.341 348.561C524.063 348.734 523.924 348.971 523.924 349.271C523.924 349.504 523.988 349.695 524.115 349.846C524.247 349.996 524.457 350.137 524.744 350.27C525.031 350.402 525.41 350.557 525.879 350.734C526.348 350.908 526.754 351.088 527.096 351.274C527.438 351.457 527.7 351.68 527.882 351.944C528.069 352.204 528.162 352.539 528.162 352.949Z" fill="#2E2E2E"/>
<path d="M21.7627 70L18.4062 61.1543H18.3516C18.3698 61.3411 18.3857 61.569 18.3994 61.8379C18.4131 62.1068 18.4245 62.4007 18.4336 62.7197C18.4427 63.0342 18.4473 63.3555 18.4473 63.6836V70H17.3672V60.0059H19.0898L22.2549 68.3184H22.3027L25.5156 60.0059H27.2246V70H26.0762V63.6016C26.0762 63.3053 26.0807 63.0091 26.0898 62.7129C26.099 62.4121 26.1104 62.1296 26.124 61.8652C26.1377 61.5964 26.1514 61.3639 26.165 61.168H26.1104L22.7129 70H21.7627ZM32.6729 62.3711C33.3109 62.3711 33.8577 62.5124 34.3135 62.7949C34.7692 63.0775 35.1178 63.474 35.3594 63.9844C35.6009 64.4902 35.7217 65.0827 35.7217 65.7617V66.4658H30.5469C30.5605 67.3454 30.7793 68.0153 31.2031 68.4756C31.627 68.9359 32.224 69.166 32.9941 69.166C33.4681 69.166 33.8874 69.1227 34.252 69.0361C34.6165 68.9495 34.9948 68.8219 35.3867 68.6533V69.6514C35.0085 69.82 34.6325 69.943 34.2588 70.0205C33.8896 70.098 33.4521 70.1367 32.9463 70.1367C32.2262 70.1367 31.5973 69.9909 31.0596 69.6992C30.5264 69.403 30.1117 68.9701 29.8154 68.4004C29.5192 67.8307 29.3711 67.1335 29.3711 66.3086C29.3711 65.502 29.5055 64.8047 29.7744 64.2168C30.0479 63.6243 30.4307 63.1686 30.9229 62.8496C31.4196 62.5306 32.0029 62.3711 32.6729 62.3711ZM32.6592 63.3008C32.0531 63.3008 31.57 63.499 31.21 63.8955C30.8499 64.292 30.6357 64.8457 30.5674 65.5566H34.5322C34.5277 65.11 34.457 64.7181 34.3203 64.3809C34.1882 64.0391 33.9854 63.7747 33.7119 63.5879C33.4385 63.3965 33.0876 63.3008 32.6592 63.3008ZM41.1973 62.3711C42.0859 62.3711 42.7581 62.5898 43.2139 63.0273C43.6696 63.4603 43.8975 64.1576 43.8975 65.1191V70H42.7764V65.1943C42.7764 64.57 42.6328 64.1029 42.3457 63.793C42.0632 63.4831 41.6279 63.3281 41.04 63.3281C40.2106 63.3281 39.6273 63.5628 39.29 64.0322C38.9528 64.5016 38.7842 65.1829 38.7842 66.0762V70H37.6494V62.5078H38.5654L38.7363 63.5879H38.7979C38.9574 63.3236 39.1602 63.1025 39.4062 62.9248C39.6523 62.7425 39.9281 62.6058 40.2334 62.5146C40.5387 62.4189 40.86 62.3711 41.1973 62.3711ZM48.6553 69.207C48.8421 69.207 49.0335 69.1911 49.2295 69.1592C49.4255 69.1273 49.585 69.0885 49.708 69.043V69.9248C49.5758 69.984 49.3913 70.0342 49.1543 70.0752C48.9219 70.1162 48.694 70.1367 48.4707 70.1367C48.0742 70.1367 47.7142 70.0684 47.3906 69.9316C47.0671 69.7904 46.8073 69.5534 46.6113 69.2207C46.4199 68.888 46.3242 68.4277 46.3242 67.8398V63.3965H45.2578V62.8428L46.3311 62.3984L46.7822 60.7715H47.4658V62.5078H49.6602V63.3965H47.4658V67.8057C47.4658 68.2751 47.5729 68.626 47.7871 68.8584C48.0059 69.0908 48.2952 69.207 48.6553 69.207ZM52.3604 62.5078V70H51.2256V62.5078H52.3604ZM51.8066 59.7051C51.9935 59.7051 52.153 59.7666 52.2852 59.8896C52.4219 60.0081 52.4902 60.195 52.4902 60.4502C52.4902 60.7008 52.4219 60.8877 52.2852 61.0107C52.153 61.1338 51.9935 61.1953 51.8066 61.1953C51.6107 61.1953 51.4466 61.1338 51.3145 61.0107C51.1868 60.8877 51.123 60.7008 51.123 60.4502C51.123 60.195 51.1868 60.0081 51.3145 59.8896C51.4466 59.7666 51.6107 59.7051 51.8066 59.7051ZM61.2266 66.2402C61.2266 66.8555 61.1468 67.4046 60.9873 67.8877C60.8278 68.3708 60.5977 68.7786 60.2969 69.1113C59.9961 69.444 59.6315 69.6992 59.2031 69.877C58.7793 70.0501 58.2985 70.1367 57.7607 70.1367C57.2594 70.1367 56.7992 70.0501 56.3799 69.877C55.9652 69.6992 55.6051 69.444 55.2998 69.1113C54.999 68.7786 54.7643 68.3708 54.5957 67.8877C54.4316 67.4046 54.3496 66.8555 54.3496 66.2402C54.3496 65.4199 54.4886 64.7227 54.7666 64.1484C55.0446 63.5697 55.4411 63.1299 55.9561 62.8291C56.4756 62.5238 57.0931 62.3711 57.8086 62.3711C58.4922 62.3711 59.0892 62.5238 59.5996 62.8291C60.1146 63.1344 60.5133 63.5765 60.7959 64.1553C61.083 64.7295 61.2266 65.4245 61.2266 66.2402ZM55.5254 66.2402C55.5254 66.8418 55.6051 67.3636 55.7646 67.8057C55.9242 68.2477 56.1702 68.5895 56.5029 68.8311C56.8356 69.0726 57.264 69.1934 57.7881 69.1934C58.3076 69.1934 58.7337 69.0726 59.0664 68.8311C59.4036 68.5895 59.652 68.2477 59.8115 67.8057C59.971 67.3636 60.0508 66.8418 60.0508 66.2402C60.0508 65.6432 59.971 65.1283 59.8115 64.6953C59.652 64.2578 59.4059 63.9206 59.0732 63.6836C58.7406 63.4466 58.3099 63.3281 57.7812 63.3281C57.002 63.3281 56.43 63.5856 56.0654 64.1006C55.7054 64.6156 55.5254 65.3288 55.5254 66.2402ZM66.7363 62.3711C67.625 62.3711 68.2972 62.5898 68.7529 63.0273C69.2087 63.4603 69.4365 64.1576 69.4365 65.1191V70H68.3154V65.1943C68.3154 64.57 68.1719 64.1029 67.8848 63.793C67.6022 63.4831 67.167 63.3281 66.5791 63.3281C65.7497 63.3281 65.1663 63.5628 64.8291 64.0322C64.4919 64.5016 64.3232 65.1829 64.3232 66.0762V70H63.1885V62.5078H64.1045L64.2754 63.5879H64.3369C64.4964 63.3236 64.6992 63.1025 64.9453 62.9248C65.1914 62.7425 65.4671 62.6058 65.7725 62.5146C66.0778 62.4189 66.3991 62.3711 66.7363 62.3711ZM76.6211 67.9492C76.6211 68.4277 76.5003 68.8311 76.2588 69.1592C76.0218 69.4827 75.68 69.7266 75.2334 69.8906C74.7913 70.0547 74.2627 70.1367 73.6475 70.1367C73.1234 70.1367 72.6699 70.0957 72.2871 70.0137C71.9043 69.9316 71.5693 69.8154 71.2822 69.665V68.6191C71.5876 68.7695 71.9521 68.9062 72.376 69.0293C72.7998 69.1523 73.2327 69.2139 73.6748 69.2139C74.3219 69.2139 74.7913 69.109 75.083 68.8994C75.3747 68.6898 75.5205 68.4049 75.5205 68.0449C75.5205 67.8398 75.4613 67.6598 75.3428 67.5049C75.2288 67.3454 75.0352 67.1927 74.7617 67.0469C74.4883 66.8965 74.11 66.7324 73.627 66.5547C73.1484 66.3724 72.7337 66.1924 72.3828 66.0146C72.0365 65.8324 71.7676 65.6113 71.5762 65.3516C71.3893 65.0918 71.2959 64.7546 71.2959 64.3398C71.2959 63.7064 71.5511 63.221 72.0615 62.8838C72.5765 62.542 73.251 62.3711 74.085 62.3711C74.5361 62.3711 74.9577 62.4167 75.3496 62.5078C75.7461 62.5944 76.1152 62.7129 76.457 62.8633L76.0742 63.7725C75.7643 63.6403 75.4339 63.5286 75.083 63.4375C74.7321 63.3464 74.3743 63.3008 74.0098 63.3008C73.4857 63.3008 73.0824 63.3874 72.7998 63.5605C72.5218 63.7337 72.3828 63.9707 72.3828 64.2715C72.3828 64.5039 72.4466 64.6953 72.5742 64.8457C72.7064 64.9961 72.916 65.1374 73.2031 65.2695C73.4902 65.4017 73.8685 65.5566 74.3379 65.7344C74.8073 65.9076 75.2129 66.0876 75.5547 66.2744C75.8965 66.4567 76.1585 66.68 76.3408 66.9443C76.5277 67.2041 76.6211 67.5391 76.6211 67.9492Z" fill="#696565"/>
</svg>
