<svg width="545" height="109" viewBox="0 0 545 109" fill="none" xmlns="http://www.w3.org/2000/svg">
<g id="Frame 427323305">
<g id="Frame 427323303">
<rect width="267.5" height="109" rx="4" fill="#F7F7F7"/>
<g id="Frame 427323268">
<g id="Frame 427319689">
<g id="Mask Group">
<g id="Group 86">
<rect id="Rectangle 56" x="14" y="10" width="32" height="32" rx="4" fill="#ECECFF"/>
<g id="Frame">
<g id="Group">
<path id="Vector" d="M34.7592 18.5703H37.2796L31.7733 24.8636L38.251 33.4275H33.179L29.2065 28.2336L24.6609 33.4275H22.139L28.0285 26.696L21.8145 18.5703H27.0152L30.6061 23.3177L34.7592 18.5703ZM33.8746 31.9189H35.2712L26.2564 19.9996H24.7577L33.8746 31.9189Z" fill="#5E47EB"/>
</g>
</g>
</g>
</g>
<path id="tittle" d="M64.6885 31.5H62.8223L60.3066 27.4053L57.7773 31.5H56.0205L59.3428 26.3184L56.2461 21.5059H58.0576L60.3818 25.293L62.6924 21.5059H64.4492L61.3389 26.3662L64.6885 31.5ZM68.9199 27.665C68.9199 26.8994 68.9928 26.152 69.1387 25.4229C69.2891 24.6937 69.5169 23.9987 69.8223 23.3379C70.1276 22.6771 70.5127 22.0664 70.9775 21.5059H72.3789C71.7272 22.3763 71.235 23.3402 70.9023 24.3975C70.5742 25.4548 70.4102 26.5394 70.4102 27.6514C70.4102 28.376 70.4831 29.0938 70.6289 29.8047C70.7747 30.5156 70.9935 31.1992 71.2852 31.8555C71.5768 32.5163 71.9368 33.1361 72.3652 33.7148H70.9775C70.5127 33.168 70.1276 32.571 69.8223 31.9238C69.5169 31.2767 69.2891 30.5931 69.1387 29.873C68.9928 29.153 68.9199 28.417 68.9199 27.665ZM77.5811 31.5H75.9336V22.9004H73.0078V21.5059H80.5V22.9004H77.5811V31.5ZM88.0537 31.4932L87.0967 27.9727C87.0511 27.7995 86.9964 27.5898 86.9326 27.3438C86.8688 27.0977 86.805 26.8447 86.7412 26.585C86.6774 26.3206 86.6182 26.0768 86.5635 25.8535C86.5133 25.6302 86.4746 25.457 86.4473 25.334H86.3926C86.3698 25.457 86.3333 25.6302 86.2832 25.8535C86.2331 26.0768 86.1761 26.3206 86.1123 26.585C86.0485 26.8493 85.9847 27.1068 85.9209 27.3574C85.8617 27.6081 85.807 27.8223 85.7568 28L84.752 31.4932H82.9883L80.8691 23.9258H82.4961L83.4805 27.6855C83.5443 27.9408 83.6058 28.2165 83.665 28.5127C83.7288 28.8089 83.7835 29.0915 83.8291 29.3604C83.8747 29.6292 83.9089 29.8503 83.9316 30.0234H83.9863C84.0046 29.9004 84.0296 29.7454 84.0615 29.5586C84.0934 29.3672 84.1299 29.1689 84.1709 28.9639C84.2119 28.7542 84.2529 28.5583 84.2939 28.376C84.335 28.1891 84.3737 28.0387 84.4102 27.9248L85.5723 23.9258H87.3291L88.4434 27.9248C88.4935 28.098 88.5482 28.3167 88.6074 28.5811C88.6667 28.8408 88.7191 29.1029 88.7646 29.3672C88.8148 29.627 88.8467 29.8434 88.8604 30.0166H88.915C88.9333 29.8617 88.9652 29.652 89.0107 29.3877C89.0609 29.1188 89.1178 28.834 89.1816 28.5332C89.2454 28.2279 89.3115 27.9453 89.3799 27.6855L90.3848 23.9258H91.9844L89.8516 31.4932H88.0537ZM94.8896 23.9326V31.5H93.2832V23.9326H94.8896ZM94.0967 21.0342C94.3428 21.0342 94.5547 21.1003 94.7324 21.2324C94.9147 21.3646 95.0059 21.5924 95.0059 21.916C95.0059 22.235 94.9147 22.4629 94.7324 22.5996C94.5547 22.7318 94.3428 22.7979 94.0967 22.7979C93.8415 22.7979 93.625 22.7318 93.4473 22.5996C93.2741 22.4629 93.1875 22.235 93.1875 21.916C93.1875 21.5924 93.2741 21.3646 93.4473 21.2324C93.625 21.1003 93.8415 21.0342 94.0967 21.0342ZM100.01 30.3379C100.219 30.3379 100.427 30.3197 100.632 30.2832C100.837 30.2422 101.024 30.1943 101.192 30.1396V31.3564C101.015 31.4339 100.785 31.5 100.502 31.5547C100.219 31.6094 99.9255 31.6367 99.6201 31.6367C99.1917 31.6367 98.8066 31.5661 98.4648 31.4248C98.123 31.279 97.8519 31.0306 97.6514 30.6797C97.4508 30.3288 97.3506 29.8434 97.3506 29.2236V25.1562H96.3184V24.4385L97.4258 23.8711L97.9521 22.251H98.9639V23.9326H101.131V25.1562H98.9639V29.2031C98.9639 29.5859 99.0596 29.8708 99.251 30.0576C99.4424 30.2445 99.6953 30.3379 100.01 30.3379ZM105.547 30.3379C105.757 30.3379 105.964 30.3197 106.169 30.2832C106.374 30.2422 106.561 30.1943 106.729 30.1396V31.3564C106.552 31.4339 106.322 31.5 106.039 31.5547C105.757 31.6094 105.463 31.6367 105.157 31.6367C104.729 31.6367 104.344 31.5661 104.002 31.4248C103.66 31.279 103.389 31.0306 103.188 30.6797C102.988 30.3288 102.888 29.8434 102.888 29.2236V25.1562H101.855V24.4385L102.963 23.8711L103.489 22.251H104.501V23.9326H106.668V25.1562H104.501V29.2031C104.501 29.5859 104.597 29.8708 104.788 30.0576C104.979 30.2445 105.232 30.3379 105.547 30.3379ZM111.282 23.7891C111.957 23.7891 112.535 23.9281 113.019 24.2061C113.502 24.484 113.873 24.8783 114.133 25.3887C114.393 25.8991 114.522 26.5098 114.522 27.2207V28.082H109.471C109.489 28.8158 109.685 29.3809 110.059 29.7773C110.437 30.1738 110.965 30.3721 111.645 30.3721C112.128 30.3721 112.561 30.3265 112.943 30.2354C113.331 30.1396 113.729 30.0007 114.14 29.8184V31.124C113.761 31.3018 113.376 31.4316 112.984 31.5137C112.592 31.5957 112.123 31.6367 111.576 31.6367C110.833 31.6367 110.179 31.4932 109.614 31.2061C109.054 30.9144 108.614 30.4814 108.295 29.9072C107.98 29.333 107.823 28.6198 107.823 27.7676C107.823 26.9199 107.967 26.1999 108.254 25.6074C108.541 25.015 108.944 24.5638 109.464 24.2539C109.983 23.944 110.59 23.7891 111.282 23.7891ZM111.282 24.999C110.776 24.999 110.366 25.1631 110.052 25.4912C109.742 25.8193 109.56 26.3001 109.505 26.9336H112.95C112.946 26.5553 112.882 26.2204 112.759 25.9287C112.64 25.637 112.458 25.4092 112.212 25.2451C111.97 25.0811 111.66 24.999 111.282 24.999ZM120.169 23.7891C120.297 23.7891 120.436 23.7959 120.586 23.8096C120.736 23.8232 120.866 23.8415 120.976 23.8643L120.825 25.3682C120.729 25.3408 120.611 25.3203 120.47 25.3066C120.333 25.293 120.21 25.2861 120.101 25.2861C119.813 25.2861 119.54 25.334 119.28 25.4297C119.021 25.5208 118.79 25.6621 118.59 25.8535C118.389 26.0404 118.232 26.2751 118.118 26.5576C118.004 26.8402 117.947 27.1683 117.947 27.542V31.5H116.334V23.9326H117.592L117.811 25.2656H117.886C118.036 24.9967 118.223 24.7507 118.446 24.5273C118.67 24.304 118.925 24.1263 119.212 23.9941C119.504 23.8574 119.823 23.7891 120.169 23.7891ZM125.104 27.6582C125.104 28.4147 125.032 29.153 124.886 29.873C124.74 30.5931 124.514 31.2767 124.209 31.9238C123.908 32.571 123.521 33.168 123.047 33.7148H121.666C122.094 33.1361 122.454 32.5163 122.746 31.8555C123.038 31.1947 123.257 30.5088 123.402 29.7979C123.548 29.0869 123.621 28.3691 123.621 27.6445C123.621 26.9062 123.546 26.1771 123.396 25.457C123.25 24.737 123.031 24.0443 122.739 23.3789C122.448 22.709 122.085 22.0846 121.652 21.5059H123.047C123.521 22.0664 123.908 22.6771 124.209 23.3379C124.514 23.9987 124.74 24.6937 124.886 25.4229C125.032 26.1475 125.104 26.8926 125.104 27.6582ZM136.814 31.5L135.837 28.7246H132.016L131.038 31.5H129.309L133.027 21.4648H134.846L138.558 31.5H136.814ZM135.413 27.3164L134.463 24.582C134.426 24.4635 134.374 24.2972 134.306 24.083C134.237 23.8643 134.169 23.6432 134.101 23.4199C134.032 23.1921 133.975 23.0007 133.93 22.8457C133.884 23.0326 133.827 23.2422 133.759 23.4746C133.695 23.7025 133.631 23.9167 133.567 24.1172C133.508 24.3177 133.463 24.4727 133.431 24.582L132.474 27.3164H135.413ZM142.762 31.6367C142.046 31.6367 141.426 31.4977 140.902 31.2197C140.378 30.9417 139.975 30.5156 139.692 29.9414C139.41 29.3672 139.269 28.638 139.269 27.7539C139.269 26.8333 139.424 26.0814 139.733 25.498C140.043 24.9147 140.472 24.484 141.019 24.2061C141.57 23.9281 142.201 23.7891 142.912 23.7891C143.363 23.7891 143.771 23.8346 144.136 23.9258C144.505 24.0124 144.817 24.1195 145.072 24.2471L144.594 25.5322C144.316 25.4183 144.031 25.3226 143.739 25.2451C143.448 25.1676 143.167 25.1289 142.898 25.1289C142.456 25.1289 142.087 25.2269 141.791 25.4229C141.499 25.6188 141.281 25.9105 141.135 26.2979C140.993 26.6852 140.923 27.166 140.923 27.7402C140.923 28.2962 140.996 28.7656 141.142 29.1484C141.287 29.5267 141.504 29.8138 141.791 30.0098C142.078 30.2012 142.431 30.2969 142.851 30.2969C143.265 30.2969 143.637 30.2467 143.965 30.1465C144.293 30.0462 144.603 29.9163 144.895 29.7568V31.1514C144.607 31.3154 144.3 31.4362 143.972 31.5137C143.644 31.5957 143.24 31.6367 142.762 31.6367ZM149.488 30.3379C149.698 30.3379 149.905 30.3197 150.11 30.2832C150.315 30.2422 150.502 30.1943 150.671 30.1396V31.3564C150.493 31.4339 150.263 31.5 149.98 31.5547C149.698 31.6094 149.404 31.6367 149.099 31.6367C148.67 31.6367 148.285 31.5661 147.943 31.4248C147.602 31.279 147.33 31.0306 147.13 30.6797C146.929 30.3288 146.829 29.8434 146.829 29.2236V25.1562H145.797V24.4385L146.904 23.8711L147.431 22.251H148.442V23.9326H150.609V25.1562H148.442V29.2031C148.442 29.5859 148.538 29.8708 148.729 30.0576C148.921 30.2445 149.174 30.3379 149.488 30.3379ZM153.815 23.9326V31.5H152.209V23.9326H153.815ZM153.022 21.0342C153.269 21.0342 153.48 21.1003 153.658 21.2324C153.84 21.3646 153.932 21.5924 153.932 21.916C153.932 22.235 153.84 22.4629 153.658 22.5996C153.48 22.7318 153.269 22.7979 153.022 22.7979C152.767 22.7979 152.551 22.7318 152.373 22.5996C152.2 22.4629 152.113 22.235 152.113 21.916C152.113 21.5924 152.2 21.3646 152.373 21.2324C152.551 21.1003 152.767 21.0342 153.022 21.0342ZM157.849 31.5L154.971 23.9326H156.673L158.231 28.376C158.332 28.6585 158.423 28.9639 158.505 29.292C158.587 29.6201 158.644 29.8958 158.676 30.1191H158.73C158.762 29.8867 158.824 29.6087 158.915 29.2852C159.006 28.957 159.1 28.654 159.195 28.376L160.754 23.9326H162.449L159.571 31.5H157.849ZM165.204 23.9326V31.5H163.598V23.9326H165.204ZM164.411 21.0342C164.657 21.0342 164.869 21.1003 165.047 21.2324C165.229 21.3646 165.32 21.5924 165.32 21.916C165.32 22.235 165.229 22.4629 165.047 22.5996C164.869 22.7318 164.657 22.7979 164.411 22.7979C164.156 22.7979 163.939 22.7318 163.762 22.5996C163.589 22.4629 163.502 22.235 163.502 21.916C163.502 21.5924 163.589 21.3646 163.762 21.2324C163.939 21.1003 164.156 21.0342 164.411 21.0342ZM170.324 30.3379C170.534 30.3379 170.741 30.3197 170.946 30.2832C171.151 30.2422 171.338 30.1943 171.507 30.1396V31.3564C171.329 31.4339 171.099 31.5 170.816 31.5547C170.534 31.6094 170.24 31.6367 169.935 31.6367C169.506 31.6367 169.121 31.5661 168.779 31.4248C168.438 31.279 168.166 31.0306 167.966 30.6797C167.765 30.3288 167.665 29.8434 167.665 29.2236V25.1562H166.633V24.4385L167.74 23.8711L168.267 22.251H169.278V23.9326H171.445V25.1562H169.278V29.2031C169.278 29.5859 169.374 29.8708 169.565 30.0576C169.757 30.2445 170.01 30.3379 170.324 30.3379ZM171.903 23.9326H173.653L175.205 28.2529C175.273 28.4489 175.335 28.6426 175.39 28.834C175.449 29.0208 175.499 29.2054 175.54 29.3877C175.586 29.57 175.622 29.7523 175.649 29.9346H175.69C175.736 29.6976 175.8 29.4333 175.882 29.1416C175.968 28.8454 176.064 28.5492 176.169 28.2529L177.659 23.9326H179.389L176.142 32.5391C175.955 33.0312 175.725 33.4505 175.451 33.7969C175.182 34.1478 174.863 34.4121 174.494 34.5898C174.125 34.7721 173.703 34.8633 173.229 34.8633C173.002 34.8633 172.803 34.8496 172.635 34.8223C172.466 34.7995 172.323 34.7744 172.204 34.7471V33.4619C172.3 33.4847 172.421 33.5052 172.566 33.5234C172.712 33.5417 172.863 33.5508 173.018 33.5508C173.305 33.5508 173.553 33.4938 173.763 33.3799C173.972 33.266 174.15 33.1042 174.296 32.8945C174.442 32.6895 174.562 32.4548 174.658 32.1904L174.925 31.4795L171.903 23.9326Z" fill="#16161A"/>
</g>
<g id="Group 427319690">
<g id="+121% VS prev. 30 days">
<path d="M18.6006 88.4561H21.335V89.6729H18.6006V92.4346H17.3838V89.6729H14.6562V88.4561H17.3838V85.667H18.6006V88.4561ZM27.3643 94H25.751V87.5674C25.751 87.3532 25.7533 87.139 25.7578 86.9248C25.7624 86.7106 25.7669 86.501 25.7715 86.2959C25.7806 86.0908 25.792 85.8949 25.8057 85.708C25.71 85.8128 25.5915 85.9268 25.4502 86.0498C25.3135 86.1729 25.1676 86.3005 25.0127 86.4326L23.8643 87.3486L23.0576 86.3301L26.0244 84.0059H27.3643V94ZM37.4199 94H30.6523V92.79L33.2432 90.165C33.7445 89.6546 34.1569 89.2148 34.4805 88.8457C34.804 88.472 35.0433 88.1188 35.1982 87.7861C35.3577 87.4535 35.4375 87.0911 35.4375 86.6992C35.4375 86.2161 35.2985 85.8516 35.0205 85.6055C34.7425 85.3548 34.3757 85.2295 33.9199 85.2295C33.487 85.2295 33.0859 85.3161 32.7168 85.4893C32.3522 85.6579 31.974 85.8994 31.582 86.2139L30.7002 85.1543C30.9782 84.9173 31.2744 84.7008 31.5889 84.5049C31.9079 84.3089 32.2633 84.154 32.6553 84.04C33.0472 83.9215 33.4938 83.8623 33.9951 83.8623C34.6286 83.8623 35.1755 83.9762 35.6357 84.2041C36.096 84.4274 36.4492 84.7396 36.6953 85.1406C36.946 85.5417 37.0713 86.0088 37.0713 86.542C37.0713 87.0798 36.9642 87.5765 36.75 88.0322C36.5358 88.488 36.2305 88.9391 35.834 89.3857C35.4375 89.8278 34.9658 90.3086 34.4189 90.8281L32.6895 92.5166V92.5918H37.4199V94ZM43.3877 94H41.7744V87.5674C41.7744 87.3532 41.7767 87.139 41.7812 86.9248C41.7858 86.7106 41.7904 86.501 41.7949 86.2959C41.804 86.0908 41.8154 85.8949 41.8291 85.708C41.7334 85.8128 41.6149 85.9268 41.4736 86.0498C41.3369 86.1729 41.1911 86.3005 41.0361 86.4326L39.8877 87.3486L39.0811 86.3301L42.0479 84.0059H43.3877V94ZM48.8086 83.8623C49.5423 83.8623 50.0983 84.1357 50.4766 84.6826C50.8548 85.2249 51.0439 85.9928 51.0439 86.9863C51.0439 87.9753 50.8617 88.7477 50.4971 89.3037C50.137 89.8597 49.5742 90.1377 48.8086 90.1377C48.0931 90.1377 47.5485 89.8597 47.1748 89.3037C46.8011 88.7477 46.6143 87.9753 46.6143 86.9863C46.6143 85.9928 46.7897 85.2249 47.1406 84.6826C47.4961 84.1357 48.0521 83.8623 48.8086 83.8623ZM48.8154 84.9834C48.5192 84.9834 48.3005 85.1497 48.1592 85.4824C48.0225 85.8151 47.9541 86.3187 47.9541 86.9932C47.9541 87.6631 48.0225 88.1689 48.1592 88.5107C48.3005 88.848 48.5192 89.0166 48.8154 89.0166C49.1162 89.0166 49.3395 88.848 49.4854 88.5107C49.6357 88.1735 49.7109 87.6676 49.7109 86.9932C49.7109 86.3232 49.638 85.8219 49.4922 85.4893C49.3464 85.152 49.1208 84.9834 48.8154 84.9834ZM55.5215 84.0059L49.9775 94H48.6582L54.2021 84.0059H55.5215ZM55.3369 87.8613C56.0706 87.8613 56.6266 88.1348 57.0049 88.6816C57.3877 89.224 57.5791 89.9919 57.5791 90.9854C57.5791 91.9697 57.3968 92.7399 57.0322 93.2959C56.6722 93.8519 56.1071 94.1299 55.3369 94.1299C54.6214 94.1299 54.0768 93.8519 53.7031 93.2959C53.3294 92.7399 53.1426 91.9697 53.1426 90.9854C53.1426 89.9919 53.318 89.224 53.6689 88.6816C54.0244 88.1348 54.5804 87.8613 55.3369 87.8613ZM55.3438 88.9824C55.0475 88.9824 54.8288 89.1488 54.6875 89.4814C54.5508 89.8141 54.4824 90.3177 54.4824 90.9922C54.4824 91.6621 54.5508 92.168 54.6875 92.5098C54.8288 92.847 55.0475 93.0156 55.3438 93.0156C55.6491 93.0156 55.8747 92.8493 56.0205 92.5166C56.1663 92.1794 56.2393 91.6712 56.2393 90.9922C56.2393 90.3223 56.1663 89.821 56.0205 89.4883C55.8747 89.151 55.6491 88.9824 55.3438 88.9824Z" fill="#00BC59"/>
<path d="M70.1299 84.0059L66.541 94H65.3721L61.7832 84.0059H63L65.3379 90.5889C65.4336 90.8532 65.5179 91.1061 65.5908 91.3477C65.6683 91.5892 65.7367 91.8216 65.7959 92.0449C65.8551 92.2682 65.9076 92.4847 65.9531 92.6943C65.9987 92.4847 66.0511 92.2682 66.1104 92.0449C66.1696 91.8171 66.238 91.5824 66.3154 91.3408C66.3929 91.0947 66.4795 90.8372 66.5752 90.5684L68.8994 84.0059H70.1299ZM77.1436 91.3408C77.1436 91.9333 76.9954 92.4391 76.6992 92.8584C76.4076 93.2731 75.9974 93.5898 75.4688 93.8086C74.9401 94.0273 74.318 94.1367 73.6025 94.1367C73.2243 94.1367 72.8665 94.1185 72.5293 94.082C72.1921 94.0456 71.8822 93.9932 71.5996 93.9248C71.3171 93.8564 71.0687 93.7721 70.8545 93.6719V92.5576C71.1963 92.6989 71.6133 92.8311 72.1055 92.9541C72.5977 93.0726 73.1126 93.1318 73.6504 93.1318C74.1517 93.1318 74.5755 93.0658 74.9219 92.9336C75.2682 92.7969 75.5303 92.6032 75.708 92.3525C75.8903 92.0973 75.9814 91.792 75.9814 91.4365C75.9814 91.0947 75.9062 90.8099 75.7559 90.582C75.6055 90.3496 75.3548 90.14 75.0039 89.9531C74.6576 89.7617 74.1836 89.5589 73.582 89.3447C73.1582 89.1943 72.7845 89.0303 72.4609 88.8525C72.1374 88.6702 71.8662 88.4652 71.6475 88.2373C71.4287 88.0094 71.2624 87.7451 71.1484 87.4443C71.0391 87.1436 70.9844 86.7995 70.9844 86.4121C70.9844 85.8789 71.1188 85.4232 71.3877 85.0449C71.6611 84.6621 72.0371 84.3704 72.5156 84.1699C72.9987 83.9648 73.5524 83.8623 74.1768 83.8623C74.71 83.8623 75.2021 83.9124 75.6533 84.0127C76.109 84.113 76.526 84.2474 76.9043 84.416L76.542 85.4141C76.182 85.2637 75.7992 85.1383 75.3936 85.0381C74.9925 84.9378 74.5778 84.8877 74.1494 84.8877C73.721 84.8877 73.3587 84.9515 73.0625 85.0791C72.7708 85.2021 72.5475 85.3776 72.3926 85.6055C72.2376 85.8333 72.1602 86.1045 72.1602 86.4189C72.1602 86.7699 72.2331 87.0615 72.3789 87.2939C72.5293 87.5264 72.7663 87.7337 73.0898 87.916C73.418 88.0938 73.8509 88.2806 74.3887 88.4766C74.9766 88.6908 75.4756 88.9186 75.8857 89.1602C76.2959 89.3971 76.6081 89.6888 76.8223 90.0352C77.0365 90.377 77.1436 90.8122 77.1436 91.3408ZM86.1738 86.3711C87.1081 86.3711 87.8532 86.6924 88.4092 87.335C88.9652 87.9775 89.2432 88.9437 89.2432 90.2334C89.2432 91.0856 89.1156 91.8011 88.8604 92.3799C88.6051 92.9587 88.2451 93.3962 87.7803 93.6924C87.32 93.9886 86.7754 94.1367 86.1465 94.1367C85.75 94.1367 85.4014 94.0843 85.1006 93.9795C84.7998 93.8747 84.5423 93.7334 84.3281 93.5557C84.1139 93.3779 83.9362 93.1842 83.7949 92.9746H83.7129C83.7266 93.1523 83.7425 93.3665 83.7607 93.6172C83.7835 93.8678 83.7949 94.0866 83.7949 94.2734V97.3496H82.6533V86.5078H83.5898L83.7402 87.6152H83.7949C83.9408 87.3874 84.1185 87.18 84.3281 86.9932C84.5378 86.8018 84.793 86.6514 85.0938 86.542C85.3991 86.4281 85.7591 86.3711 86.1738 86.3711ZM85.9756 87.3281C85.4561 87.3281 85.0368 87.4284 84.7178 87.6289C84.4033 87.8294 84.1732 88.1302 84.0273 88.5312C83.8815 88.9277 83.804 89.4268 83.7949 90.0283V90.2471C83.7949 90.8805 83.8633 91.416 84 91.8535C84.1413 92.291 84.3714 92.6237 84.6904 92.8516C85.014 93.0794 85.4469 93.1934 85.9893 93.1934C86.4541 93.1934 86.8415 93.068 87.1514 92.8174C87.4613 92.5667 87.6914 92.2181 87.8418 91.7715C87.9967 91.3203 88.0742 90.8031 88.0742 90.2197C88.0742 89.3356 87.901 88.6338 87.5547 88.1143C87.2129 87.5902 86.6865 87.3281 85.9756 87.3281ZM94.6299 86.3711C94.7803 86.3711 94.9375 86.3802 95.1016 86.3984C95.2656 86.4121 95.4115 86.4326 95.5391 86.46L95.3955 87.5127C95.2725 87.4808 95.1357 87.4557 94.9854 87.4375C94.835 87.4193 94.6937 87.4102 94.5615 87.4102C94.2607 87.4102 93.9759 87.4717 93.707 87.5947C93.4427 87.7132 93.2103 87.8864 93.0098 88.1143C92.8092 88.3376 92.652 88.6087 92.5381 88.9277C92.4242 89.2422 92.3672 89.5931 92.3672 89.9805V94H91.2256V86.5078H92.1689L92.292 87.8887H92.3398C92.4948 87.6107 92.6816 87.3577 92.9004 87.1299C93.1191 86.8975 93.3721 86.7129 93.6592 86.5762C93.9508 86.4395 94.2744 86.3711 94.6299 86.3711ZM99.8389 86.3711C100.477 86.3711 101.024 86.5124 101.479 86.7949C101.935 87.0775 102.284 87.474 102.525 87.9844C102.767 88.4902 102.888 89.0827 102.888 89.7617V90.4658H97.7129C97.7266 91.3454 97.9453 92.0153 98.3691 92.4756C98.793 92.9359 99.39 93.166 100.16 93.166C100.634 93.166 101.053 93.1227 101.418 93.0361C101.783 92.9495 102.161 92.8219 102.553 92.6533V93.6514C102.174 93.82 101.799 93.943 101.425 94.0205C101.056 94.098 100.618 94.1367 100.112 94.1367C99.3923 94.1367 98.7633 93.9909 98.2256 93.6992C97.6924 93.403 97.2777 92.9701 96.9814 92.4004C96.6852 91.8307 96.5371 91.1335 96.5371 90.3086C96.5371 89.502 96.6715 88.8047 96.9404 88.2168C97.2139 87.6243 97.5967 87.1686 98.0889 86.8496C98.5856 86.5306 99.1689 86.3711 99.8389 86.3711ZM99.8252 87.3008C99.2191 87.3008 98.736 87.499 98.376 87.8955C98.016 88.292 97.8018 88.8457 97.7334 89.5566H101.698C101.694 89.11 101.623 88.7181 101.486 88.3809C101.354 88.0391 101.151 87.7747 100.878 87.5879C100.604 87.3965 100.254 87.3008 99.8252 87.3008ZM106.463 94L103.619 86.5078H104.836L106.483 91.04C106.597 91.3499 106.714 91.6917 106.832 92.0654C106.951 92.4391 107.033 92.7399 107.078 92.9678H107.126C107.181 92.7399 107.272 92.4391 107.399 92.0654C107.527 91.6872 107.643 91.3454 107.748 91.04L109.396 86.5078H110.612L107.762 94H106.463ZM111.645 93.2891C111.645 92.9701 111.722 92.7445 111.877 92.6123C112.032 92.4756 112.221 92.4072 112.444 92.4072C112.677 92.4072 112.873 92.4756 113.032 92.6123C113.192 92.7445 113.271 92.9701 113.271 93.2891C113.271 93.6035 113.192 93.8337 113.032 93.9795C112.873 94.1208 112.677 94.1914 112.444 94.1914C112.221 94.1914 112.032 94.1208 111.877 93.9795C111.722 93.8337 111.645 93.6035 111.645 93.2891ZM124.804 86.3369C124.804 86.7835 124.717 87.1709 124.544 87.499C124.371 87.8271 124.129 88.096 123.819 88.3057C123.509 88.5107 123.145 88.6543 122.726 88.7363V88.791C123.519 88.8913 124.113 89.1465 124.51 89.5566C124.911 89.9668 125.111 90.5046 125.111 91.1699C125.111 91.7487 124.975 92.2614 124.701 92.708C124.432 93.1546 124.018 93.5055 123.457 93.7607C122.901 94.0114 122.188 94.1367 121.317 94.1367C120.789 94.1367 120.299 94.0934 119.848 94.0068C119.401 93.9248 118.973 93.7858 118.562 93.5898V92.5234C118.977 92.7285 119.428 92.8903 119.916 93.0088C120.404 93.1227 120.875 93.1797 121.331 93.1797C122.243 93.1797 122.901 92.9997 123.307 92.6396C123.712 92.2751 123.915 91.7783 123.915 91.1494C123.915 90.7165 123.801 90.3678 123.573 90.1035C123.35 89.8346 123.026 89.6387 122.603 89.5156C122.183 89.388 121.677 89.3242 121.085 89.3242H120.087V88.3535H121.092C121.634 88.3535 122.094 88.2738 122.473 88.1143C122.851 87.9548 123.138 87.7314 123.334 87.4443C123.535 87.1527 123.635 86.8086 123.635 86.4121C123.635 85.9062 123.466 85.5166 123.129 85.2432C122.792 84.9652 122.334 84.8262 121.755 84.8262C121.399 84.8262 121.076 84.8626 120.784 84.9355C120.493 85.0085 120.219 85.1087 119.964 85.2363C119.709 85.3639 119.453 85.512 119.198 85.6807L118.624 84.9014C118.989 84.6188 119.433 84.375 119.957 84.1699C120.481 83.9648 121.076 83.8623 121.741 83.8623C122.762 83.8623 123.528 84.0947 124.038 84.5596C124.549 85.0244 124.804 85.6169 124.804 86.3369ZM133.239 88.9893C133.239 89.8005 133.178 90.5251 133.055 91.1631C132.932 91.8011 132.738 92.3411 132.474 92.7832C132.209 93.2253 131.868 93.5625 131.448 93.7949C131.029 94.0228 130.525 94.1367 129.938 94.1367C129.195 94.1367 128.579 93.9339 128.092 93.5283C127.609 93.1227 127.246 92.5371 127.005 91.7715C126.768 91.0013 126.649 90.0739 126.649 88.9893C126.649 87.9229 126.757 87.0068 126.971 86.2412C127.189 85.471 127.54 84.8809 128.023 84.4707C128.507 84.056 129.145 83.8486 129.938 83.8486C130.689 83.8486 131.309 84.0537 131.797 84.4639C132.285 84.8695 132.647 85.4574 132.884 86.2275C133.121 86.9932 133.239 87.9137 133.239 88.9893ZM127.791 88.9893C127.791 89.9189 127.862 90.6937 128.003 91.3135C128.144 91.9333 128.372 92.3981 128.687 92.708C129.006 93.0133 129.423 93.166 129.938 93.166C130.452 93.166 130.867 93.0133 131.182 92.708C131.501 92.4027 131.731 91.9401 131.872 91.3203C132.018 90.7005 132.091 89.9235 132.091 88.9893C132.091 88.0732 132.02 87.3076 131.879 86.6924C131.738 86.0726 131.51 85.6077 131.195 85.2979C130.881 84.9834 130.462 84.8262 129.938 84.8262C129.413 84.8262 128.994 84.9834 128.68 85.2979C128.365 85.6077 128.137 86.0726 127.996 86.6924C127.859 87.3076 127.791 88.0732 127.791 88.9893ZM141.456 94.1367C140.508 94.1367 139.756 93.8132 139.2 93.166C138.649 92.5189 138.373 91.5573 138.373 90.2812C138.373 88.9915 138.656 88.0186 139.221 87.3623C139.786 86.7015 140.538 86.3711 141.477 86.3711C141.873 86.3711 142.219 86.4235 142.516 86.5283C142.812 86.6331 143.067 86.7744 143.281 86.9521C143.495 87.1253 143.675 87.3236 143.821 87.5469H143.903C143.885 87.4056 143.867 87.2119 143.849 86.9658C143.83 86.7197 143.821 86.5192 143.821 86.3643V83.3633H144.956V94H144.04L143.869 92.9336H143.821C143.68 93.1569 143.5 93.3597 143.281 93.542C143.067 93.7243 142.81 93.8701 142.509 93.9795C142.213 94.0843 141.862 94.1367 141.456 94.1367ZM141.634 93.1934C142.436 93.1934 143.003 92.9655 143.336 92.5098C143.669 92.054 143.835 91.3773 143.835 90.4795V90.2744C143.835 89.3219 143.675 88.5905 143.356 88.0801C143.042 87.5697 142.468 87.3145 141.634 87.3145C140.937 87.3145 140.415 87.5833 140.068 88.1211C139.722 88.6543 139.549 89.3835 139.549 90.3086C139.549 91.2292 139.72 91.9401 140.062 92.4414C140.408 92.9427 140.932 93.1934 141.634 93.1934ZM150.165 86.3848C151.058 86.3848 151.721 86.5853 152.154 86.9863C152.587 87.3874 152.804 88.0277 152.804 88.9072V94H151.977L151.758 92.8926H151.703C151.493 93.166 151.275 93.3962 151.047 93.583C150.819 93.7653 150.555 93.9043 150.254 94C149.958 94.0911 149.593 94.1367 149.16 94.1367C148.704 94.1367 148.299 94.057 147.943 93.8975C147.592 93.738 147.314 93.4964 147.109 93.1729C146.909 92.8493 146.809 92.4391 146.809 91.9424C146.809 91.195 147.105 90.6208 147.697 90.2197C148.29 89.8187 149.192 89.5999 150.404 89.5635L151.696 89.5088V89.0508C151.696 88.4036 151.557 87.9502 151.279 87.6904C151.001 87.4307 150.609 87.3008 150.104 87.3008C149.712 87.3008 149.338 87.3577 148.982 87.4717C148.627 87.5856 148.29 87.7201 147.971 87.875L147.622 87.0137C147.959 86.8405 148.347 86.6924 148.784 86.5693C149.222 86.4463 149.682 86.3848 150.165 86.3848ZM151.683 90.3086L150.541 90.3564C149.607 90.3929 148.948 90.5456 148.565 90.8145C148.183 91.0833 147.991 91.4639 147.991 91.9561C147.991 92.3844 148.121 92.7012 148.381 92.9062C148.641 93.1113 148.985 93.2139 149.413 93.2139C150.078 93.2139 150.623 93.0293 151.047 92.6602C151.471 92.291 151.683 91.7373 151.683 90.999V90.3086ZM153.959 86.5078H155.176L156.83 90.8555C156.926 91.1107 157.015 91.3568 157.097 91.5938C157.179 91.8262 157.252 92.0495 157.315 92.2637C157.379 92.4779 157.429 92.6852 157.466 92.8857H157.514C157.577 92.6579 157.669 92.3594 157.787 91.9902C157.906 91.6165 158.033 91.236 158.17 90.8486L159.735 86.5078H160.959L157.698 95.1006C157.525 95.5609 157.322 95.9619 157.09 96.3037C156.862 96.6455 156.584 96.9076 156.256 97.0898C155.928 97.2767 155.531 97.3701 155.066 97.3701C154.852 97.3701 154.663 97.3564 154.499 97.3291C154.335 97.3063 154.194 97.279 154.075 97.2471V96.3379C154.175 96.3607 154.296 96.3812 154.438 96.3994C154.583 96.4176 154.734 96.4268 154.889 96.4268C155.171 96.4268 155.415 96.3721 155.62 96.2627C155.83 96.1579 156.01 96.0029 156.16 95.7979C156.311 95.5928 156.44 95.349 156.55 95.0664L156.96 94.0137L153.959 86.5078ZM167.002 91.9492C167.002 92.4277 166.881 92.8311 166.64 93.1592C166.403 93.4827 166.061 93.7266 165.614 93.8906C165.172 94.0547 164.644 94.1367 164.028 94.1367C163.504 94.1367 163.051 94.0957 162.668 94.0137C162.285 93.9316 161.95 93.8154 161.663 93.665V92.6191C161.968 92.7695 162.333 92.9062 162.757 93.0293C163.181 93.1523 163.614 93.2139 164.056 93.2139C164.703 93.2139 165.172 93.109 165.464 92.8994C165.756 92.6898 165.901 92.4049 165.901 92.0449C165.901 91.8398 165.842 91.6598 165.724 91.5049C165.61 91.3454 165.416 91.1927 165.143 91.0469C164.869 90.8965 164.491 90.7324 164.008 90.5547C163.529 90.3724 163.115 90.1924 162.764 90.0146C162.417 89.8324 162.148 89.6113 161.957 89.3516C161.77 89.0918 161.677 88.7546 161.677 88.3398C161.677 87.7064 161.932 87.221 162.442 86.8838C162.957 86.542 163.632 86.3711 164.466 86.3711C164.917 86.3711 165.339 86.4167 165.73 86.5078C166.127 86.5944 166.496 86.7129 166.838 86.8633L166.455 87.7725C166.145 87.6403 165.815 87.5286 165.464 87.4375C165.113 87.3464 164.755 87.3008 164.391 87.3008C163.867 87.3008 163.463 87.3874 163.181 87.5605C162.903 87.7337 162.764 87.9707 162.764 88.2715C162.764 88.5039 162.827 88.6953 162.955 88.8457C163.087 88.9961 163.297 89.1374 163.584 89.2695C163.871 89.4017 164.249 89.5566 164.719 89.7344C165.188 89.9076 165.594 90.0876 165.936 90.2744C166.277 90.4567 166.539 90.68 166.722 90.9443C166.909 91.2041 167.002 91.5391 167.002 91.9492Z" fill="#6C788A"/>
</g>
<path id="183,651 Mentions" d="M18.915 67H17.8076V59.918C17.8076 59.6491 17.8076 59.4189 17.8076 59.2275C17.8122 59.0316 17.8167 58.8538 17.8213 58.6943C17.8304 58.5303 17.8418 58.3639 17.8555 58.1953C17.7142 58.3411 17.582 58.4665 17.459 58.5713C17.3359 58.6715 17.1833 58.7969 17.001 58.9473L15.8594 59.8633L15.2646 59.0908L17.9717 57.0059H18.915V67ZM26.0039 56.8623C26.5827 56.8623 27.0954 56.9535 27.542 57.1357C27.9886 57.318 28.3372 57.5869 28.5879 57.9424C28.8431 58.2933 28.9707 58.7262 28.9707 59.2412C28.9707 59.6468 28.8818 60.0023 28.7041 60.3076C28.5309 60.6084 28.2962 60.8727 28 61.1006C27.7038 61.3239 27.3757 61.5244 27.0156 61.7021C27.444 61.8981 27.8291 62.1191 28.1709 62.3652C28.5173 62.6113 28.7907 62.9007 28.9912 63.2334C29.1917 63.5661 29.292 63.9603 29.292 64.416C29.292 64.9766 29.1553 65.4619 28.8818 65.8721C28.613 66.2777 28.2347 66.5898 27.7471 66.8086C27.2594 67.0273 26.6875 67.1367 26.0312 67.1367C25.3249 67.1367 24.7233 67.0319 24.2266 66.8223C23.7344 66.6081 23.3584 66.3027 23.0986 65.9062C22.8434 65.5052 22.7158 65.0244 22.7158 64.4639C22.7158 64.0036 22.8138 63.6048 23.0098 63.2676C23.2057 62.9258 23.4655 62.6318 23.7891 62.3857C24.1126 62.1396 24.4658 61.9323 24.8486 61.7637C24.516 61.5814 24.2106 61.374 23.9326 61.1416C23.6592 60.9092 23.4404 60.638 23.2764 60.3281C23.1169 60.0137 23.0371 59.6491 23.0371 59.2344C23.0371 58.7285 23.1647 58.3001 23.4199 57.9492C23.6797 57.5938 24.0329 57.3249 24.4795 57.1426C24.9307 56.9557 25.4388 56.8623 26.0039 56.8623ZM23.8301 64.4707C23.8301 64.9811 24.0101 65.4027 24.3701 65.7354C24.7301 66.0635 25.2747 66.2275 26.0039 66.2275C26.6966 66.2275 27.2321 66.0635 27.6104 65.7354C27.9886 65.4027 28.1777 64.9674 28.1777 64.4297C28.1777 64.097 28.0911 63.8053 27.918 63.5547C27.7448 63.2995 27.4987 63.0716 27.1797 62.8711C26.8607 62.6706 26.4847 62.4883 26.0518 62.3242L25.8057 62.2354C25.3864 62.4085 25.0286 62.6022 24.7324 62.8164C24.4408 63.026 24.2174 63.2653 24.0625 63.5342C23.9076 63.8031 23.8301 64.1152 23.8301 64.4707ZM25.9902 57.792C25.4525 57.792 25.0127 57.9219 24.6709 58.1816C24.3291 58.4368 24.1582 58.806 24.1582 59.2891C24.1582 59.6354 24.2402 59.9294 24.4043 60.1709C24.5729 60.4079 24.8008 60.613 25.0879 60.7861C25.375 60.9548 25.6963 61.112 26.0518 61.2578C26.3981 61.112 26.7057 60.9525 26.9746 60.7793C27.2435 60.6016 27.4554 60.3919 27.6104 60.1504C27.7653 59.9089 27.8428 59.6195 27.8428 59.2822C27.8428 58.7992 27.6719 58.43 27.3301 58.1748C26.9928 57.9196 26.5462 57.792 25.9902 57.792ZM36.8936 59.3369C36.8936 59.7835 36.807 60.1709 36.6338 60.499C36.4606 60.8271 36.2191 61.096 35.9092 61.3057C35.5993 61.5107 35.2347 61.6543 34.8154 61.7363V61.791C35.6084 61.8913 36.2031 62.1465 36.5996 62.5566C37.0007 62.9668 37.2012 63.5046 37.2012 64.1699C37.2012 64.7487 37.0645 65.2614 36.791 65.708C36.5221 66.1546 36.1074 66.5055 35.5469 66.7607C34.9909 67.0114 34.2777 67.1367 33.4072 67.1367C32.8786 67.1367 32.3887 67.0934 31.9375 67.0068C31.4909 66.9248 31.0625 66.7858 30.6523 66.5898V65.5234C31.0671 65.7285 31.5182 65.8903 32.0059 66.0088C32.4935 66.1227 32.9652 66.1797 33.4209 66.1797C34.3324 66.1797 34.9909 65.9997 35.3965 65.6396C35.8021 65.2751 36.0049 64.7783 36.0049 64.1494C36.0049 63.7165 35.891 63.3678 35.6631 63.1035C35.4398 62.8346 35.1162 62.6387 34.6924 62.5156C34.2731 62.388 33.7673 62.3242 33.1748 62.3242H32.1768V61.3535H33.1816C33.724 61.3535 34.1842 61.2738 34.5625 61.1143C34.9408 60.9548 35.2279 60.7314 35.4238 60.4443C35.6243 60.1527 35.7246 59.8086 35.7246 59.4121C35.7246 58.9062 35.556 58.5166 35.2188 58.2432C34.8815 57.9652 34.4235 57.8262 33.8447 57.8262C33.4893 57.8262 33.1657 57.8626 32.874 57.9355C32.5824 58.0085 32.3089 58.1087 32.0537 58.2363C31.7985 58.3639 31.5433 58.512 31.2881 58.6807L30.7139 57.9014C31.0785 57.6188 31.5228 57.375 32.0469 57.1699C32.571 56.9648 33.1657 56.8623 33.8311 56.8623C34.8519 56.8623 35.6175 57.0947 36.1279 57.5596C36.6383 58.0244 36.8936 58.6169 36.8936 59.3369ZM40.5303 65.373L40.6191 65.5303C40.5371 65.863 40.4323 66.2184 40.3047 66.5967C40.1816 66.9749 40.0449 67.3532 39.8945 67.7314C39.7487 68.1143 39.6006 68.472 39.4502 68.8047H38.6025C38.6982 68.4401 38.7917 68.055 38.8828 67.6494C38.974 67.2484 39.056 66.8519 39.1289 66.46C39.2064 66.0635 39.2679 65.7012 39.3135 65.373H40.5303ZM42.4512 62.7275C42.4512 62.126 42.4922 61.5381 42.5742 60.9639C42.6608 60.3896 42.8044 59.8564 43.0049 59.3643C43.2054 58.8675 43.4788 58.4323 43.8252 58.0586C44.1715 57.6849 44.6022 57.3932 45.1172 57.1836C45.6367 56.9694 46.2588 56.8623 46.9834 56.8623C47.1885 56.8623 47.4095 56.8737 47.6465 56.8965C47.8835 56.9147 48.0794 56.9466 48.2344 56.9922V57.9697C48.0658 57.9105 47.8721 57.8672 47.6533 57.8398C47.4391 57.8125 47.2227 57.7988 47.0039 57.7988C46.1562 57.7988 45.4886 57.9834 45.001 58.3525C44.5179 58.7217 44.1693 59.223 43.9551 59.8564C43.7409 60.4854 43.6178 61.194 43.5859 61.9824H43.6611C43.8024 61.7546 43.9824 61.5495 44.2012 61.3672C44.4199 61.1803 44.6842 61.0322 44.9941 60.9229C45.3086 60.8135 45.6732 60.7588 46.0879 60.7588C46.6712 60.7588 47.1794 60.8773 47.6123 61.1143C48.0498 61.3512 48.387 61.6953 48.624 62.1465C48.8656 62.5977 48.9863 63.1445 48.9863 63.7871C48.9863 64.4753 48.8587 65.07 48.6035 65.5713C48.3483 66.0726 47.9837 66.46 47.5098 66.7334C47.0404 67.0023 46.4798 67.1367 45.8281 67.1367C45.3405 67.1367 44.8916 67.0433 44.4814 66.8564C44.0713 66.6696 43.7135 66.3916 43.4082 66.0225C43.1074 65.6533 42.8727 65.1953 42.7041 64.6484C42.5355 64.097 42.4512 63.4567 42.4512 62.7275ZM45.8145 66.1797C46.4342 66.1797 46.931 65.9814 47.3047 65.585C47.6784 65.1885 47.8652 64.5892 47.8652 63.7871C47.8652 63.1309 47.6989 62.6113 47.3662 62.2285C47.0335 61.8457 46.5322 61.6543 45.8623 61.6543C45.4066 61.6543 45.0101 61.75 44.6729 61.9414C44.3356 62.1283 44.0736 62.3652 43.8867 62.6523C43.6999 62.9395 43.6064 63.2311 43.6064 63.5273C43.6064 63.8281 43.6497 64.1335 43.7363 64.4434C43.8275 64.7533 43.9642 65.0404 44.1465 65.3047C44.3288 65.569 44.5589 65.7809 44.8369 65.9404C45.1149 66.0999 45.4408 66.1797 45.8145 66.1797ZM53.5186 60.8887C54.1976 60.8887 54.7878 61.0049 55.2891 61.2373C55.7904 61.4652 56.1777 61.7979 56.4512 62.2354C56.7292 62.6729 56.8682 63.2038 56.8682 63.8281C56.8682 64.5117 56.7201 65.1019 56.4238 65.5986C56.1276 66.0908 55.7015 66.4714 55.1455 66.7402C54.5895 67.0046 53.9242 67.1367 53.1494 67.1367C52.6299 67.1367 52.1468 67.0911 51.7002 67C51.2536 66.9089 50.8776 66.7721 50.5723 66.5898V65.5098C50.9049 65.7103 51.3083 65.8698 51.7822 65.9883C52.2562 66.1068 52.7165 66.166 53.1631 66.166C53.6689 66.166 54.111 66.0863 54.4893 65.9268C54.8721 65.7627 55.1683 65.5166 55.3779 65.1885C55.5921 64.8558 55.6992 64.4388 55.6992 63.9375C55.6992 63.2721 55.4941 62.7594 55.084 62.3994C54.6784 62.0348 54.0358 61.8525 53.1562 61.8525C52.8737 61.8525 52.5638 61.8753 52.2266 61.9209C51.8893 61.9665 51.6113 62.0166 51.3926 62.0713L50.8184 61.6953L51.2012 57.0059H56.1709V58.0449H52.1719L51.9189 61.0596C52.0921 61.0231 52.3154 60.9867 52.5889 60.9502C52.8623 60.9092 53.1722 60.8887 53.5186 60.8887ZM62.5967 67H61.4893V59.918C61.4893 59.6491 61.4893 59.4189 61.4893 59.2275C61.4938 59.0316 61.4984 58.8538 61.5029 58.6943C61.512 58.5303 61.5234 58.3639 61.5371 58.1953C61.3958 58.3411 61.2637 58.4665 61.1406 58.5713C61.0176 58.6715 60.8649 58.7969 60.6826 58.9473L59.541 59.8633L58.9463 59.0908L61.6533 57.0059H62.5967V67ZM75.0928 67L71.7363 58.1543H71.6816C71.6999 58.3411 71.7158 58.569 71.7295 58.8379C71.7432 59.1068 71.7546 59.4007 71.7637 59.7197C71.7728 60.0342 71.7773 60.3555 71.7773 60.6836V67H70.6973V57.0059H72.4199L75.585 65.3184H75.6328L78.8457 57.0059H80.5547V67H79.4062V60.6016C79.4062 60.3053 79.4108 60.0091 79.4199 59.7129C79.429 59.4121 79.4404 59.1296 79.4541 58.8652C79.4678 58.5964 79.4814 58.3639 79.4951 58.168H79.4404L76.043 67H75.0928ZM86.0029 59.3711C86.641 59.3711 87.1878 59.5124 87.6436 59.7949C88.0993 60.0775 88.4479 60.474 88.6895 60.9844C88.931 61.4902 89.0518 62.0827 89.0518 62.7617V63.4658H83.877C83.8906 64.3454 84.1094 65.0153 84.5332 65.4756C84.957 65.9359 85.554 66.166 86.3242 66.166C86.7982 66.166 87.2174 66.1227 87.582 66.0361C87.9466 65.9495 88.3249 65.8219 88.7168 65.6533V66.6514C88.3385 66.82 87.9626 66.943 87.5889 67.0205C87.2197 67.098 86.7822 67.1367 86.2764 67.1367C85.5563 67.1367 84.9274 66.9909 84.3896 66.6992C83.8564 66.403 83.4417 65.9701 83.1455 65.4004C82.8493 64.8307 82.7012 64.1335 82.7012 63.3086C82.7012 62.502 82.8356 61.8047 83.1045 61.2168C83.3779 60.6243 83.7607 60.1686 84.2529 59.8496C84.7497 59.5306 85.333 59.3711 86.0029 59.3711ZM85.9893 60.3008C85.3831 60.3008 84.9001 60.499 84.54 60.8955C84.18 61.292 83.9658 61.8457 83.8975 62.5566H87.8623C87.8577 62.11 87.7871 61.7181 87.6504 61.3809C87.5182 61.0391 87.3154 60.7747 87.042 60.5879C86.7686 60.3965 86.4176 60.3008 85.9893 60.3008ZM94.5273 59.3711C95.416 59.3711 96.0882 59.5898 96.5439 60.0273C96.9997 60.4603 97.2275 61.1576 97.2275 62.1191V67H96.1064V62.1943C96.1064 61.57 95.9629 61.1029 95.6758 60.793C95.3932 60.4831 94.958 60.3281 94.3701 60.3281C93.5407 60.3281 92.9574 60.5628 92.6201 61.0322C92.2829 61.5016 92.1143 62.1829 92.1143 63.0762V67H90.9795V59.5078H91.8955L92.0664 60.5879H92.1279C92.2874 60.3236 92.4902 60.1025 92.7363 59.9248C92.9824 59.7425 93.2581 59.6058 93.5635 59.5146C93.8688 59.4189 94.1901 59.3711 94.5273 59.3711ZM101.985 66.207C102.172 66.207 102.364 66.1911 102.56 66.1592C102.756 66.1273 102.915 66.0885 103.038 66.043V66.9248C102.906 66.984 102.721 67.0342 102.484 67.0752C102.252 67.1162 102.024 67.1367 101.801 67.1367C101.404 67.1367 101.044 67.0684 100.721 66.9316C100.397 66.7904 100.137 66.5534 99.9414 66.2207C99.75 65.888 99.6543 65.4277 99.6543 64.8398V60.3965H98.5879V59.8428L99.6611 59.3984L100.112 57.7715H100.796V59.5078H102.99V60.3965H100.796V64.8057C100.796 65.2751 100.903 65.626 101.117 65.8584C101.336 66.0908 101.625 66.207 101.985 66.207ZM105.69 59.5078V67H104.556V59.5078H105.69ZM105.137 56.7051C105.324 56.7051 105.483 56.7666 105.615 56.8896C105.752 57.0081 105.82 57.195 105.82 57.4502C105.82 57.7008 105.752 57.8877 105.615 58.0107C105.483 58.1338 105.324 58.1953 105.137 58.1953C104.941 58.1953 104.777 58.1338 104.645 58.0107C104.517 57.8877 104.453 57.7008 104.453 57.4502C104.453 57.195 104.517 57.0081 104.645 56.8896C104.777 56.7666 104.941 56.7051 105.137 56.7051ZM114.557 63.2402C114.557 63.8555 114.477 64.4046 114.317 64.8877C114.158 65.3708 113.928 65.7786 113.627 66.1113C113.326 66.444 112.962 66.6992 112.533 66.877C112.109 67.0501 111.629 67.1367 111.091 67.1367C110.59 67.1367 110.129 67.0501 109.71 66.877C109.295 66.6992 108.935 66.444 108.63 66.1113C108.329 65.7786 108.094 65.3708 107.926 64.8877C107.762 64.4046 107.68 63.8555 107.68 63.2402C107.68 62.4199 107.819 61.7227 108.097 61.1484C108.375 60.5697 108.771 60.1299 109.286 59.8291C109.806 59.5238 110.423 59.3711 111.139 59.3711C111.822 59.3711 112.419 59.5238 112.93 59.8291C113.445 60.1344 113.843 60.5765 114.126 61.1553C114.413 61.7295 114.557 62.4245 114.557 63.2402ZM108.855 63.2402C108.855 63.8418 108.935 64.3636 109.095 64.8057C109.254 65.2477 109.5 65.5895 109.833 65.8311C110.166 66.0726 110.594 66.1934 111.118 66.1934C111.638 66.1934 112.064 66.0726 112.396 65.8311C112.734 65.5895 112.982 65.2477 113.142 64.8057C113.301 64.3636 113.381 63.8418 113.381 63.2402C113.381 62.6432 113.301 62.1283 113.142 61.6953C112.982 61.2578 112.736 60.9206 112.403 60.6836C112.071 60.4466 111.64 60.3281 111.111 60.3281C110.332 60.3281 109.76 60.5856 109.396 61.1006C109.035 61.6156 108.855 62.3288 108.855 63.2402ZM120.066 59.3711C120.955 59.3711 121.627 59.5898 122.083 60.0273C122.539 60.4603 122.767 61.1576 122.767 62.1191V67H121.646V62.1943C121.646 61.57 121.502 61.1029 121.215 60.793C120.932 60.4831 120.497 60.3281 119.909 60.3281C119.08 60.3281 118.496 60.5628 118.159 61.0322C117.822 61.5016 117.653 62.1829 117.653 63.0762V67H116.519V59.5078H117.435L117.605 60.5879H117.667C117.826 60.3236 118.029 60.1025 118.275 59.9248C118.521 59.7425 118.797 59.6058 119.103 59.5146C119.408 59.4189 119.729 59.3711 120.066 59.3711ZM129.951 64.9492C129.951 65.4277 129.83 65.8311 129.589 66.1592C129.352 66.4827 129.01 66.7266 128.563 66.8906C128.121 67.0547 127.593 67.1367 126.978 67.1367C126.453 67.1367 126 67.0957 125.617 67.0137C125.234 66.9316 124.899 66.8154 124.612 66.665V65.6191C124.918 65.7695 125.282 65.9062 125.706 66.0293C126.13 66.1523 126.563 66.2139 127.005 66.2139C127.652 66.2139 128.121 66.109 128.413 65.8994C128.705 65.6898 128.851 65.4049 128.851 65.0449C128.851 64.8398 128.791 64.6598 128.673 64.5049C128.559 64.3454 128.365 64.1927 128.092 64.0469C127.818 63.8965 127.44 63.7324 126.957 63.5547C126.479 63.3724 126.064 63.1924 125.713 63.0146C125.367 62.8324 125.098 62.6113 124.906 62.3516C124.719 62.0918 124.626 61.7546 124.626 61.3398C124.626 60.7064 124.881 60.221 125.392 59.8838C125.907 59.542 126.581 59.3711 127.415 59.3711C127.866 59.3711 128.288 59.4167 128.68 59.5078C129.076 59.5944 129.445 59.7129 129.787 59.8633L129.404 60.7725C129.094 60.6403 128.764 60.5286 128.413 60.4375C128.062 60.3464 127.704 60.3008 127.34 60.3008C126.816 60.3008 126.412 60.3874 126.13 60.5605C125.852 60.7337 125.713 60.9707 125.713 61.2715C125.713 61.5039 125.777 61.6953 125.904 61.8457C126.036 61.9961 126.246 62.1374 126.533 62.2695C126.82 62.4017 127.199 62.5566 127.668 62.7344C128.137 62.9076 128.543 63.0876 128.885 63.2744C129.227 63.4567 129.489 63.68 129.671 63.9443C129.858 64.2041 129.951 64.5391 129.951 64.9492Z" fill="#16161A"/>
</g>
</g>
</g>
<g id="Frame 427323304">
<rect x="277.5" width="267.5" height="109" rx="4" fill="#F7F7F7"/>
<g id="Frame 427323270">
<g id="Frame 427319689_2">
<g id="Mask Group_2">
<g id="Group 86_2">
<rect id="Rectangle 56_2" x="291.5" y="10" width="32" height="32" rx="4" fill="#ECECFF"/>
</g>
<path id="Vector_2" d="M307.501 37.4275C301.189 37.4275 296.072 32.3109 296.072 25.9989C296.072 19.6869 301.189 14.5703 307.501 14.5703C313.813 14.5703 318.929 19.6869 318.929 25.9989C318.929 32.3109 313.813 37.4275 307.501 37.4275ZM315.124 25.9989C315.112 25.6772 315.007 25.3658 314.823 25.1022C314.638 24.8386 314.381 24.634 314.082 24.5132C313.784 24.3924 313.457 24.3605 313.141 24.4213C312.825 24.4822 312.533 24.6331 312.301 24.856C311.001 23.9723 309.472 23.484 307.901 23.4503L308.644 19.8846L311.089 20.3989C311.118 20.6691 311.243 20.9202 311.44 21.107C311.638 21.2938 311.896 21.404 312.167 21.418C312.438 21.432 312.706 21.3487 312.922 21.1832C313.137 21.0177 313.287 20.7807 313.343 20.5149C313.4 20.249 313.36 19.9717 313.231 19.7326C313.101 19.4936 312.891 19.3085 312.637 19.2105C312.384 19.1126 312.104 19.1083 311.847 19.1983C311.591 19.2883 311.375 19.4668 311.238 19.7017L308.438 19.1417C308.392 19.1317 308.345 19.1308 308.299 19.1392C308.253 19.1476 308.209 19.1651 308.169 19.1906C308.13 19.2161 308.096 19.2491 308.07 19.2878C308.043 19.3265 308.025 19.3701 308.015 19.416L307.169 23.3817C305.578 23.4057 304.029 23.8943 302.712 24.7875C302.536 24.6217 302.326 24.4962 302.096 24.4197C301.867 24.3432 301.624 24.3176 301.383 24.3445C301.143 24.3714 300.911 24.4503 300.704 24.5756C300.497 24.701 300.32 24.8698 300.185 25.0705C300.05 25.2711 299.96 25.4987 299.921 25.7375C299.883 25.9764 299.897 26.2207 299.962 26.4536C300.028 26.6865 300.143 26.9024 300.3 27.0864C300.457 27.2703 300.652 27.4179 300.872 27.5189C300.859 27.6863 300.859 27.8544 300.872 28.0217C300.872 30.5817 303.855 32.6617 307.535 32.6617C311.215 32.6617 314.198 30.5817 314.198 28.0217C314.211 27.8544 314.211 27.6863 314.198 27.5189C314.48 27.3787 314.717 27.1616 314.88 26.8926C315.044 26.6236 315.129 26.3138 315.124 25.9989ZM303.695 27.1417C303.695 26.8386 303.816 26.5479 304.03 26.3336C304.244 26.1193 304.535 25.9989 304.838 25.9989C305.141 25.9989 305.432 26.1193 305.646 26.3336C305.86 26.5479 305.981 26.8386 305.981 27.1417C305.981 27.4448 305.86 27.7355 305.646 27.9499C305.432 28.1642 305.141 28.2846 304.838 28.2846C304.535 28.2846 304.244 28.1642 304.03 27.9499C303.816 27.7355 303.695 27.4448 303.695 27.1417ZM310.335 30.2846C309.524 30.8956 308.527 31.2066 307.512 31.1646C306.498 31.2066 305.5 30.8956 304.689 30.2846C304.641 30.2254 304.616 30.1502 304.62 30.0737C304.623 29.9972 304.656 29.9248 304.71 29.8706C304.764 29.8165 304.836 29.7844 304.913 29.7806C304.989 29.7769 305.064 29.8017 305.124 29.8503C305.811 30.3543 306.65 30.6084 307.501 30.5703C308.353 30.6167 309.196 30.3707 309.889 29.8732C309.919 29.8404 309.954 29.8141 309.994 29.7957C310.034 29.7773 310.077 29.7673 310.121 29.7664C310.165 29.7654 310.209 29.7735 310.249 29.7901C310.29 29.8067 310.327 29.8315 310.357 29.8629C310.388 29.8943 310.412 29.9317 310.427 29.9727C310.443 30.0138 310.45 30.0576 310.448 30.1014C310.446 30.1453 310.435 30.1882 310.415 30.2276C310.396 30.2669 310.369 30.3019 310.335 30.3303V30.2846ZM310.129 28.3303C309.903 28.3303 309.682 28.2633 309.494 28.1377C309.307 28.0121 309.16 27.8336 309.074 27.6248C308.987 27.416 308.964 27.1862 309.009 26.9645C309.053 26.7428 309.161 26.5392 309.321 26.3793C309.481 26.2195 309.685 26.1107 309.906 26.0666C310.128 26.0225 310.358 26.0451 310.567 26.1316C310.776 26.2181 310.954 26.3646 311.08 26.5525C311.205 26.7405 311.272 26.9614 311.272 27.1875C311.278 27.3423 311.253 27.4968 311.198 27.6416C311.142 27.7863 311.058 27.9183 310.95 28.0294C310.842 28.1406 310.713 28.2287 310.57 28.2883C310.427 28.3478 310.273 28.3777 310.118 28.376L310.129 28.3303Z" fill="#5E47EB"/>
</g>
<path id="tittle_2" d="M337.622 21.5059C338.483 21.5059 339.194 21.6107 339.755 21.8203C340.32 22.0299 340.739 22.349 341.013 22.7773C341.291 23.2057 341.43 23.7503 341.43 24.4111C341.43 24.9033 341.339 25.3226 341.156 25.6689C340.974 26.0153 340.735 26.3024 340.438 26.5303C340.142 26.7581 339.826 26.9404 339.488 27.0771L342.325 31.5H340.473L338.06 27.4941H336.453V31.5H334.812V21.5059H337.622ZM337.513 22.873H336.453V26.1406H337.588C338.349 26.1406 338.9 25.9993 339.242 25.7168C339.589 25.4342 339.762 25.0173 339.762 24.4658C339.762 23.887 339.577 23.4769 339.208 23.2354C338.843 22.9938 338.278 22.873 337.513 22.873ZM346.604 23.7891C347.279 23.7891 347.858 23.9281 348.341 24.2061C348.824 24.484 349.195 24.8783 349.455 25.3887C349.715 25.8991 349.845 26.5098 349.845 27.2207V28.082H344.793C344.811 28.8158 345.007 29.3809 345.381 29.7773C345.759 30.1738 346.288 30.3721 346.967 30.3721C347.45 30.3721 347.883 30.3265 348.266 30.2354C348.653 30.1396 349.052 30.0007 349.462 29.8184V31.124C349.084 31.3018 348.699 31.4316 348.307 31.5137C347.915 31.5957 347.445 31.6367 346.898 31.6367C346.156 31.6367 345.502 31.4932 344.937 31.2061C344.376 30.9144 343.936 30.4814 343.617 29.9072C343.303 29.333 343.146 28.6198 343.146 27.7676C343.146 26.9199 343.289 26.1999 343.576 25.6074C343.863 25.015 344.267 24.5638 344.786 24.2539C345.306 23.944 345.912 23.7891 346.604 23.7891ZM346.604 24.999C346.099 24.999 345.688 25.1631 345.374 25.4912C345.064 25.8193 344.882 26.3001 344.827 26.9336H348.272C348.268 26.5553 348.204 26.2204 348.081 25.9287C347.963 25.637 347.78 25.4092 347.534 25.2451C347.293 25.0811 346.983 24.999 346.604 24.999ZM354.199 31.6367C353.297 31.6367 352.572 31.3086 352.025 30.6523C351.483 29.9915 351.212 29.0186 351.212 27.7334C351.212 26.4346 351.488 25.4525 352.039 24.7871C352.595 24.1217 353.326 23.7891 354.233 23.7891C354.616 23.7891 354.951 23.8415 355.238 23.9463C355.525 24.0465 355.771 24.1833 355.977 24.3564C356.186 24.5296 356.364 24.7233 356.51 24.9375H356.585C356.562 24.7962 356.535 24.5934 356.503 24.3291C356.476 24.0602 356.462 23.8118 356.462 23.584V20.8633H358.075V31.5H356.817L356.53 30.4678H356.462C356.325 30.6865 356.152 30.8848 355.942 31.0625C355.737 31.2357 355.491 31.3747 355.204 31.4795C354.922 31.5843 354.587 31.6367 354.199 31.6367ZM354.65 30.3311C355.339 30.3311 355.824 30.1328 356.106 29.7363C356.389 29.3398 356.535 28.7451 356.544 27.9521V27.7402C356.544 26.8926 356.407 26.2432 356.134 25.792C355.86 25.3363 355.361 25.1084 354.637 25.1084C354.058 25.1084 353.616 25.3431 353.311 25.8125C353.01 26.2773 352.859 26.9268 352.859 27.7607C352.859 28.5947 353.01 29.2327 353.311 29.6748C353.616 30.1123 354.062 30.3311 354.65 30.3311ZM362.922 31.6367C362.02 31.6367 361.295 31.3086 360.748 30.6523C360.206 29.9915 359.935 29.0186 359.935 27.7334C359.935 26.4346 360.21 25.4525 360.762 24.7871C361.318 24.1217 362.049 23.7891 362.956 23.7891C363.339 23.7891 363.674 23.8415 363.961 23.9463C364.248 24.0465 364.494 24.1833 364.699 24.3564C364.909 24.5296 365.087 24.7233 365.232 24.9375H365.308C365.285 24.7962 365.257 24.5934 365.226 24.3291C365.198 24.0602 365.185 23.8118 365.185 23.584V20.8633H366.798V31.5H365.54L365.253 30.4678H365.185C365.048 30.6865 364.875 30.8848 364.665 31.0625C364.46 31.2357 364.214 31.3747 363.927 31.4795C363.644 31.5843 363.309 31.6367 362.922 31.6367ZM363.373 30.3311C364.061 30.3311 364.547 30.1328 364.829 29.7363C365.112 29.3398 365.257 28.7451 365.267 27.9521V27.7402C365.267 26.8926 365.13 26.2432 364.856 25.792C364.583 25.3363 364.084 25.1084 363.359 25.1084C362.781 25.1084 362.339 25.3431 362.033 25.8125C361.732 26.2773 361.582 26.9268 361.582 27.7607C361.582 28.5947 361.732 29.2327 362.033 29.6748C362.339 30.1123 362.785 30.3311 363.373 30.3311ZM370.708 23.9326V31.5H369.102V23.9326H370.708ZM369.915 21.0342C370.161 21.0342 370.373 21.1003 370.551 21.2324C370.733 21.3646 370.824 21.5924 370.824 21.916C370.824 22.235 370.733 22.4629 370.551 22.5996C370.373 22.7318 370.161 22.7979 369.915 22.7979C369.66 22.7979 369.443 22.7318 369.266 22.5996C369.092 22.4629 369.006 22.235 369.006 21.916C369.006 21.5924 369.092 21.3646 369.266 21.2324C369.443 21.1003 369.66 21.0342 369.915 21.0342ZM375.828 30.3379C376.038 30.3379 376.245 30.3197 376.45 30.2832C376.655 30.2422 376.842 30.1943 377.011 30.1396V31.3564C376.833 31.4339 376.603 31.5 376.32 31.5547C376.038 31.6094 375.744 31.6367 375.438 31.6367C375.01 31.6367 374.625 31.5661 374.283 31.4248C373.941 31.279 373.67 31.0306 373.47 30.6797C373.269 30.3288 373.169 29.8434 373.169 29.2236V25.1562H372.137V24.4385L373.244 23.8711L373.771 22.251H374.782V23.9326H376.949V25.1562H374.782V29.2031C374.782 29.5859 374.878 29.8708 375.069 30.0576C375.261 30.2445 375.514 30.3379 375.828 30.3379ZM388.543 31.5L387.565 28.7246H383.744L382.767 31.5H381.037L384.756 21.4648H386.574L390.286 31.5H388.543ZM387.142 27.3164L386.191 24.582C386.155 24.4635 386.103 24.2972 386.034 24.083C385.966 23.8643 385.897 23.6432 385.829 23.4199C385.761 23.1921 385.704 23.0007 385.658 22.8457C385.613 23.0326 385.556 23.2422 385.487 23.4746C385.424 23.7025 385.36 23.9167 385.296 24.1172C385.237 24.3177 385.191 24.4727 385.159 24.582L384.202 27.3164H387.142ZM394.49 31.6367C393.775 31.6367 393.155 31.4977 392.631 31.2197C392.107 30.9417 391.703 30.5156 391.421 29.9414C391.138 29.3672 390.997 28.638 390.997 27.7539C390.997 26.8333 391.152 26.0814 391.462 25.498C391.772 24.9147 392.2 24.484 392.747 24.2061C393.299 23.9281 393.93 23.7891 394.641 23.7891C395.092 23.7891 395.5 23.8346 395.864 23.9258C396.233 24.0124 396.546 24.1195 396.801 24.2471L396.322 25.5322C396.044 25.4183 395.759 25.3226 395.468 25.2451C395.176 25.1676 394.896 25.1289 394.627 25.1289C394.185 25.1289 393.816 25.2269 393.52 25.4229C393.228 25.6188 393.009 25.9105 392.863 26.2979C392.722 26.6852 392.651 27.166 392.651 27.7402C392.651 28.2962 392.724 28.7656 392.87 29.1484C393.016 29.5267 393.232 29.8138 393.52 30.0098C393.807 30.2012 394.16 30.2969 394.579 30.2969C394.994 30.2969 395.365 30.2467 395.693 30.1465C396.021 30.0462 396.331 29.9163 396.623 29.7568V31.1514C396.336 31.3154 396.028 31.4362 395.7 31.5137C395.372 31.5957 394.969 31.6367 394.49 31.6367ZM401.217 30.3379C401.426 30.3379 401.634 30.3197 401.839 30.2832C402.044 30.2422 402.231 30.1943 402.399 30.1396V31.3564C402.222 31.4339 401.992 31.5 401.709 31.5547C401.426 31.6094 401.132 31.6367 400.827 31.6367C400.399 31.6367 400.014 31.5661 399.672 31.4248C399.33 31.279 399.059 31.0306 398.858 30.6797C398.658 30.3288 398.558 29.8434 398.558 29.2236V25.1562H397.525V24.4385L398.633 23.8711L399.159 22.251H400.171V23.9326H402.338V25.1562H400.171V29.2031C400.171 29.5859 400.267 29.8708 400.458 30.0576C400.649 30.2445 400.902 30.3379 401.217 30.3379ZM405.544 23.9326V31.5H403.938V23.9326H405.544ZM404.751 21.0342C404.997 21.0342 405.209 21.1003 405.387 21.2324C405.569 21.3646 405.66 21.5924 405.66 21.916C405.66 22.235 405.569 22.4629 405.387 22.5996C405.209 22.7318 404.997 22.7979 404.751 22.7979C404.496 22.7979 404.279 22.7318 404.102 22.5996C403.928 22.4629 403.842 22.235 403.842 21.916C403.842 21.5924 403.928 21.3646 404.102 21.2324C404.279 21.1003 404.496 21.0342 404.751 21.0342ZM409.577 31.5L406.699 23.9326H408.401L409.96 28.376C410.06 28.6585 410.151 28.9639 410.233 29.292C410.315 29.6201 410.372 29.8958 410.404 30.1191H410.459C410.491 29.8867 410.552 29.6087 410.644 29.2852C410.735 28.957 410.828 28.654 410.924 28.376L412.482 23.9326H414.178L411.3 31.5H409.577ZM416.933 23.9326V31.5H415.326V23.9326H416.933ZM416.14 21.0342C416.386 21.0342 416.598 21.1003 416.775 21.2324C416.958 21.3646 417.049 21.5924 417.049 21.916C417.049 22.235 416.958 22.4629 416.775 22.5996C416.598 22.7318 416.386 22.7979 416.14 22.7979C415.884 22.7979 415.668 22.7318 415.49 22.5996C415.317 22.4629 415.23 22.235 415.23 21.916C415.23 21.5924 415.317 21.3646 415.49 21.2324C415.668 21.1003 415.884 21.0342 416.14 21.0342ZM422.053 30.3379C422.262 30.3379 422.47 30.3197 422.675 30.2832C422.88 30.2422 423.067 30.1943 423.235 30.1396V31.3564C423.058 31.4339 422.827 31.5 422.545 31.5547C422.262 31.6094 421.968 31.6367 421.663 31.6367C421.235 31.6367 420.85 31.5661 420.508 31.4248C420.166 31.279 419.895 31.0306 419.694 30.6797C419.494 30.3288 419.394 29.8434 419.394 29.2236V25.1562H418.361V24.4385L419.469 23.8711L419.995 22.251H421.007V23.9326H423.174V25.1562H421.007V29.2031C421.007 29.5859 421.103 29.8708 421.294 30.0576C421.485 30.2445 421.738 30.3379 422.053 30.3379ZM423.632 23.9326H425.382L426.934 28.2529C427.002 28.4489 427.063 28.6426 427.118 28.834C427.177 29.0208 427.228 29.2054 427.269 29.3877C427.314 29.57 427.351 29.7523 427.378 29.9346H427.419C427.465 29.6976 427.528 29.4333 427.61 29.1416C427.697 28.8454 427.793 28.5492 427.897 28.2529L429.388 23.9326H431.117L427.87 32.5391C427.683 33.0312 427.453 33.4505 427.18 33.7969C426.911 34.1478 426.592 34.4121 426.223 34.5898C425.854 34.7721 425.432 34.8633 424.958 34.8633C424.73 34.8633 424.532 34.8496 424.363 34.8223C424.195 34.7995 424.051 34.7744 423.933 34.7471V33.4619C424.028 33.4847 424.149 33.5052 424.295 33.5234C424.441 33.5417 424.591 33.5508 424.746 33.5508C425.033 33.5508 425.282 33.4938 425.491 33.3799C425.701 33.266 425.879 33.1042 426.024 32.8945C426.17 32.6895 426.291 32.4548 426.387 32.1904L426.653 31.4795L423.632 23.9326Z" fill="#16161A"/>
</g>
<g id="Group 427319690_2">
<g id="+121% VS prev. 30 days_2">
<path d="M296.101 88.4561H298.835V89.6729H296.101V92.4346H294.884V89.6729H292.156V88.4561H294.884V85.667H296.101V88.4561ZM304.864 94H303.251V87.5674C303.251 87.3532 303.253 87.139 303.258 86.9248C303.262 86.7106 303.267 86.501 303.271 86.2959C303.281 86.0908 303.292 85.8949 303.306 85.708C303.21 85.8128 303.091 85.9268 302.95 86.0498C302.813 86.1729 302.668 86.3005 302.513 86.4326L301.364 87.3486L300.558 86.3301L303.524 84.0059H304.864V94ZM314.92 94H308.152V92.79L310.743 90.165C311.244 89.6546 311.657 89.2148 311.98 88.8457C312.304 88.472 312.543 88.1188 312.698 87.7861C312.858 87.4535 312.938 87.0911 312.938 86.6992C312.938 86.2161 312.799 85.8516 312.521 85.6055C312.243 85.3548 311.876 85.2295 311.42 85.2295C310.987 85.2295 310.586 85.3161 310.217 85.4893C309.852 85.6579 309.474 85.8994 309.082 86.2139L308.2 85.1543C308.478 84.9173 308.774 84.7008 309.089 84.5049C309.408 84.3089 309.763 84.154 310.155 84.04C310.547 83.9215 310.994 83.8623 311.495 83.8623C312.129 83.8623 312.675 83.9762 313.136 84.2041C313.596 84.4274 313.949 84.7396 314.195 85.1406C314.446 85.5417 314.571 86.0088 314.571 86.542C314.571 87.0798 314.464 87.5765 314.25 88.0322C314.036 88.488 313.73 88.9391 313.334 89.3857C312.938 89.8278 312.466 90.3086 311.919 90.8281L310.189 92.5166V92.5918H314.92V94ZM320.888 94H319.274V87.5674C319.274 87.3532 319.277 87.139 319.281 86.9248C319.286 86.7106 319.29 86.501 319.295 86.2959C319.304 86.0908 319.315 85.8949 319.329 85.708C319.233 85.8128 319.115 85.9268 318.974 86.0498C318.837 86.1729 318.691 86.3005 318.536 86.4326L317.388 87.3486L316.581 86.3301L319.548 84.0059H320.888V94ZM326.309 83.8623C327.042 83.8623 327.598 84.1357 327.977 84.6826C328.355 85.2249 328.544 85.9928 328.544 86.9863C328.544 87.9753 328.362 88.7477 327.997 89.3037C327.637 89.8597 327.074 90.1377 326.309 90.1377C325.593 90.1377 325.049 89.8597 324.675 89.3037C324.301 88.7477 324.114 87.9753 324.114 86.9863C324.114 85.9928 324.29 85.2249 324.641 84.6826C324.996 84.1357 325.552 83.8623 326.309 83.8623ZM326.315 84.9834C326.019 84.9834 325.8 85.1497 325.659 85.4824C325.522 85.8151 325.454 86.3187 325.454 86.9932C325.454 87.6631 325.522 88.1689 325.659 88.5107C325.8 88.848 326.019 89.0166 326.315 89.0166C326.616 89.0166 326.84 88.848 326.985 88.5107C327.136 88.1735 327.211 87.6676 327.211 86.9932C327.211 86.3232 327.138 85.8219 326.992 85.4893C326.846 85.152 326.621 84.9834 326.315 84.9834ZM333.021 84.0059L327.478 94H326.158L331.702 84.0059H333.021ZM332.837 87.8613C333.571 87.8613 334.127 88.1348 334.505 88.6816C334.888 89.224 335.079 89.9919 335.079 90.9854C335.079 91.9697 334.897 92.7399 334.532 93.2959C334.172 93.8519 333.607 94.1299 332.837 94.1299C332.121 94.1299 331.577 93.8519 331.203 93.2959C330.829 92.7399 330.643 91.9697 330.643 90.9854C330.643 89.9919 330.818 89.224 331.169 88.6816C331.524 88.1348 332.08 87.8613 332.837 87.8613ZM332.844 88.9824C332.548 88.9824 332.329 89.1488 332.188 89.4814C332.051 89.8141 331.982 90.3177 331.982 90.9922C331.982 91.6621 332.051 92.168 332.188 92.5098C332.329 92.847 332.548 93.0156 332.844 93.0156C333.149 93.0156 333.375 92.8493 333.521 92.5166C333.666 92.1794 333.739 91.6712 333.739 90.9922C333.739 90.3223 333.666 89.821 333.521 89.4883C333.375 89.151 333.149 88.9824 332.844 88.9824Z" fill="#00BC59"/>
<path d="M347.63 84.0059L344.041 94H342.872L339.283 84.0059H340.5L342.838 90.5889C342.934 90.8532 343.018 91.1061 343.091 91.3477C343.168 91.5892 343.237 91.8216 343.296 92.0449C343.355 92.2682 343.408 92.4847 343.453 92.6943C343.499 92.4847 343.551 92.2682 343.61 92.0449C343.67 91.8171 343.738 91.5824 343.815 91.3408C343.893 91.0947 343.979 90.8372 344.075 90.5684L346.399 84.0059H347.63ZM354.644 91.3408C354.644 91.9333 354.495 92.4391 354.199 92.8584C353.908 93.2731 353.497 93.5898 352.969 93.8086C352.44 94.0273 351.818 94.1367 351.103 94.1367C350.724 94.1367 350.367 94.1185 350.029 94.082C349.692 94.0456 349.382 93.9932 349.1 93.9248C348.817 93.8564 348.569 93.7721 348.354 93.6719V92.5576C348.696 92.6989 349.113 92.8311 349.605 92.9541C350.098 93.0726 350.613 93.1318 351.15 93.1318C351.652 93.1318 352.076 93.0658 352.422 92.9336C352.768 92.7969 353.03 92.6032 353.208 92.3525C353.39 92.0973 353.481 91.792 353.481 91.4365C353.481 91.0947 353.406 90.8099 353.256 90.582C353.105 90.3496 352.855 90.14 352.504 89.9531C352.158 89.7617 351.684 89.5589 351.082 89.3447C350.658 89.1943 350.285 89.0303 349.961 88.8525C349.637 88.6702 349.366 88.4652 349.147 88.2373C348.929 88.0094 348.762 87.7451 348.648 87.4443C348.539 87.1436 348.484 86.7995 348.484 86.4121C348.484 85.8789 348.619 85.4232 348.888 85.0449C349.161 84.6621 349.537 84.3704 350.016 84.1699C350.499 83.9648 351.052 83.8623 351.677 83.8623C352.21 83.8623 352.702 83.9124 353.153 84.0127C353.609 84.113 354.026 84.2474 354.404 84.416L354.042 85.4141C353.682 85.2637 353.299 85.1383 352.894 85.0381C352.493 84.9378 352.078 84.8877 351.649 84.8877C351.221 84.8877 350.859 84.9515 350.562 85.0791C350.271 85.2021 350.048 85.3776 349.893 85.6055C349.738 85.8333 349.66 86.1045 349.66 86.4189C349.66 86.7699 349.733 87.0615 349.879 87.2939C350.029 87.5264 350.266 87.7337 350.59 87.916C350.918 88.0938 351.351 88.2806 351.889 88.4766C352.477 88.6908 352.976 88.9186 353.386 89.1602C353.796 89.3971 354.108 89.6888 354.322 90.0352C354.536 90.377 354.644 90.8122 354.644 91.3408ZM363.674 86.3711C364.608 86.3711 365.353 86.6924 365.909 87.335C366.465 87.9775 366.743 88.9437 366.743 90.2334C366.743 91.0856 366.616 91.8011 366.36 92.3799C366.105 92.9587 365.745 93.3962 365.28 93.6924C364.82 93.9886 364.275 94.1367 363.646 94.1367C363.25 94.1367 362.901 94.0843 362.601 93.9795C362.3 93.8747 362.042 93.7334 361.828 93.5557C361.614 93.3779 361.436 93.1842 361.295 92.9746H361.213C361.227 93.1523 361.243 93.3665 361.261 93.6172C361.284 93.8678 361.295 94.0866 361.295 94.2734V97.3496H360.153V86.5078H361.09L361.24 87.6152H361.295C361.441 87.3874 361.618 87.18 361.828 86.9932C362.038 86.8018 362.293 86.6514 362.594 86.542C362.899 86.4281 363.259 86.3711 363.674 86.3711ZM363.476 87.3281C362.956 87.3281 362.537 87.4284 362.218 87.6289C361.903 87.8294 361.673 88.1302 361.527 88.5312C361.382 88.9277 361.304 89.4268 361.295 90.0283V90.2471C361.295 90.8805 361.363 91.416 361.5 91.8535C361.641 92.291 361.871 92.6237 362.19 92.8516C362.514 93.0794 362.947 93.1934 363.489 93.1934C363.954 93.1934 364.341 93.068 364.651 92.8174C364.961 92.5667 365.191 92.2181 365.342 91.7715C365.497 91.3203 365.574 90.8031 365.574 90.2197C365.574 89.3356 365.401 88.6338 365.055 88.1143C364.713 87.5902 364.187 87.3281 363.476 87.3281ZM372.13 86.3711C372.28 86.3711 372.438 86.3802 372.602 86.3984C372.766 86.4121 372.911 86.4326 373.039 86.46L372.896 87.5127C372.772 87.4808 372.636 87.4557 372.485 87.4375C372.335 87.4193 372.194 87.4102 372.062 87.4102C371.761 87.4102 371.476 87.4717 371.207 87.5947C370.943 87.7132 370.71 87.8864 370.51 88.1143C370.309 88.3376 370.152 88.6087 370.038 88.9277C369.924 89.2422 369.867 89.5931 369.867 89.9805V94H368.726V86.5078H369.669L369.792 87.8887H369.84C369.995 87.6107 370.182 87.3577 370.4 87.1299C370.619 86.8975 370.872 86.7129 371.159 86.5762C371.451 86.4395 371.774 86.3711 372.13 86.3711ZM377.339 86.3711C377.977 86.3711 378.524 86.5124 378.979 86.7949C379.435 87.0775 379.784 87.474 380.025 87.9844C380.267 88.4902 380.388 89.0827 380.388 89.7617V90.4658H375.213C375.227 91.3454 375.445 92.0153 375.869 92.4756C376.293 92.9359 376.89 93.166 377.66 93.166C378.134 93.166 378.553 93.1227 378.918 93.0361C379.283 92.9495 379.661 92.8219 380.053 92.6533V93.6514C379.674 93.82 379.299 93.943 378.925 94.0205C378.556 94.098 378.118 94.1367 377.612 94.1367C376.892 94.1367 376.263 93.9909 375.726 93.6992C375.192 93.403 374.778 92.9701 374.481 92.4004C374.185 91.8307 374.037 91.1335 374.037 90.3086C374.037 89.502 374.172 88.8047 374.44 88.2168C374.714 87.6243 375.097 87.1686 375.589 86.8496C376.086 86.5306 376.669 86.3711 377.339 86.3711ZM377.325 87.3008C376.719 87.3008 376.236 87.499 375.876 87.8955C375.516 88.292 375.302 88.8457 375.233 89.5566H379.198C379.194 89.11 379.123 88.7181 378.986 88.3809C378.854 88.0391 378.651 87.7747 378.378 87.5879C378.104 87.3965 377.754 87.3008 377.325 87.3008ZM383.963 94L381.119 86.5078H382.336L383.983 91.04C384.097 91.3499 384.214 91.6917 384.332 92.0654C384.451 92.4391 384.533 92.7399 384.578 92.9678H384.626C384.681 92.7399 384.772 92.4391 384.899 92.0654C385.027 91.6872 385.143 91.3454 385.248 91.04L386.896 86.5078H388.112L385.262 94H383.963ZM389.145 93.2891C389.145 92.9701 389.222 92.7445 389.377 92.6123C389.532 92.4756 389.721 92.4072 389.944 92.4072C390.177 92.4072 390.373 92.4756 390.532 92.6123C390.692 92.7445 390.771 92.9701 390.771 93.2891C390.771 93.6035 390.692 93.8337 390.532 93.9795C390.373 94.1208 390.177 94.1914 389.944 94.1914C389.721 94.1914 389.532 94.1208 389.377 93.9795C389.222 93.8337 389.145 93.6035 389.145 93.2891ZM402.304 86.3369C402.304 86.7835 402.217 87.1709 402.044 87.499C401.871 87.8271 401.629 88.096 401.319 88.3057C401.009 88.5107 400.645 88.6543 400.226 88.7363V88.791C401.019 88.8913 401.613 89.1465 402.01 89.5566C402.411 89.9668 402.611 90.5046 402.611 91.1699C402.611 91.7487 402.475 92.2614 402.201 92.708C401.932 93.1546 401.518 93.5055 400.957 93.7607C400.401 94.0114 399.688 94.1367 398.817 94.1367C398.289 94.1367 397.799 94.0934 397.348 94.0068C396.901 93.9248 396.473 93.7858 396.062 93.5898V92.5234C396.477 92.7285 396.928 92.8903 397.416 93.0088C397.904 93.1227 398.375 93.1797 398.831 93.1797C399.743 93.1797 400.401 92.9997 400.807 92.6396C401.212 92.2751 401.415 91.7783 401.415 91.1494C401.415 90.7165 401.301 90.3678 401.073 90.1035C400.85 89.8346 400.526 89.6387 400.103 89.5156C399.683 89.388 399.177 89.3242 398.585 89.3242H397.587V88.3535H398.592C399.134 88.3535 399.594 88.2738 399.973 88.1143C400.351 87.9548 400.638 87.7314 400.834 87.4443C401.035 87.1527 401.135 86.8086 401.135 86.4121C401.135 85.9062 400.966 85.5166 400.629 85.2432C400.292 84.9652 399.834 84.8262 399.255 84.8262C398.899 84.8262 398.576 84.8626 398.284 84.9355C397.993 85.0085 397.719 85.1087 397.464 85.2363C397.209 85.3639 396.953 85.512 396.698 85.6807L396.124 84.9014C396.489 84.6188 396.933 84.375 397.457 84.1699C397.981 83.9648 398.576 83.8623 399.241 83.8623C400.262 83.8623 401.028 84.0947 401.538 84.5596C402.049 85.0244 402.304 85.6169 402.304 86.3369ZM410.739 88.9893C410.739 89.8005 410.678 90.5251 410.555 91.1631C410.432 91.8011 410.238 92.3411 409.974 92.7832C409.709 93.2253 409.368 93.5625 408.948 93.7949C408.529 94.0228 408.025 94.1367 407.438 94.1367C406.695 94.1367 406.079 93.9339 405.592 93.5283C405.109 93.1227 404.746 92.5371 404.505 91.7715C404.268 91.0013 404.149 90.0739 404.149 88.9893C404.149 87.9229 404.257 87.0068 404.471 86.2412C404.689 85.471 405.04 84.8809 405.523 84.4707C406.007 84.056 406.645 83.8486 407.438 83.8486C408.189 83.8486 408.809 84.0537 409.297 84.4639C409.785 84.8695 410.147 85.4574 410.384 86.2275C410.621 86.9932 410.739 87.9137 410.739 88.9893ZM405.291 88.9893C405.291 89.9189 405.362 90.6937 405.503 91.3135C405.644 91.9333 405.872 92.3981 406.187 92.708C406.506 93.0133 406.923 93.166 407.438 93.166C407.952 93.166 408.367 93.0133 408.682 92.708C409.001 92.4027 409.231 91.9401 409.372 91.3203C409.518 90.7005 409.591 89.9235 409.591 88.9893C409.591 88.0732 409.52 87.3076 409.379 86.6924C409.238 86.0726 409.01 85.6077 408.695 85.2979C408.381 84.9834 407.962 84.8262 407.438 84.8262C406.913 84.8262 406.494 84.9834 406.18 85.2979C405.865 85.6077 405.637 86.0726 405.496 86.6924C405.359 87.3076 405.291 88.0732 405.291 88.9893ZM418.956 94.1367C418.008 94.1367 417.256 93.8132 416.7 93.166C416.149 92.5189 415.873 91.5573 415.873 90.2812C415.873 88.9915 416.156 88.0186 416.721 87.3623C417.286 86.7015 418.038 86.3711 418.977 86.3711C419.373 86.3711 419.719 86.4235 420.016 86.5283C420.312 86.6331 420.567 86.7744 420.781 86.9521C420.995 87.1253 421.175 87.3236 421.321 87.5469H421.403C421.385 87.4056 421.367 87.2119 421.349 86.9658C421.33 86.7197 421.321 86.5192 421.321 86.3643V83.3633H422.456V94H421.54L421.369 92.9336H421.321C421.18 93.1569 421 93.3597 420.781 93.542C420.567 93.7243 420.31 93.8701 420.009 93.9795C419.713 94.0843 419.362 94.1367 418.956 94.1367ZM419.134 93.1934C419.936 93.1934 420.503 92.9655 420.836 92.5098C421.169 92.054 421.335 91.3773 421.335 90.4795V90.2744C421.335 89.3219 421.175 88.5905 420.856 88.0801C420.542 87.5697 419.968 87.3145 419.134 87.3145C418.437 87.3145 417.915 87.5833 417.568 88.1211C417.222 88.6543 417.049 89.3835 417.049 90.3086C417.049 91.2292 417.22 91.9401 417.562 92.4414C417.908 92.9427 418.432 93.1934 419.134 93.1934ZM427.665 86.3848C428.558 86.3848 429.221 86.5853 429.654 86.9863C430.087 87.3874 430.304 88.0277 430.304 88.9072V94H429.477L429.258 92.8926H429.203C428.993 93.166 428.775 93.3962 428.547 93.583C428.319 93.7653 428.055 93.9043 427.754 94C427.458 94.0911 427.093 94.1367 426.66 94.1367C426.204 94.1367 425.799 94.057 425.443 93.8975C425.092 93.738 424.814 93.4964 424.609 93.1729C424.409 92.8493 424.309 92.4391 424.309 91.9424C424.309 91.195 424.605 90.6208 425.197 90.2197C425.79 89.8187 426.692 89.5999 427.904 89.5635L429.196 89.5088V89.0508C429.196 88.4036 429.057 87.9502 428.779 87.6904C428.501 87.4307 428.109 87.3008 427.604 87.3008C427.212 87.3008 426.838 87.3577 426.482 87.4717C426.127 87.5856 425.79 87.7201 425.471 87.875L425.122 87.0137C425.459 86.8405 425.847 86.6924 426.284 86.5693C426.722 86.4463 427.182 86.3848 427.665 86.3848ZM429.183 90.3086L428.041 90.3564C427.107 90.3929 426.448 90.5456 426.065 90.8145C425.683 91.0833 425.491 91.4639 425.491 91.9561C425.491 92.3844 425.621 92.7012 425.881 92.9062C426.141 93.1113 426.485 93.2139 426.913 93.2139C427.578 93.2139 428.123 93.0293 428.547 92.6602C428.971 92.291 429.183 91.7373 429.183 90.999V90.3086ZM431.459 86.5078H432.676L434.33 90.8555C434.426 91.1107 434.515 91.3568 434.597 91.5938C434.679 91.8262 434.752 92.0495 434.815 92.2637C434.879 92.4779 434.929 92.6852 434.966 92.8857H435.014C435.077 92.6579 435.169 92.3594 435.287 91.9902C435.406 91.6165 435.533 91.236 435.67 90.8486L437.235 86.5078H438.459L435.198 95.1006C435.025 95.5609 434.822 95.9619 434.59 96.3037C434.362 96.6455 434.084 96.9076 433.756 97.0898C433.428 97.2767 433.031 97.3701 432.566 97.3701C432.352 97.3701 432.163 97.3564 431.999 97.3291C431.835 97.3063 431.694 97.279 431.575 97.2471V96.3379C431.675 96.3607 431.796 96.3812 431.938 96.3994C432.083 96.4176 432.234 96.4268 432.389 96.4268C432.671 96.4268 432.915 96.3721 433.12 96.2627C433.33 96.1579 433.51 96.0029 433.66 95.7979C433.811 95.5928 433.94 95.349 434.05 95.0664L434.46 94.0137L431.459 86.5078ZM444.502 91.9492C444.502 92.4277 444.381 92.8311 444.14 93.1592C443.903 93.4827 443.561 93.7266 443.114 93.8906C442.672 94.0547 442.144 94.1367 441.528 94.1367C441.004 94.1367 440.551 94.0957 440.168 94.0137C439.785 93.9316 439.45 93.8154 439.163 93.665V92.6191C439.468 92.7695 439.833 92.9062 440.257 93.0293C440.681 93.1523 441.114 93.2139 441.556 93.2139C442.203 93.2139 442.672 93.109 442.964 92.8994C443.256 92.6898 443.401 92.4049 443.401 92.0449C443.401 91.8398 443.342 91.6598 443.224 91.5049C443.11 91.3454 442.916 91.1927 442.643 91.0469C442.369 90.8965 441.991 90.7324 441.508 90.5547C441.029 90.3724 440.615 90.1924 440.264 90.0146C439.917 89.8324 439.648 89.6113 439.457 89.3516C439.27 89.0918 439.177 88.7546 439.177 88.3398C439.177 87.7064 439.432 87.221 439.942 86.8838C440.457 86.542 441.132 86.3711 441.966 86.3711C442.417 86.3711 442.839 86.4167 443.23 86.5078C443.627 86.5944 443.996 86.7129 444.338 86.8633L443.955 87.7725C443.645 87.6403 443.315 87.5286 442.964 87.4375C442.613 87.3464 442.255 87.3008 441.891 87.3008C441.367 87.3008 440.963 87.3874 440.681 87.5605C440.403 87.7337 440.264 87.9707 440.264 88.2715C440.264 88.5039 440.327 88.6953 440.455 88.8457C440.587 88.9961 440.797 89.1374 441.084 89.2695C441.371 89.4017 441.749 89.5566 442.219 89.7344C442.688 89.9076 443.094 90.0876 443.436 90.2744C443.777 90.4567 444.039 90.68 444.222 90.9443C444.409 91.2041 444.502 91.5391 444.502 91.9492Z" fill="#6C788A"/>
</g>
<path id="183,651 Mentions_2" d="M296.415 67H295.308V59.918C295.308 59.6491 295.308 59.4189 295.308 59.2275C295.312 59.0316 295.317 58.8538 295.321 58.6943C295.33 58.5303 295.342 58.3639 295.355 58.1953C295.214 58.3411 295.082 58.4665 294.959 58.5713C294.836 58.6715 294.683 58.7969 294.501 58.9473L293.359 59.8633L292.765 59.0908L295.472 57.0059H296.415V67ZM303.504 56.8623C304.083 56.8623 304.595 56.9535 305.042 57.1357C305.489 57.318 305.837 57.5869 306.088 57.9424C306.343 58.2933 306.471 58.7262 306.471 59.2412C306.471 59.6468 306.382 60.0023 306.204 60.3076C306.031 60.6084 305.796 60.8727 305.5 61.1006C305.204 61.3239 304.876 61.5244 304.516 61.7021C304.944 61.8981 305.329 62.1191 305.671 62.3652C306.017 62.6113 306.291 62.9007 306.491 63.2334C306.692 63.5661 306.792 63.9603 306.792 64.416C306.792 64.9766 306.655 65.4619 306.382 65.8721C306.113 66.2777 305.735 66.5898 305.247 66.8086C304.759 67.0273 304.188 67.1367 303.531 67.1367C302.825 67.1367 302.223 67.0319 301.727 66.8223C301.234 66.6081 300.858 66.3027 300.599 65.9062C300.343 65.5052 300.216 65.0244 300.216 64.4639C300.216 64.0036 300.314 63.6048 300.51 63.2676C300.706 62.9258 300.965 62.6318 301.289 62.3857C301.613 62.1396 301.966 61.9323 302.349 61.7637C302.016 61.5814 301.711 61.374 301.433 61.1416C301.159 60.9092 300.94 60.638 300.776 60.3281C300.617 60.0137 300.537 59.6491 300.537 59.2344C300.537 58.7285 300.665 58.3001 300.92 57.9492C301.18 57.5938 301.533 57.3249 301.979 57.1426C302.431 56.9557 302.939 56.8623 303.504 56.8623ZM301.33 64.4707C301.33 64.9811 301.51 65.4027 301.87 65.7354C302.23 66.0635 302.775 66.2275 303.504 66.2275C304.197 66.2275 304.732 66.0635 305.11 65.7354C305.489 65.4027 305.678 64.9674 305.678 64.4297C305.678 64.097 305.591 63.8053 305.418 63.5547C305.245 63.2995 304.999 63.0716 304.68 62.8711C304.361 62.6706 303.985 62.4883 303.552 62.3242L303.306 62.2354C302.886 62.4085 302.529 62.6022 302.232 62.8164C301.941 63.026 301.717 63.2653 301.562 63.5342C301.408 63.8031 301.33 64.1152 301.33 64.4707ZM303.49 57.792C302.952 57.792 302.513 57.9219 302.171 58.1816C301.829 58.4368 301.658 58.806 301.658 59.2891C301.658 59.6354 301.74 59.9294 301.904 60.1709C302.073 60.4079 302.301 60.613 302.588 60.7861C302.875 60.9548 303.196 61.112 303.552 61.2578C303.898 61.112 304.206 60.9525 304.475 60.7793C304.743 60.6016 304.955 60.3919 305.11 60.1504C305.265 59.9089 305.343 59.6195 305.343 59.2822C305.343 58.7992 305.172 58.43 304.83 58.1748C304.493 57.9196 304.046 57.792 303.49 57.792ZM314.394 59.3369C314.394 59.7835 314.307 60.1709 314.134 60.499C313.961 60.8271 313.719 61.096 313.409 61.3057C313.099 61.5107 312.735 61.6543 312.315 61.7363V61.791C313.108 61.8913 313.703 62.1465 314.1 62.5566C314.501 62.9668 314.701 63.5046 314.701 64.1699C314.701 64.7487 314.564 65.2614 314.291 65.708C314.022 66.1546 313.607 66.5055 313.047 66.7607C312.491 67.0114 311.778 67.1367 310.907 67.1367C310.379 67.1367 309.889 67.0934 309.438 67.0068C308.991 66.9248 308.562 66.7858 308.152 66.5898V65.5234C308.567 65.7285 309.018 65.8903 309.506 66.0088C309.993 66.1227 310.465 66.1797 310.921 66.1797C311.832 66.1797 312.491 65.9997 312.896 65.6396C313.302 65.2751 313.505 64.7783 313.505 64.1494C313.505 63.7165 313.391 63.3678 313.163 63.1035C312.94 62.8346 312.616 62.6387 312.192 62.5156C311.773 62.388 311.267 62.3242 310.675 62.3242H309.677V61.3535H310.682C311.224 61.3535 311.684 61.2738 312.062 61.1143C312.441 60.9548 312.728 60.7314 312.924 60.4443C313.124 60.1527 313.225 59.8086 313.225 59.4121C313.225 58.9062 313.056 58.5166 312.719 58.2432C312.382 57.9652 311.924 57.8262 311.345 57.8262C310.989 57.8262 310.666 57.8626 310.374 57.9355C310.082 58.0085 309.809 58.1087 309.554 58.2363C309.299 58.3639 309.043 58.512 308.788 58.6807L308.214 57.9014C308.578 57.6188 309.023 57.375 309.547 57.1699C310.071 56.9648 310.666 56.8623 311.331 56.8623C312.352 56.8623 313.118 57.0947 313.628 57.5596C314.138 58.0244 314.394 58.6169 314.394 59.3369ZM318.03 65.373L318.119 65.5303C318.037 65.863 317.932 66.2184 317.805 66.5967C317.682 66.9749 317.545 67.3532 317.395 67.7314C317.249 68.1143 317.101 68.472 316.95 68.8047H316.103C316.198 68.4401 316.292 68.055 316.383 67.6494C316.474 67.2484 316.556 66.8519 316.629 66.46C316.706 66.0635 316.768 65.7012 316.813 65.373H318.03ZM319.951 62.7275C319.951 62.126 319.992 61.5381 320.074 60.9639C320.161 60.3896 320.304 59.8564 320.505 59.3643C320.705 58.8675 320.979 58.4323 321.325 58.0586C321.672 57.6849 322.102 57.3932 322.617 57.1836C323.137 56.9694 323.759 56.8623 324.483 56.8623C324.688 56.8623 324.91 56.8737 325.146 56.8965C325.383 56.9147 325.579 56.9466 325.734 56.9922V57.9697C325.566 57.9105 325.372 57.8672 325.153 57.8398C324.939 57.8125 324.723 57.7988 324.504 57.7988C323.656 57.7988 322.989 57.9834 322.501 58.3525C322.018 58.7217 321.669 59.223 321.455 59.8564C321.241 60.4854 321.118 61.194 321.086 61.9824H321.161C321.302 61.7546 321.482 61.5495 321.701 61.3672C321.92 61.1803 322.184 61.0322 322.494 60.9229C322.809 60.8135 323.173 60.7588 323.588 60.7588C324.171 60.7588 324.679 60.8773 325.112 61.1143C325.55 61.3512 325.887 61.6953 326.124 62.1465C326.366 62.5977 326.486 63.1445 326.486 63.7871C326.486 64.4753 326.359 65.07 326.104 65.5713C325.848 66.0726 325.484 66.46 325.01 66.7334C324.54 67.0023 323.98 67.1367 323.328 67.1367C322.84 67.1367 322.392 67.0433 321.981 66.8564C321.571 66.6696 321.214 66.3916 320.908 66.0225C320.607 65.6533 320.373 65.1953 320.204 64.6484C320.035 64.097 319.951 63.4567 319.951 62.7275ZM323.314 66.1797C323.934 66.1797 324.431 65.9814 324.805 65.585C325.178 65.1885 325.365 64.5892 325.365 63.7871C325.365 63.1309 325.199 62.6113 324.866 62.2285C324.534 61.8457 324.032 61.6543 323.362 61.6543C322.907 61.6543 322.51 61.75 322.173 61.9414C321.836 62.1283 321.574 62.3652 321.387 62.6523C321.2 62.9395 321.106 63.2311 321.106 63.5273C321.106 63.8281 321.15 64.1335 321.236 64.4434C321.327 64.7533 321.464 65.0404 321.646 65.3047C321.829 65.569 322.059 65.7809 322.337 65.9404C322.615 66.0999 322.941 66.1797 323.314 66.1797ZM331.019 60.8887C331.698 60.8887 332.288 61.0049 332.789 61.2373C333.29 61.4652 333.678 61.7979 333.951 62.2354C334.229 62.6729 334.368 63.2038 334.368 63.8281C334.368 64.5117 334.22 65.1019 333.924 65.5986C333.628 66.0908 333.201 66.4714 332.646 66.7402C332.09 67.0046 331.424 67.1367 330.649 67.1367C330.13 67.1367 329.647 67.0911 329.2 67C328.754 66.9089 328.378 66.7721 328.072 66.5898V65.5098C328.405 65.7103 328.808 65.8698 329.282 65.9883C329.756 66.1068 330.216 66.166 330.663 66.166C331.169 66.166 331.611 66.0863 331.989 65.9268C332.372 65.7627 332.668 65.5166 332.878 65.1885C333.092 64.8558 333.199 64.4388 333.199 63.9375C333.199 63.2721 332.994 62.7594 332.584 62.3994C332.178 62.0348 331.536 61.8525 330.656 61.8525C330.374 61.8525 330.064 61.8753 329.727 61.9209C329.389 61.9665 329.111 62.0166 328.893 62.0713L328.318 61.6953L328.701 57.0059H333.671V58.0449H329.672L329.419 61.0596C329.592 61.0231 329.815 60.9867 330.089 60.9502C330.362 60.9092 330.672 60.8887 331.019 60.8887ZM340.097 67H338.989V59.918C338.989 59.6491 338.989 59.4189 338.989 59.2275C338.994 59.0316 338.998 58.8538 339.003 58.6943C339.012 58.5303 339.023 58.3639 339.037 58.1953C338.896 58.3411 338.764 58.4665 338.641 58.5713C338.518 58.6715 338.365 58.7969 338.183 58.9473L337.041 59.8633L336.446 59.0908L339.153 57.0059H340.097V67ZM352.593 67L349.236 58.1543H349.182C349.2 58.3411 349.216 58.569 349.229 58.8379C349.243 59.1068 349.255 59.4007 349.264 59.7197C349.273 60.0342 349.277 60.3555 349.277 60.6836V67H348.197V57.0059H349.92L353.085 65.3184H353.133L356.346 57.0059H358.055V67H356.906V60.6016C356.906 60.3053 356.911 60.0091 356.92 59.7129C356.929 59.4121 356.94 59.1296 356.954 58.8652C356.968 58.5964 356.981 58.3639 356.995 58.168H356.94L353.543 67H352.593ZM363.503 59.3711C364.141 59.3711 364.688 59.5124 365.144 59.7949C365.599 60.0775 365.948 60.474 366.189 60.9844C366.431 61.4902 366.552 62.0827 366.552 62.7617V63.4658H361.377C361.391 64.3454 361.609 65.0153 362.033 65.4756C362.457 65.9359 363.054 66.166 363.824 66.166C364.298 66.166 364.717 66.1227 365.082 66.0361C365.447 65.9495 365.825 65.8219 366.217 65.6533V66.6514C365.839 66.82 365.463 66.943 365.089 67.0205C364.72 67.098 364.282 67.1367 363.776 67.1367C363.056 67.1367 362.427 66.9909 361.89 66.6992C361.356 66.403 360.942 65.9701 360.646 65.4004C360.349 64.8307 360.201 64.1335 360.201 63.3086C360.201 62.502 360.336 61.8047 360.604 61.2168C360.878 60.6243 361.261 60.1686 361.753 59.8496C362.25 59.5306 362.833 59.3711 363.503 59.3711ZM363.489 60.3008C362.883 60.3008 362.4 60.499 362.04 60.8955C361.68 61.292 361.466 61.8457 361.397 62.5566H365.362C365.358 62.11 365.287 61.7181 365.15 61.3809C365.018 61.0391 364.815 60.7747 364.542 60.5879C364.269 60.3965 363.918 60.3008 363.489 60.3008ZM372.027 59.3711C372.916 59.3711 373.588 59.5898 374.044 60.0273C374.5 60.4603 374.728 61.1576 374.728 62.1191V67H373.606V62.1943C373.606 61.57 373.463 61.1029 373.176 60.793C372.893 60.4831 372.458 60.3281 371.87 60.3281C371.041 60.3281 370.457 60.5628 370.12 61.0322C369.783 61.5016 369.614 62.1829 369.614 63.0762V67H368.479V59.5078H369.396L369.566 60.5879H369.628C369.787 60.3236 369.99 60.1025 370.236 59.9248C370.482 59.7425 370.758 59.6058 371.063 59.5146C371.369 59.4189 371.69 59.3711 372.027 59.3711ZM379.485 66.207C379.672 66.207 379.864 66.1911 380.06 66.1592C380.256 66.1273 380.415 66.0885 380.538 66.043V66.9248C380.406 66.984 380.221 67.0342 379.984 67.0752C379.752 67.1162 379.524 67.1367 379.301 67.1367C378.904 67.1367 378.544 67.0684 378.221 66.9316C377.897 66.7904 377.637 66.5534 377.441 66.2207C377.25 65.888 377.154 65.4277 377.154 64.8398V60.3965H376.088V59.8428L377.161 59.3984L377.612 57.7715H378.296V59.5078H380.49V60.3965H378.296V64.8057C378.296 65.2751 378.403 65.626 378.617 65.8584C378.836 66.0908 379.125 66.207 379.485 66.207ZM383.19 59.5078V67H382.056V59.5078H383.19ZM382.637 56.7051C382.824 56.7051 382.983 56.7666 383.115 56.8896C383.252 57.0081 383.32 57.195 383.32 57.4502C383.32 57.7008 383.252 57.8877 383.115 58.0107C382.983 58.1338 382.824 58.1953 382.637 58.1953C382.441 58.1953 382.277 58.1338 382.145 58.0107C382.017 57.8877 381.953 57.7008 381.953 57.4502C381.953 57.195 382.017 57.0081 382.145 56.8896C382.277 56.7666 382.441 56.7051 382.637 56.7051ZM392.057 63.2402C392.057 63.8555 391.977 64.4046 391.817 64.8877C391.658 65.3708 391.428 65.7786 391.127 66.1113C390.826 66.444 390.462 66.6992 390.033 66.877C389.609 67.0501 389.129 67.1367 388.591 67.1367C388.09 67.1367 387.629 67.0501 387.21 66.877C386.795 66.6992 386.435 66.444 386.13 66.1113C385.829 65.7786 385.594 65.3708 385.426 64.8877C385.262 64.4046 385.18 63.8555 385.18 63.2402C385.18 62.4199 385.319 61.7227 385.597 61.1484C385.875 60.5697 386.271 60.1299 386.786 59.8291C387.306 59.5238 387.923 59.3711 388.639 59.3711C389.322 59.3711 389.919 59.5238 390.43 59.8291C390.945 60.1344 391.343 60.5765 391.626 61.1553C391.913 61.7295 392.057 62.4245 392.057 63.2402ZM386.355 63.2402C386.355 63.8418 386.435 64.3636 386.595 64.8057C386.754 65.2477 387 65.5895 387.333 65.8311C387.666 66.0726 388.094 66.1934 388.618 66.1934C389.138 66.1934 389.564 66.0726 389.896 65.8311C390.234 65.5895 390.482 65.2477 390.642 64.8057C390.801 64.3636 390.881 63.8418 390.881 63.2402C390.881 62.6432 390.801 62.1283 390.642 61.6953C390.482 61.2578 390.236 60.9206 389.903 60.6836C389.571 60.4466 389.14 60.3281 388.611 60.3281C387.832 60.3281 387.26 60.5856 386.896 61.1006C386.535 61.6156 386.355 62.3288 386.355 63.2402ZM397.566 59.3711C398.455 59.3711 399.127 59.5898 399.583 60.0273C400.039 60.4603 400.267 61.1576 400.267 62.1191V67H399.146V62.1943C399.146 61.57 399.002 61.1029 398.715 60.793C398.432 60.4831 397.997 60.3281 397.409 60.3281C396.58 60.3281 395.996 60.5628 395.659 61.0322C395.322 61.5016 395.153 62.1829 395.153 63.0762V67H394.019V59.5078H394.935L395.105 60.5879H395.167C395.326 60.3236 395.529 60.1025 395.775 59.9248C396.021 59.7425 396.297 59.6058 396.603 59.5146C396.908 59.4189 397.229 59.3711 397.566 59.3711ZM407.451 64.9492C407.451 65.4277 407.33 65.8311 407.089 66.1592C406.852 66.4827 406.51 66.7266 406.063 66.8906C405.621 67.0547 405.093 67.1367 404.478 67.1367C403.953 67.1367 403.5 67.0957 403.117 67.0137C402.734 66.9316 402.399 66.8154 402.112 66.665V65.6191C402.418 65.7695 402.782 65.9062 403.206 66.0293C403.63 66.1523 404.063 66.2139 404.505 66.2139C405.152 66.2139 405.621 66.109 405.913 65.8994C406.205 65.6898 406.351 65.4049 406.351 65.0449C406.351 64.8398 406.291 64.6598 406.173 64.5049C406.059 64.3454 405.865 64.1927 405.592 64.0469C405.318 63.8965 404.94 63.7324 404.457 63.5547C403.979 63.3724 403.564 63.1924 403.213 63.0146C402.867 62.8324 402.598 62.6113 402.406 62.3516C402.219 62.0918 402.126 61.7546 402.126 61.3398C402.126 60.7064 402.381 60.221 402.892 59.8838C403.407 59.542 404.081 59.3711 404.915 59.3711C405.366 59.3711 405.788 59.4167 406.18 59.5078C406.576 59.5944 406.945 59.7129 407.287 59.8633L406.904 60.7725C406.594 60.6403 406.264 60.5286 405.913 60.4375C405.562 60.3464 405.204 60.3008 404.84 60.3008C404.316 60.3008 403.912 60.3874 403.63 60.5605C403.352 60.7337 403.213 60.9707 403.213 61.2715C403.213 61.5039 403.277 61.6953 403.404 61.8457C403.536 61.9961 403.746 62.1374 404.033 62.2695C404.32 62.4017 404.699 62.5566 405.168 62.7344C405.637 62.9076 406.043 63.0876 406.385 63.2744C406.727 63.4567 406.989 63.68 407.171 63.9443C407.358 64.2041 407.451 64.5391 407.451 64.9492Z" fill="#16161A"/>
</g>
</g>
</g>
</g>
</svg>
